SplineFontDB: 3.2
FontName: Rusimez_Basic
FullName: Rusimez_Basic
FamilyName: Rusimez_Basic
Weight: Regular
Copyright: Copyright (c) 2022, namhw
UComments: "2022-11-25: Created with FontForge (http://fontforge.org)"
Version: 001.000
ItalicAngle: 0
UnderlinePosition: -100
UnderlineWidth: 50
Ascent: 800
Descent: 200
InvalidEm: 0
LayerCount: 2
Layer: 0 0 "+tLe6dAAA" 1
Layer: 1 0 "+xV66dAAA" 0
XUID: [1021 328 918690791 307]
OS2Version: 0
OS2_WeightWidthSlopeOnly: 0
OS2_UseTypoMetrics: 1
CreationTime: 1669386597
ModificationTime: 1673681681
OS2TypoAscent: 0
OS2TypoAOffset: 1
OS2TypoDescent: 0
OS2TypoDOffset: 1
OS2TypoLinegap: 0
OS2WinAscent: 0
OS2WinAOffset: 1
OS2WinDescent: 0
OS2WinDOffset: 1
HheadAscent: 0
HheadAOffset: 1
HheadDescent: 0
HheadDOffset: 1
OS2Vendor: 'PfEd'
MarkAttachClasses: 1
DEI: 91125
Encoding: UnicodeBmp
UnicodeInterp: none
NameList: AGL For New Fonts
DisplaySize: -96
AntiAlias: 1
FitToEm: 0
WinInfo: 57783 17 8
BeginPrivate: 0
EndPrivate
BeginChars: 65536 289

StartChar: uniE100
Encoding: 57600 57600 0
Width: 1000
Flags: HW
LayerCount: 2
Fore
SplineSet
755.799804688 217.599609375 m 1
 816.700195312 184 857.900390625 119.200195312 858 44.7998046875 c 0
 858 -64.2001953125 769.599609375 -152.599609375 660.599609375 -152.599609375 c 0
 551.599609375 -152.599609375 463.200195312 -64.2001953125 463.200195312 44.7998046875 c 0
 463.200195312 90.2001953125 478.599609375 132 504.400390625 165.400390625 c 1
 417.900390625 143.400390625 341.200195312 84.900390625 299 -1.599609375 c 0
 284 -32.2001953125 274.200195312 -65 269.799804688 -98.599609375 c 0
 267.799804688 -111.5 267.099609375 -124.099609375 267.099609375 -136.799804688 c 1
 267.099609375 -136.799804688 l 1
 267.099609375 -137.599609375 267.099609375 -138.5 267.099609375 -139.400390625 c 1
 184.200195312 -139.400390625 l 1
 184.200195312 -138.599609375 184.200195312 -137.700195312 184.200195312 -136.799804688 c 1
 184.200195312 -136.799804688 l 1
 184.200195312 159.099609375 228.200195312 453.400390625 314.700195312 736.400390625 c 1
 396.200195312 711.400390625 l 1
 337.299804688 518.700195312 298.700195312 320.599609375 280.900390625 120.299804688 c 1
 353.799804688 204.599609375 461.5 257.900390625 581.599609375 257.900390625 c 0
 629.099609375 257.900390625 676.200195312 249.299804688 720.5 232.799804688 c 0
 732.599609375 228.900390625 744.200195312 223.900390625 755.200195312 217.900390625 c 0
 755.400390625 217.799804688 755.599609375 217.700195312 755.799804688 217.599609375 c 1
 755.799804688 217.599609375 l 1
660.5 -69.5 m 0
 723.599609375 -69.5 774.799804688 -18.400390625 774.799804688 44.7001953125 c 0
 774.799804688 88.7998046875 749.799804688 127.099609375 713.200195312 146.099609375 c 0
 708.099609375 148.5 703 150.700195312 697.900390625 152.700195312 c 0
 686.200195312 156.799804688 673.599609375 159 660.5 159 c 0
 597.400390625 159 546.200195312 107.900390625 546.200195312 44.7998046875 c 0
 546.200195312 -18.2998046875 597.400390625 -69.5 660.5 -69.5 c 0
EndSplineSet
EndChar

StartChar: uniE101
Encoding: 57601 57601 1
Width: 1000
Flags: HW
LayerCount: 2
Fore
SplineSet
750.5 217.599609375 m 1
 834.700195312 171.400390625 874.700195312 69.2001953125 840.5 -23.5 c 0
 802.799804688 -125.799804688 689.299804688 -178.099609375 587 -140.299804688 c 0
 571.200195312 -134.5 556.299804688 -126.700195312 542.5 -117.099609375 c 1
 589.599609375 -49.5 l 1
 641.700195312 -85.7998046875 713.400390625 -73 749.700195312 -20.900390625 c 0
 786 31.2001953125 773.200195312 102.900390625 721.099609375 139.200195312 c 0
 718.900390625 140.700195312 716.700195312 142.099609375 714.400390625 143.5 c 1
 714.400390625 143.5 l 1
 558.200195312 219.599609375 369.900390625 154.599609375 293.700195312 -1.5 c 0
 272.799804688 -44.5 261.900390625 -91.599609375 261.900390625 -139.400390625 c 1
 179 -139.400390625 l 1
 179 -138.599609375 179 -137.700195312 179 -136.799804688 c 1
 179 -136.799804688 l 1
 179 159.400390625 217.799804688 453.900390625 304.5 737.099609375 c 1
 386.099609375 712.099609375 l 1
 326.400390625 517 287.5 316.299804688 269.900390625 113.5 c 1
 342.700195312 201.700195312 453 257.900390625 576.299804688 257.900390625 c 0
 626.799804688 257.900390625 676.900390625 248.5 723.599609375 229.900390625 c 1
 723.599609375 229.900390625 l 1
 732.700195312 226.5 741.400390625 222.599609375 749.599609375 218.099609375 c 0
 749.900390625 217.900390625 750.200195312 217.799804688 750.5 217.599609375 c 1
 750.5 217.599609375 l 1
EndSplineSet
EndChar

StartChar: uniE102
Encoding: 57602 57602 2
Width: 1000
Flags: HW
LayerCount: 2
Fore
SplineSet
918.5 18.599609375 m 1
 978 -42.7001953125 l 1
 820.200195312 -195.700195312 568.299804688 -191.700195312 415.400390625 -33.900390625 c 0
 414.200195312 -32.599609375 412.900390625 -31.2998046875 411.700195312 -30 c 1
 382.299804688 -102 311.599609375 -152.700195312 229 -152.700195312 c 0
 120 -152.700195312 31.599609375 -64.2998046875 31.599609375 44.7001953125 c 0
 31.599609375 153.700195312 120 242.099609375 229 242.099609375 c 0
 255.400390625 242.099609375 280.599609375 236.900390625 303.599609375 227.5 c 1
 303.5 229.400390625 303.400390625 231.299804688 303.400390625 233.200195312 c 1
 303.400390625 233.200195312 l 1
 305.299804688 721.099609375 l 1
 389.5 721.099609375 l 1
 389.5 221.299804688 l 1
 400.900390625 55.5 541 -73.5 708.799804688 -69.400390625 c 0
 787.299804688 -67.400390625 862.099609375 -36 918.5 18.599609375 c 1
343.200195312 44.7001953125 m 0
 343.200195312 59.599609375 340.400390625 73.7998046875 335.099609375 86.7998046875 c 0
 334.599609375 88.2001953125 334 89.599609375 333.400390625 91 c 0
 315.700195312 131 275.599609375 159 228.900390625 159 c 0
 165.799804688 159 114.599609375 107.799804688 114.599609375 44.7001953125 c 0
 114.599609375 -18.400390625 165.799804688 -69.599609375 228.900390625 -69.599609375 c 0
 292 -69.599609375 343.200195312 -18.400390625 343.200195312 44.7001953125 c 0
EndSplineSet
EndChar

StartChar: uniE103
Encoding: 57603 57603 3
Width: 1000
Flags: HW
LayerCount: 2
Fore
SplineSet
389.5 321.099609375 m 0
 499.900390625 321.099609375 589.5 232.799804688 589.5 123.799804688 c 0
 589.5 14.7998046875 500 -73.599609375 389.5 -73.599609375 c 0
 340.599609375 -73.599609375 295.799804688 -56.2998046875 261.099609375 -27.599609375 c 1
 259.700195312 -64 259 -100.400390625 259 -136.799804688 c 1
 173.700195312 -136.799804688 l 1
 173.700195312 159.299804688 217.799804688 453.900390625 304.5 737.099609375 c 1
 386.099609375 712.099609375 l 1
 344.299804688 575.700195312 312.700195312 436.5 291.5 295.799804688 c 1
 320.5 311.900390625 353.900390625 321.099609375 389.5 321.099609375 c 0
389.5 9.400390625 m 0
 454 9.400390625 506.400390625 60.599609375 506.400390625 123.700195312 c 0
 506.400390625 186.799804688 454.099609375 238 389.5 238 c 0
 324.900390625 238 272.599609375 186.799804688 272.599609375 123.700195312 c 0
 272.599609375 60.599609375 324.900390625 9.400390625 389.5 9.400390625 c 0
EndSplineSet
EndChar

StartChar: uniE104
Encoding: 57604 57604 4
Width: 1000
Flags: HW
LayerCount: 2
Fore
SplineSet
862.599609375 208 m 1
 949.5 161.799804688 991.099609375 57.2998046875 956.099609375 -37.7998046875 c 0
 917.799804688 -141.400390625 802.799804688 -194.400390625 699.200195312 -156.099609375 c 0
 673.700195312 -146.700195312 650.400390625 -132.200195312 630.799804688 -113.599609375 c 1
 581.200195312 -136 526.200195312 -148.599609375 468.299804688 -148.799804688 c 1
 468.299804688 -148.799804688 l 1
 440.599609375 -149.099609375 l 1
 440.599609375 -149.099609375 l 1
 278.799804688 -145.599609375 148.299804688 -13.7998046875 147.400390625 147.299804688 c 1
 147.400390625 147.299804688 l 1
 147.400390625 346.299804688 177.200195312 544.099609375 235.900390625 734.200195312 c 1
 318 708.900390625 l 1
 262.400390625 528.799804688 233.900390625 341.400390625 233.299804688 153 c 1
 233.299804688 153 l 1
 231.299804688 37.900390625 322.299804688 -57.5 436.599609375 -63.2001953125 c 1
 471.200195312 -63.2001953125 l 2
 639.599609375 -60.900390625 776.200195312 74.7998046875 779.099609375 243.599609375 c 1
 864.599609375 242.099609375 l 1
 864.400390625 230.599609375 863.799804688 219.200195312 862.599609375 208 c 1
841.5 -58.7998046875 m 0
 891.5 -18.5 899.200195312 54.7998046875 858.700195312 104.700195312 c 0
 854.099609375 110.400390625 848.900390625 115.700195312 843.299804688 120.400390625 c 1
 817.5 44.900390625 769.700195312 -20.2998046875 707.599609375 -67.599609375 c 1
 748.400390625 -92.5 802.200195312 -90.599609375 841.5 -58.7998046875 c 0
EndSplineSet
EndChar

StartChar: uniE105
Encoding: 57605 57605 5
Width: 1000
Flags: HW
LayerCount: 2
Fore
SplineSet
789.5 300 m 1
 873.700195312 300 l 1
 873.700195312 -147.5 l 1
 789.5 -147.5 l 1
 789.5 5.599609375 l 1
 717 -88.099609375 603.599609375 -148.400390625 476.200195312 -148.900390625 c 1
 476.200195312 -148.900390625 l 1
 448.5 -149.200195312 l 1
 448.5 -149.200195312 l 1
 284.200195312 -145.599609375 155 -9.900390625 157.900390625 154.400390625 c 1
 157.900390625 154.400390625 l 1
 158.599609375 350.900390625 188.400390625 546.299804688 246.400390625 734.099609375 c 1
 328.5 708.799804688 l 1
 272.400390625 526.900390625 243.799804688 337.700195312 243.799804688 147.299804688 c 1
 243.799804688 147.299804688 l 1
 244.799804688 34.7001953125 332.099609375 -57.7001953125 444.5 -63.2001953125 c 1
 479.099609375 -63.2001953125 l 2
 496.799804688 -63 514.099609375 -61.2998046875 531 -58.2001953125 c 1
 460.200195312 -28.2998046875 410.5 41.900390625 410.5 123.599609375 c 0
 410.5 232.599609375 498.900390625 321 607.900390625 321 c 0
 685.400390625 321 752.5 276.299804688 784.799804688 211.299804688 c 1
 786.099609375 221.900390625 786.799804688 231.599609375 787 242.5 c 1
 787 242.5 l 1
 789.5 300 l 1
493.599609375 123.700195312 m 0
 493.599609375 60.599609375 544.799804688 9.400390625 607.900390625 9.400390625 c 0
 671 9.400390625 722.200195312 60.599609375 722.200195312 123.700195312 c 0
 722.200195312 186.799804688 671 238 607.900390625 238 c 0
 544.799804688 238 493.599609375 186.799804688 493.599609375 123.700195312 c 0
EndSplineSet
EndChar

StartChar: uniE106
Encoding: 57606 57606 6
Width: 1000
Flags: HW
LayerCount: 2
Fore
SplineSet
864.5 242.200195312 m 1
 864.299804688 233.299804688 863.900390625 224.5 863.200195312 215.799804688 c 2
 863.200195312 -142.200195312 l 1
 779 -142.200195312 l 1
 779 2.5 l 1
 706.400390625 -89.400390625 594.099609375 -148.299804688 468.200195312 -148.799804688 c 1
 468.200195312 -148.799804688 l 1
 440.5 -149.099609375 l 1
 440.5 -149.099609375 l 1
 278.599609375 -145.599609375 148.299804688 -13.7998046875 147.400390625 147.299804688 c 1
 147.400390625 147.299804688 l 1
 147.400390625 346.299804688 177.200195312 544.099609375 235.900390625 734.200195312 c 1
 318 708.900390625 l 1
 262.400390625 528.799804688 233.900390625 341.5 233.299804688 153 c 1
 233.299804688 153 l 1
 231.299804688 37.900390625 322.099609375 -57.5 436.5 -63.2001953125 c 1
 471.099609375 -63.2001953125 l 2
 639.5 -60.7998046875 776 74.7998046875 779 243.700195312 c 1
 864.5 242.200195312 l 1
EndSplineSet
EndChar

StartChar: uniE107
Encoding: 57607 57607 7
Width: 1000
Flags: HW
LayerCount: 2
Fore
SplineSet
907 -29.099609375 m 0
 930.599609375 -62.5 943.299804688 -102.400390625 943.400390625 -143.400390625 c 1
 856.5 -143.599609375 l 1
 856.400390625 -81.7001953125 806.200195312 -31.7001953125 744.299804688 -31.7998046875 c 0
 721.200195312 -31.900390625 698.200195312 -38.2998046875 679.400390625 -51.599609375 c 1
 679.400390625 -51.599609375 l 1
 604.5 -104.099609375 l 1
 604.5 -104.099609375 l 1
 471.099609375 -187.299804688 294.400390625 -152.799804688 202.799804688 -22.7001953125 c 0
 167.700195312 27.2001953125 147.799804688 86.5 147.400390625 147.299804688 c 1
 147.400390625 147.299804688 l 1
 147.400390625 346.299804688 177.200195312 544.099609375 235.900390625 734.200195312 c 1
 318 708.900390625 l 1
 263 530.900390625 234.5 345.900390625 233.200195312 159.700195312 c 1
 233.200195312 159.700195312 l 1
 231.200195312 42.400390625 319.299804688 -56.7998046875 436.200195312 -62.5 c 0
 462.599609375 -63.7998046875 488.700195312 -60.099609375 513.400390625 -51.900390625 c 1
 443.5 -21.099609375 394.599609375 49.400390625 394.599609375 131.599609375 c 0
 394.599609375 242.099609375 483 331.599609375 592 331.599609375 c 0
 701 331.599609375 789.400390625 242.099609375 789.400390625 131.599609375 c 0
 789.400390625 103.700195312 783.799804688 77.099609375 773.599609375 53 c 1
 825.599609375 45.2998046875 874.400390625 17.2001953125 907 -29.099609375 c 0
477.799804688 131.599609375 m 0
 477.799804688 67 529 14.7001953125 592.099609375 14.7001953125 c 0
 608.900390625 14.7001953125 624.900390625 18.400390625 639.299804688 25.099609375 c 0
 644.400390625 28.2998046875 649.5 31.2001953125 654.700195312 33.7998046875 c 0
 685.799804688 54.7001953125 706.400390625 90.7001953125 706.400390625 131.599609375 c 0
 706.400390625 196.200195312 655.200195312 248.5 592.099609375 248.5 c 0
 529 248.5 477.799804688 196.200195312 477.799804688 131.599609375 c 0
EndSplineSet
EndChar

StartChar: uniE108
Encoding: 57608 57608 8
Width: 1000
Flags: HW
LayerCount: 2
Fore
SplineSet
757.900390625 278.900390625 m 0
 757.900390625 302.151367188 775.584960938 321 797.400390625 321 c 0
 819.21484375 321 836.900390625 302.151367188 836.900390625 278.900390625 c 0
 836.900390625 255.6484375 819.21484375 236.799804688 797.400390625 236.799804688 c 0
 775.584960938 236.799804688 757.900390625 255.6484375 757.900390625 278.900390625 c 0
858.94140625 156.803710938 m 0
 853.927734375 178.034179688 867.075195312 199.30859375 888.305664062 204.322265625 c 0
 909.536132812 209.334960938 930.810546875 196.188476562 935.82421875 174.958007812 c 0
 940.836914062 153.7265625 927.690429688 132.452148438 906.459960938 127.439453125 c 0
 885.229492188 122.42578125 863.954101562 135.573242188 858.94140625 156.803710938 c 0
715.799804688 230.200195312 m 1
 819.599609375 192.900390625 873.099609375 79.599609375 835.299804688 -22.7998046875 c 0
 797.5 -125.200195312 682.700195312 -178 578.900390625 -140.700195312 c 0
 563.099609375 -135 548 -127.299804688 534.099609375 -117.900390625 c 1
 581.200195312 -50.2998046875 l 1
 634.900390625 -86 708 -72.5 744.599609375 -19.900390625 c 0
 781.200195312 32.5 767.299804688 104.099609375 713.599609375 139.799804688 c 0
 711.299804688 141.299804688 709 142.700195312 706.700195312 144 c 1
 706.700195312 144 l 1
 549 219.599609375 359.200195312 153.900390625 283 -2.5 c 0
 268.200195312 -32.7998046875 258.5 -65.099609375 254.099609375 -98.2001953125 c 0
 252.299804688 -111.099609375 251.400390625 -123.900390625 251.400390625 -136.799804688 c 1
 251.400390625 -136.799804688 l 1
 251.400390625 -137.599609375 251.400390625 -138.5 251.400390625 -139.400390625 c 1
 168.5 -139.400390625 l 1
 168.5 -138.599609375 168.5 -137.700195312 168.5 -136.799804688 c 1
 168.5 -136.799804688 l 1
 168.5 159.299804688 212.599609375 453.900390625 299.299804688 737.099609375 c 1
 380.900390625 712.099609375 l 1
 321.700195312 519 283 320.400390625 265.099609375 119.599609375 c 1
 338.5 204.299804688 447.099609375 257.900390625 568.400390625 257.900390625 c 0
 618.900390625 257.900390625 669 248.599609375 715.799804688 230.200195312 c 1
 715.799804688 230.200195312 l 1
EndSplineSet
EndChar

StartChar: uniE109
Encoding: 57609 57609 9
Width: 1000
Flags: HW
LayerCount: 2
Fore
SplineSet
915.799804688 -63.2001953125 m 1
 915.799804688 -147.400390625 l 1
 444.099609375 -147.400390625 l 1
 444.099609375 -147.400390625 l 1
 279.799804688 -143.799804688 149.799804688 -9.7998046875 152.700195312 154.5 c 1
 152.700195312 154.5 l 1
 153.400390625 351 183.200195312 546.400390625 241.200195312 734.200195312 c 1
 323.299804688 708.900390625 l 1
 274.400390625 550.5 246.400390625 386.400390625 240 221 c 1
 276.5 269 334.599609375 300 400 300 c 0
 510.5 300 600 211.599609375 600 102.599609375 c 0
 600 33.099609375 563.5 -28 508.5 -63.2001953125 c 1
 915.799804688 -63.2001953125 l 1
400 216.900390625 m 0
 335.400390625 216.900390625 283.099609375 165.700195312 283.099609375 102.599609375 c 0
 283.099609375 39.5 335.400390625 -11.7001953125 400 -11.7001953125 c 0
 464.599609375 -11.7001953125 516.900390625 39.5 516.900390625 102.599609375 c 0
 516.900390625 165.700195312 464.599609375 216.900390625 400 216.900390625 c 0
EndSplineSet
EndChar

StartChar: uniE10A
Encoding: 57610 57610 10
Width: 1000
Flags: HW
LayerCount: 2
Fore
SplineSet
668.400390625 276.299804688 m 0
 668.400390625 298.115234375 686.084960938 315.799804688 707.900390625 315.799804688 c 0
 729.71484375 315.799804688 747.400390625 298.115234375 747.400390625 276.299804688 c 0
 747.400390625 254.484375 729.71484375 236.799804688 707.900390625 236.799804688 c 0
 686.084960938 236.799804688 668.400390625 254.484375 668.400390625 276.299804688 c 0
805.200195312 276.299804688 m 0
 805.200195312 298.115234375 822.884765625 315.799804688 844.700195312 315.799804688 c 0
 866.515625 315.799804688 884.200195312 298.115234375 884.200195312 276.299804688 c 0
 884.200195312 254.484375 866.515625 236.799804688 844.700195312 236.799804688 c 0
 822.884765625 236.799804688 805.200195312 254.484375 805.200195312 276.299804688 c 0
921.099609375 -63.2001953125 m 1
 921 -63.2001953125 l 1
 921 -147.400390625 l 1
 449.5 -147.400390625 l 1
 449.5 -147.400390625 l 1
 285.200195312 -143.799804688 155 -9.7998046875 158 154.5 c 1
 158 154.5 l 1
 158.700195312 351 188.5 546.400390625 246.5 734.200195312 c 1
 328.599609375 708.900390625 l 1
 279.700195312 550.5 251.700195312 386.400390625 245.299804688 221 c 1
 281.799804688 269 339.900390625 300 405.299804688 300 c 0
 515.799804688 300 605.299804688 211.599609375 605.299804688 102.599609375 c 0
 605.299804688 33.099609375 568.799804688 -28 513.799804688 -63.2001953125 c 1
 921.099609375 -63.2001953125 l 1
405.299804688 216.900390625 m 0
 340.700195312 216.900390625 288.400390625 165.700195312 288.400390625 102.599609375 c 0
 288.400390625 39.5 340.700195312 -11.7001953125 405.299804688 -11.7001953125 c 0
 469.900390625 -11.7001953125 522.200195312 39.5 522.200195312 102.599609375 c 0
 522.200195312 165.700195312 469.900390625 216.900390625 405.299804688 216.900390625 c 0
EndSplineSet
EndChar

StartChar: uniE10B
Encoding: 57611 57611 11
Width: 1000
Flags: HW
LayerCount: 2
Fore
SplineSet
742.099609375 321.099609375 m 0
 852.599609375 321.099609375 942.099609375 231.599609375 942.099609375 121.099609375 c 0
 942.099609375 10.599609375 852.599609375 -78.900390625 742.099609375 -78.900390625 c 0
 723.900390625 -78.900390625 706.299804688 -76.5 689.5 -71.900390625 c 1
 689.5 -147.299804688 l 1
 605.299804688 -147.299804688 l 1
 605.299804688 -29.2001953125 l 1
 446.599609375 62.400390625 l 1
 447.099609375 56.599609375 447.400390625 50.7001953125 447.400390625 44.7998046875 c 0
 447.400390625 -64.2001953125 359 -152.599609375 250 -152.599609375 c 0
 141 -152.599609375 52.599609375 -64.099609375 52.599609375 44.900390625 c 0
 52.599609375 153.900390625 141 242.299804688 250 242.299804688 c 0
 269.200195312 242.299804688 287.799804688 239.5 305.299804688 234.400390625 c 1
 305.299804688 721.200195312 l 1
 389.5 721.200195312 l 1
 389.5 194.200195312 l 1
 542.700195312 105.700195312 l 1
 542.299804688 110.799804688 542.099609375 115.900390625 542.099609375 121.099609375 c 0
 542.099609375 231.599609375 631.599609375 321.099609375 742.099609375 321.099609375 c 0
364.299804688 44.7001953125 m 0
 364.299804688 82.400390625 346 115.799804688 317.900390625 136.700195312 c 1
 295.5 149.599609375 l 2
 281.5 155.599609375 266.200195312 159 250 159 c 0
 186.900390625 159 135.700195312 107.799804688 135.700195312 44.7001953125 c 0
 135.700195312 -18.400390625 186.900390625 -69.599609375 250 -69.599609375 c 0
 313.099609375 -69.599609375 364.299804688 -18.400390625 364.299804688 44.7001953125 c 0
742.099609375 5.2998046875 m 0
 806.099609375 5.2998046875 857.900390625 57 857.900390625 121 c 0
 857.900390625 185 806 236.799804688 742.099609375 236.799804688 c 0
 678.099609375 236.799804688 626.299804688 184.900390625 626.299804688 121 c 0
 626.299804688 87.2001953125 640.900390625 56.7998046875 664 35.599609375 c 1
 701.5 13.900390625 l 1
 700.900390625 12.7998046875 l 1
 713.700195312 8 727.599609375 5.2998046875 742.099609375 5.2998046875 c 0
EndSplineSet
EndChar

StartChar: uniE10C
Encoding: 57612 57612 12
Width: 1000
Flags: HW
LayerCount: 2
Fore
SplineSet
865.5 221.599609375 m 2
 875 216.099609375 878.299804688 203.900390625 872.799804688 194.400390625 c 0
 867.299804688 184.900390625 855.099609375 181.599609375 845.599609375 187.099609375 c 2
 707.799804688 266.700195312 l 2
 698.299804688 272.200195312 695 284.400390625 700.5 293.900390625 c 0
 706 303.400390625 718.200195312 306.700195312 727.700195312 301.200195312 c 2
 865.5 221.599609375 l 2
750.5 217.599609375 m 1
 811.400390625 184 852.599609375 119.200195312 852.599609375 44.7998046875 c 0
 852.599609375 -64.2001953125 764.200195312 -152.599609375 655.200195312 -152.599609375 c 0
 546.200195312 -152.599609375 457.799804688 -64.2001953125 457.799804688 44.7998046875 c 0
 457.799804688 90.2001953125 473.200195312 132 499 165.400390625 c 1
 412.5 143.400390625 335.799804688 84.900390625 293.599609375 -1.599609375 c 0
 278.700195312 -32 268.900390625 -64.599609375 264.5 -98 c 0
 262.200195312 -113.5 261.799804688 -123.799804688 261.799804688 -136.799804688 c 1
 261.799804688 -136.799804688 l 1
 261.799804688 -137.599609375 261.799804688 -138.5 261.799804688 -139.400390625 c 1
 178.900390625 -139.400390625 l 1
 178.900390625 -138.599609375 178.900390625 -137.700195312 178.900390625 -136.799804688 c 1
 178.900390625 -136.799804688 l 1
 178.900390625 159.400390625 223 453.900390625 309.799804688 737.200195312 c 1
 391.400390625 712.200195312 l 1
 332.299804688 519.299804688 293.599609375 321 275.700195312 120.5 c 1
 348.599609375 204.599609375 456.200195312 257.900390625 576.299804688 257.900390625 c 0
 623.799804688 257.900390625 670.900390625 249.299804688 715.200195312 232.799804688 c 0
 727.299804688 228.900390625 738.900390625 223.900390625 749.900390625 217.900390625 c 0
 750.099609375 217.799804688 750.299804688 217.700195312 750.5 217.599609375 c 1
 750.5 217.599609375 l 1
655.299804688 -69.5 m 0
 718.400390625 -69.5 769.5 -18.400390625 769.599609375 44.7001953125 c 0
 769.599609375 88.7998046875 744.599609375 127.099609375 708 146.099609375 c 0
 702.900390625 148.5 697.799804688 150.700195312 692.700195312 152.700195312 c 0
 681 156.799804688 668.400390625 159 655.299804688 159 c 0
 592.200195312 159 541 107.900390625 541 44.7998046875 c 0
 541 -18.2998046875 592.200195312 -69.5 655.299804688 -69.5 c 0
EndSplineSet
EndChar

StartChar: uniE10D
Encoding: 57613 57613 13
Width: 1000
Flags: HW
LayerCount: 2
Fore
SplineSet
852.799804688 221.599609375 m 2
 862.299804688 216.099609375 865.599609375 203.900390625 860.099609375 194.400390625 c 0
 854.599609375 184.900390625 842.400390625 181.599609375 832.900390625 187.099609375 c 2
 695.099609375 266.700195312 l 2
 685.599609375 272.200195312 682.299804688 284.400390625 687.799804688 293.900390625 c 0
 693.299804688 303.400390625 705.5 306.700195312 715 301.200195312 c 2
 852.799804688 221.599609375 l 2
745.200195312 217.599609375 m 1
 829.5 171.400390625 869.400390625 69.2001953125 835.200195312 -23.5 c 0
 797.5 -125.799804688 684 -178.099609375 581.700195312 -140.299804688 c 0
 565.900390625 -134.5 551 -126.700195312 537.200195312 -117.099609375 c 1
 584.299804688 -49.5 l 1
 636.400390625 -85.7998046875 708.099609375 -73 744.400390625 -20.900390625 c 0
 780.700195312 31.2001953125 767.900390625 102.900390625 715.799804688 139.200195312 c 0
 713.599609375 140.700195312 711.400390625 142.099609375 709.099609375 143.5 c 1
 709.099609375 143.5 l 1
 552.900390625 219.599609375 364.599609375 154.599609375 288.400390625 -1.5 c 0
 267.5 -44.5 256.599609375 -91.599609375 256.599609375 -139.400390625 c 1
 173.700195312 -139.400390625 l 1
 173.700195312 -138.599609375 173.700195312 -137.700195312 173.700195312 -136.799804688 c 1
 173.700195312 -136.799804688 l 1
 173.700195312 159.299804688 212.599609375 453.900390625 299.299804688 737.099609375 c 1
 380.900390625 712.099609375 l 1
 321.099609375 517 282.200195312 316.299804688 264.599609375 113.5 c 1
 337.400390625 201.700195312 447.700195312 257.900390625 571 257.900390625 c 0
 621.5 257.900390625 671.599609375 248.5 718.299804688 229.900390625 c 1
 718.299804688 229.900390625 l 1
 727.400390625 226.5 736.099609375 222.599609375 744.299804688 218.099609375 c 0
 744.599609375 217.900390625 744.900390625 217.799804688 745.200195312 217.599609375 c 1
 745.200195312 217.599609375 l 1
EndSplineSet
EndChar

StartChar: uniE10E
Encoding: 57614 57614 14
Width: 1000
Flags: HW
LayerCount: 2
Fore
SplineSet
602.599609375 226.299804688 m 2
 592.5 226.299804688 584.200195312 234.599609375 584.200195312 244.700195312 c 0
 584.200195312 254.900390625 592.400390625 263.099609375 602.599609375 263.099609375 c 2
 760.5 263.099609375 l 2
 770.700195312 263.099609375 778.900390625 254.900390625 778.900390625 244.700195312 c 0
 778.900390625 234.5 770.700195312 226.299804688 760.5 226.299804688 c 2
 602.599609375 226.299804688 l 2
913.400390625 18.599609375 m 1
 973 -42.7998046875 l 1
 815.200195312 -195.799804688 563.299804688 -191.799804688 410.400390625 -34 c 0
 409.099609375 -32.599609375 407.799804688 -31.2998046875 406.5 -29.900390625 c 1
 377.099609375 -101.900390625 306.299804688 -152.700195312 223.700195312 -152.700195312 c 0
 114.700195312 -152.700195312 26.2998046875 -64.2998046875 26.2998046875 44.7001953125 c 0
 26.2998046875 153.700195312 114.700195312 242.099609375 223.700195312 242.099609375 c 0
 250.099609375 242.099609375 275.400390625 236.900390625 298.5 227.400390625 c 1
 298.400390625 229.400390625 298.299804688 231.299804688 298.299804688 233.200195312 c 1
 298.299804688 233.200195312 l 1
 300 721.099609375 l 1
 384.200195312 721.099609375 l 1
 384.200195312 224.400390625 l 1
 394 57.099609375 534.799804688 -73.599609375 703.700195312 -69.400390625 c 0
 782.200195312 -67.400390625 857 -36 913.400390625 18.599609375 c 1
223.700195312 -69.5 m 0
 286.799804688 -69.5 338 -18.400390625 338 44.7001953125 c 0
 338 107.799804688 286.799804688 159 223.700195312 159 c 0
 160.599609375 159 109.400390625 107.900390625 109.400390625 44.7998046875 c 0
 109.400390625 -18.2998046875 160.599609375 -69.5 223.700195312 -69.5 c 0
EndSplineSet
EndChar

StartChar: uniE10F
Encoding: 57615 57615 15
Width: 1000
Flags: HW
LayerCount: 2
Fore
SplineSet
834.200195312 264.200195312 m 2
 844.400390625 264.200195312 852.599609375 255.900390625 852.700195312 245.799804688 c 0
 852.700195312 235.599609375 844.5 227.400390625 834.299804688 227.400390625 c 2
 671.099609375 227.400390625 l 2
 660.900390625 227.400390625 652.700195312 235.599609375 652.700195312 245.799804688 c 0
 652.700195312 256 660.900390625 264.200195312 671.099609375 264.200195312 c 2
 834.200195312 264.200195312 l 2
384.200195312 322.099609375 m 0
 494.700195312 322.099609375 584.200195312 233.799804688 584.200195312 124.799804688 c 0
 584.200195312 15.7998046875 494.700195312 -72.599609375 384.200195312 -72.599609375 c 0
 335.299804688 -72.599609375 290.5 -55.2998046875 255.799804688 -26.599609375 c 1
 254.400390625 -63 253.700195312 -99.400390625 253.700195312 -135.799804688 c 1
 168.400390625 -135.799804688 l 1
 168.400390625 160.299804688 212.5 454.900390625 299.200195312 738.099609375 c 1
 380.799804688 713.099609375 l 1
 339 576.700195312 307.400390625 437.5 286.200195312 296.799804688 c 1
 315.200195312 312.900390625 348.599609375 322.099609375 384.200195312 322.099609375 c 0
384.200195312 10.400390625 m 0
 448.799804688 10.400390625 501.099609375 61.599609375 501.099609375 124.700195312 c 0
 501.099609375 187.799804688 448.799804688 239 384.200195312 239 c 0
 319.599609375 239 267.299804688 187.799804688 267.299804688 124.700195312 c 0
 267.299804688 61.599609375 319.599609375 10.400390625 384.200195312 10.400390625 c 0
EndSplineSet
EndChar

StartChar: uniE110
Encoding: 57616 57616 16
Width: 1000
Flags: HW
LayerCount: 2
Fore
SplineSet
868.400390625 310.5 m 2
 880 310.5 889.5 301.099609375 889.5 289.400390625 c 1
 889.5 289.400390625 l 1
 889.5 277.700195312 880 268.299804688 868.400390625 268.299804688 c 2
 710.5 268.299804688 l 2
 698.799804688 268.299804688 689.400390625 277.700195312 689.400390625 289.400390625 c 0
 689.400390625 301.099609375 698.900390625 310.5 710.5 310.5 c 2
 868.400390625 310.5 l 2
790 243.700195312 m 1
 874 242.200195312 l 1
 873.799804688 231.200195312 873.900390625 220.599609375 873.799804688 209.700195312 c 2
 873.799804688 -142.200195312 l 1
 789.599609375 -142.200195312 l 1
 789.599609375 1.7998046875 l 1
 716.900390625 -89.7001953125 604.900390625 -148.299804688 479.299804688 -148.799804688 c 1
 479.299804688 -148.799804688 l 1
 451.599609375 -149.099609375 l 1
 451.599609375 -149.099609375 l 1
 289.700195312 -145.599609375 158.799804688 -13.7998046875 157.900390625 147.299804688 c 1
 157.900390625 147.299804688 l 1
 157.900390625 346.299804688 187.700195312 544.099609375 246.400390625 734.200195312 c 1
 328.5 708.900390625 l 1
 272.900390625 528.799804688 244.400390625 341.400390625 243.799804688 153 c 1
 243.799804688 153 l 1
 241.799804688 37.900390625 333.200195312 -57.5 447.599609375 -63 c 1
 482.200195312 -63 l 2
 645.900390625 -60.7998046875 779.5 67.5 789.5 229.700195312 c 2
 790 242.200195312 l 1
 790 242.200195312 l 1
 790 242.700195312 790 243.200195312 790 243.700195312 c 1
EndSplineSet
EndChar

StartChar: uniE111
Encoding: 57617 57617 17
Width: 1000
Flags: H
LayerCount: 2
Fore
SplineSet
925.799804688 379.400390625 m 2
 315.799804688 379.400390625 l 1
 300.299804688 293.700195312 288.599609375 207.200195312 280.900390625 120.299804688 c 1
 353.799804688 204.599609375 461.5 257.900390625 581.599609375 257.900390625 c 0
 629.099609375 257.900390625 676.200195312 249.299804688 720.5 232.799804688 c 0
 732.599609375 228.900390625 744.200195312 223.900390625 755.200195312 217.900390625 c 0
 755.400390625 217.799804688 755.599609375 217.700195312 755.799804688 217.599609375 c 0
 816.700195312 184 857.900390625 119.200195312 858 44.7998046875 c 0
 858 -64.2001953125 769.599609375 -152.599609375 660.599609375 -152.599609375 c 0
 551.599609375 -152.599609375 463.200195312 -64.2001953125 463.200195312 44.7998046875 c 0
 463.200195312 90.2001953125 478.599609375 132 504.400390625 165.400390625 c 1
 417.900390625 143.400390625 341.200195312 84.900390625 299 -1.599609375 c 0
 284 -32.2001953125 274.200195312 -65 269.799804688 -98.599609375 c 0
 267.799804688 -111.5 267.099609375 -124.099609375 267.099609375 -136.799804688 c 0
 267.099609375 -137.599609375 267.099609375 -138.5 267.099609375 -139.400390625 c 1
 184.200195312 -139.400390625 l 1
 184.200195312 -138.599609375 184.200195312 -137.700195312 184.200195312 -136.799804688 c 0
 184.200195312 36.400390625 199.299804688 209.200195312 229.200195312 379.400390625 c 1
 83.7001953125 379.400390625 l 1
 83.7001953125 468.900390625 l 1
 246.200195312 468.900390625 l 1
 264.799804688 559 287.700195312 648.200195312 314.599609375 736.400390625 c 1
 396.099609375 711.400390625 l 1
 371.700195312 631.400390625 350.700195312 550.5 333.299804688 468.900390625 c 1
 455.299804688 468.900390625 l 1
 574.599609375 487.299804688 674.299804688 571.799804688 711 688.5 c 1
 786.299804688 664.799804688 l 1
 761.299804688 585.200195312 712.700195312 517.599609375 649.5 468.900390625 c 1
 925.799804688 468.900390625 l 1
 925.799804688 379.400390625 l 2
660.5 159 m 0
 597.400390625 159 546.200195312 107.900390625 546.200195312 44.7998046875 c 0
 546.200195312 -18.2998046875 597.400390625 -69.5 660.5 -69.5 c 0
 723.599609375 -69.5 774.799804688 -18.400390625 774.799804688 44.7001953125 c 0
 774.799804688 88.7998046875 749.799804688 127.099609375 713.200195312 146.099609375 c 0
 708.099609375 148.5 703 150.700195312 697.900390625 152.700195312 c 0
 686.200195312 156.799804688 673.599609375 159 660.5 159 c 0
EndSplineSet
EndChar

StartChar: uniE112
Encoding: 57618 57618 18
Width: 1000
Flags: H
LayerCount: 2
Fore
SplineSet
925.799804688 379.400390625 m 2
 305.400390625 379.400390625 l 1
 289.5 291.400390625 277.599609375 202.700195312 269.900390625 113.5 c 1
 342.700195312 201.700195312 453 257.900390625 576.299804688 257.900390625 c 0
 626.799804688 257.900390625 676.900390625 248.5 723.599609375 229.900390625 c 0
 732.700195312 226.5 741.400390625 222.599609375 749.599609375 218.099609375 c 0
 749.900390625 217.900390625 750.200195312 217.799804688 750.5 217.599609375 c 0
 834.700195312 171.400390625 874.700195312 69.2001953125 840.5 -23.5 c 0
 802.799804688 -125.799804688 689.299804688 -178.099609375 587 -140.299804688 c 0
 571.200195312 -134.5 556.299804688 -126.700195312 542.5 -117.099609375 c 1
 589.599609375 -49.5 l 1
 641.700195312 -85.7998046875 713.400390625 -73 749.700195312 -20.900390625 c 0
 786 31.2001953125 773.200195312 102.900390625 721.099609375 139.200195312 c 0
 718.900390625 140.700195312 716.700195312 142.099609375 714.400390625 143.5 c 0
 558.200195312 219.599609375 369.900390625 154.599609375 293.700195312 -1.5 c 0
 272.799804688 -44.5 261.900390625 -91.599609375 261.900390625 -139.400390625 c 1
 179 -139.400390625 l 1
 179 -138.599609375 179 -137.700195312 179 -136.799804688 c 0
 179 36.5 192.299804688 209.200195312 220.700195312 379.400390625 c 1
 83.7001953125 379.400390625 l 1
 83.7001953125 468.900390625 l 1
 237 468.900390625 l 1
 255 559.200195312 277.400390625 648.700195312 304.5 737.099609375 c 1
 386.099609375 712.099609375 l 1
 361.599609375 631.900390625 340.599609375 550.700195312 323.099609375 468.900390625 c 1
 455.299804688 468.900390625 l 1
 574.599609375 487.299804688 674.299804688 571.799804688 711 688.5 c 1
 786.299804688 664.799804688 l 1
 761.299804688 585.200195312 712.700195312 517.599609375 649.5 468.900390625 c 1
 925.799804688 468.900390625 l 1
 925.799804688 379.400390625 l 2
EndSplineSet
EndChar

StartChar: uniE113
Encoding: 57619 57619 19
Width: 1000
Flags: H
LayerCount: 2
Fore
SplineSet
918.5 18.599609375 m 1
 978 -42.7001953125 l 1
 820.200195312 -195.700195312 568.299804688 -191.700195312 415.400390625 -33.900390625 c 0
 414.200195312 -32.599609375 412.900390625 -31.2998046875 411.700195312 -30 c 1
 382.299804688 -102 311.599609375 -152.700195312 229 -152.700195312 c 0
 120 -152.700195312 31.599609375 -64.2998046875 31.599609375 44.7001953125 c 0
 31.599609375 153.700195312 120 242.099609375 229 242.099609375 c 0
 255.400390625 242.099609375 280.599609375 236.900390625 303.599609375 227.5 c 1
 303.5 229.400390625 303.400390625 231.299804688 303.400390625 233.200195312 c 2
 304 379.400390625 l 1
 83.7001953125 379.400390625 l 1
 83.7001953125 468.900390625 l 1
 304.200195312 468.900390625 l 1
 305.200195312 721.099609375 l 1
 389.400390625 721.099609375 l 1
 389.400390625 468.900390625 l 1
 455.299804688 468.900390625 l 1
 574.599609375 487.299804688 674.299804688 571.799804688 711 688.5 c 1
 786.299804688 664.799804688 l 1
 761.299804688 585.200195312 712.700195312 517.599609375 649.5 468.900390625 c 1
 925.799804688 468.900390625 l 1
 925.799804688 379.400390625 l 1
 389.5 379.400390625 l 1
 389.5 221.299804688 l 1
 400.900390625 55.5 541 -73.5 708.799804688 -69.400390625 c 0
 787.299804688 -67.400390625 862.099609375 -36 918.5 18.599609375 c 1
228.900390625 -69.599609375 m 0
 292 -69.599609375 343.200195312 -18.400390625 343.200195312 44.7001953125 c 0
 343.200195312 59.599609375 340.400390625 73.7998046875 335.099609375 86.7998046875 c 0
 334.599609375 88.2001953125 334 89.599609375 333.400390625 91 c 0
 315.700195312 131 275.599609375 159 228.900390625 159 c 0
 165.799804688 159 114.599609375 107.799804688 114.599609375 44.7001953125 c 0
 114.599609375 -18.400390625 165.799804688 -69.599609375 228.900390625 -69.599609375 c 0
EndSplineSet
EndChar

StartChar: uniE114
Encoding: 57620 57620 20
Width: 1000
Flags: H
LayerCount: 2
Fore
SplineSet
925.799804688 379.400390625 m 1
 305.400390625 379.400390625 l 1
 300.299804688 351.599609375 295.700195312 323.700195312 291.5 295.799804688 c 1
 320.5 311.900390625 353.900390625 321.099609375 389.5 321.099609375 c 0
 499.900390625 321.099609375 589.5 232.799804688 589.5 123.799804688 c 0
 589.5 14.7998046875 500 -73.599609375 389.5 -73.599609375 c 0
 340.599609375 -73.599609375 295.799804688 -56.2998046875 261.099609375 -27.599609375 c 1
 259.700195312 -64 259 -100.400390625 259 -136.799804688 c 1
 173.700195312 -136.799804688 l 1
 173.700195312 36.400390625 188.799804688 209.200195312 218.700195312 379.400390625 c 1
 83.7001953125 379.400390625 l 1
 83.7001953125 468.900390625 l 1
 235.799804688 468.900390625 l 1
 254.5 559.200195312 277.400390625 648.700195312 304.5 737.099609375 c 1
 386.099609375 712.099609375 l 1
 361.5 631.900390625 340.5 550.799804688 323 468.900390625 c 1
 455.299804688 468.900390625 l 1
 574.599609375 487.299804688 674.299804688 571.799804688 711 688.5 c 1
 786.299804688 664.799804688 l 1
 761.299804688 585.200195312 712.700195312 517.599609375 649.5 468.900390625 c 1
 925.799804688 468.900390625 l 1
 925.799804688 379.400390625 l 1
389.5 238 m 0
 324.900390625 238 272.599609375 186.799804688 272.599609375 123.700195312 c 0
 272.599609375 60.599609375 324.900390625 9.400390625 389.5 9.400390625 c 0
 454 9.400390625 506.400390625 60.599609375 506.400390625 123.700195312 c 0
 506.400390625 186.799804688 454.099609375 238 389.5 238 c 0
EndSplineSet
EndChar

StartChar: uniE115
Encoding: 57621 57621 21
Width: 1000
Flags: H
LayerCount: 2
Fore
SplineSet
862.599609375 208 m 1
 949.5 161.799804688 991.099609375 57.2998046875 956.099609375 -37.7998046875 c 0
 917.799804688 -141.400390625 802.799804688 -194.400390625 699.200195312 -156.099609375 c 0
 673.700195312 -146.700195312 650.400390625 -132.200195312 630.799804688 -113.599609375 c 1
 581.200195312 -136 526.200195312 -148.599609375 468.299804688 -148.799804688 c 2
 440.599609375 -149.099609375 l 1
 278.799804688 -145.599609375 148.299804688 -13.7998046875 147.400390625 147.299804688 c 0
 147.400390625 224.900390625 152 302.5 161 379.400390625 c 1
 83.7001953125 379.400390625 l 1
 83.7001953125 468.900390625 l 1
 173.599609375 468.900390625 l 1
 188.200195312 558.5 209 647.200195312 235.900390625 734.200195312 c 1
 318 708.900390625 l 1
 293.700195312 630.099609375 274.599609375 549.900390625 260.700195312 468.900390625 c 1
 455.299804688 468.900390625 l 1
 574.599609375 487.299804688 674.299804688 571.799804688 711 688.5 c 1
 786.299804688 664.799804688 l 1
 761.299804688 585.200195312 712.700195312 517.599609375 649.5 468.900390625 c 1
 925.799804688 468.900390625 l 1
 925.799804688 379.400390625 l 1
 247.5 379.400390625 l 1
 238.299804688 304.400390625 233.5 228.799804688 233.299804688 153 c 0
 231.299804688 37.900390625 322.299804688 -57.5 436.599609375 -63.2001953125 c 1
 471.200195312 -63.2001953125 l 2
 639.599609375 -60.900390625 776.200195312 74.7998046875 779.099609375 243.599609375 c 1
 864.599609375 242.099609375 l 1
 864.400390625 230.599609375 863.799804688 219.200195312 862.599609375 208 c 1
841.5 -58.7998046875 m 0
 891.5 -18.5 899.200195312 54.7998046875 858.700195312 104.700195312 c 0
 854.099609375 110.400390625 848.900390625 115.700195312 843.299804688 120.400390625 c 1
 817.5 44.900390625 769.700195312 -20.2998046875 707.599609375 -67.599609375 c 1
 748.400390625 -92.5 802.200195312 -90.599609375 841.5 -58.7998046875 c 0
EndSplineSet
EndChar

StartChar: uniE116
Encoding: 57622 57622 22
Width: 1000
Flags: H
LayerCount: 2
Fore
SplineSet
925.799804688 379.400390625 m 1
 258 379.400390625 l 1
 248.599609375 302.5 243.799804688 225 243.799804688 147.299804688 c 0
 244.799804688 34.7001953125 332.099609375 -57.7001953125 444.5 -63.2001953125 c 1
 479.099609375 -63.2001953125 l 2
 496.799804688 -63 514.099609375 -61.2998046875 531 -58.2001953125 c 1
 460.200195312 -28.2998046875 410.5 41.900390625 410.5 123.599609375 c 0
 410.5 232.599609375 498.900390625 321 607.900390625 321 c 0
 685.400390625 321 752.5 276.299804688 784.799804688 211.299804688 c 1
 786.099609375 221.900390625 786.799804688 231.599609375 787 242.5 c 2
 789.5 300 l 1
 873.700195312 300 l 1
 873.700195312 -147.5 l 1
 789.5 -147.5 l 1
 789.5 5.599609375 l 1
 717 -88.099609375 603.599609375 -148.400390625 476.200195312 -148.900390625 c 2
 448.5 -149.200195312 l 1
 284.200195312 -145.599609375 155 -9.900390625 157.900390625 154.400390625 c 0
 158.200195312 229.700195312 162.700195312 304.799804688 171.5 379.400390625 c 1
 83.7001953125 379.400390625 l 1
 83.7001953125 468.900390625 l 1
 184.099609375 468.900390625 l 1
 198.700195312 558.5 219.5 647.099609375 246.400390625 734.099609375 c 1
 328.5 708.799804688 l 1
 304.200195312 630 285.099609375 549.900390625 271.200195312 468.900390625 c 1
 455.299804688 468.900390625 l 1
 574.599609375 487.299804688 674.299804688 571.799804688 711 688.5 c 1
 786.299804688 664.799804688 l 1
 761.299804688 585.200195312 712.700195312 517.599609375 649.5 468.900390625 c 1
 925.799804688 468.900390625 l 1
 925.799804688 379.400390625 l 1
493.599609375 123.700195312 m 0
 493.599609375 60.599609375 544.799804688 9.400390625 607.900390625 9.400390625 c 0
 671 9.400390625 722.200195312 60.599609375 722.200195312 123.700195312 c 0
 722.200195312 186.799804688 671 238 607.900390625 238 c 0
 544.799804688 238 493.599609375 186.799804688 493.599609375 123.700195312 c 0
EndSplineSet
EndChar

StartChar: uniE117
Encoding: 57623 57623 23
Width: 1000
Flags: H
LayerCount: 2
Fore
SplineSet
247.5 379.400390625 m 1
 238.299804688 304.400390625 233.5 228.799804688 233.299804688 153 c 0
 231.299804688 37.900390625 322.099609375 -57.5 436.5 -63.2001953125 c 1
 471.099609375 -63.2001953125 l 2
 639.5 -60.7998046875 776 74.7998046875 779 243.700195312 c 1
 864.5 242.200195312 l 1
 864.299804688 233.299804688 863.900390625 224.5 863.200195312 215.799804688 c 2
 863.200195312 -142.200195312 l 1
 779 -142.200195312 l 1
 779 2.5 l 1
 706.400390625 -89.400390625 594.099609375 -148.299804688 468.200195312 -148.799804688 c 2
 440.5 -149.099609375 l 1
 278.599609375 -145.599609375 148.299804688 -13.7998046875 147.400390625 147.299804688 c 0
 147.400390625 224.900390625 152 302.5 161 379.400390625 c 1
 83.7001953125 379.400390625 l 1
 83.7001953125 468.900390625 l 1
 173.599609375 468.900390625 l 1
 188.200195312 558.5 209 647.200195312 235.900390625 734.200195312 c 1
 318 708.900390625 l 1
 293.700195312 630.099609375 274.599609375 549.900390625 260.700195312 468.900390625 c 1
 455.299804688 468.900390625 l 1
 574.599609375 487.299804688 674.299804688 571.799804688 711 688.5 c 1
 786.299804688 664.799804688 l 1
 761.299804688 585.200195312 712.700195312 517.599609375 649.5 468.900390625 c 1
 925.799804688 468.900390625 l 1
 925.799804688 379.400390625 l 1
 247.5 379.400390625 l 1
EndSplineSet
EndChar

StartChar: uniE118
Encoding: 57624 57624 24
Width: 1000
Flags: H
LayerCount: 2
Fore
SplineSet
907 -29.099609375 m 0
 930.599609375 -62.5 943.299804688 -102.400390625 943.400390625 -143.400390625 c 1
 856.5 -143.599609375 l 1
 856.400390625 -81.7001953125 806.200195312 -31.7001953125 744.299804688 -31.7998046875 c 0
 721.200195312 -31.900390625 698.200195312 -38.2998046875 679.400390625 -51.599609375 c 2
 604.5 -104.099609375 l 1
 471.099609375 -187.299804688 294.400390625 -152.799804688 202.799804688 -22.7001953125 c 0
 167.700195312 27.2001953125 147.799804688 86.5 147.400390625 147.299804688 c 0
 147.400390625 224.900390625 152 302.5 161 379.400390625 c 1
 83.7001953125 379.400390625 l 1
 83.7001953125 468.900390625 l 1
 173.599609375 468.900390625 l 1
 188.200195312 558.5 209 647.200195312 235.900390625 734.200195312 c 1
 318 708.900390625 l 1
 293.599609375 630.099609375 274.5 549.900390625 260.599609375 468.900390625 c 1
 455.299804688 468.900390625 l 1
 574.599609375 487.299804688 674.299804688 571.799804688 711 688.5 c 1
 786.299804688 664.799804688 l 1
 761.299804688 585.200195312 712.700195312 517.599609375 649.5 468.900390625 c 1
 925.799804688 468.900390625 l 1
 925.799804688 379.400390625 l 1
 247.400390625 379.400390625 l 1
 238.5 306.599609375 233.700195312 233.299804688 233.200195312 159.700195312 c 0
 231.200195312 42.400390625 319.299804688 -56.7998046875 436.200195312 -62.5 c 0
 462.599609375 -63.7998046875 488.700195312 -60.099609375 513.400390625 -51.900390625 c 1
 443.5 -21.099609375 394.599609375 49.400390625 394.599609375 131.599609375 c 0
 394.599609375 242.099609375 483 331.599609375 592 331.599609375 c 0
 701 331.599609375 789.400390625 242.099609375 789.400390625 131.599609375 c 0
 789.400390625 103.700195312 783.799804688 77.099609375 773.599609375 53 c 1
 825.599609375 45.2998046875 874.400390625 17.2001953125 907 -29.099609375 c 0
654.700195312 33.7998046875 m 0
 685.799804688 54.7001953125 706.400390625 90.7001953125 706.400390625 131.599609375 c 0
 706.400390625 196.200195312 655.200195312 248.5 592.099609375 248.5 c 0
 529 248.5 477.799804688 196.200195312 477.799804688 131.599609375 c 0
 477.799804688 67 529 14.7001953125 592.099609375 14.7001953125 c 0
 608.900390625 14.7001953125 624.900390625 18.400390625 639.299804688 25.099609375 c 0
 644.400390625 28.2998046875 649.5 31.2001953125 654.700195312 33.7998046875 c 0
EndSplineSet
EndChar

StartChar: uniE119
Encoding: 57625 57625 25
Width: 1000
Flags: H
LayerCount: 2
Fore
SplineSet
757.900390625 278.900390625 m 0
 757.900390625 302.151367188 775.584960938 321 797.400390625 321 c 0
 819.21484375 321 836.900390625 302.151367188 836.900390625 278.900390625 c 0
 836.900390625 255.6484375 819.21484375 236.799804688 797.400390625 236.799804688 c 0
 775.584960938 236.799804688 757.900390625 255.6484375 757.900390625 278.900390625 c 0
895.514648438 126.4296875 m 0
 873.723632812 127.4453125 856.881835938 145.934570312 857.8984375 167.7265625 c 0
 858.915039062 189.517578125 877.404296875 206.358398438 899.1953125 205.342773438 c 0
 920.986328125 204.326171875 937.828125 185.836914062 936.811523438 164.045898438 c 0
 935.794921875 142.25390625 917.305664062 125.413085938 895.514648438 126.4296875 c 0
715.799804688 230.200195312 m 0
 819.599609375 192.900390625 873.099609375 79.599609375 835.299804688 -22.7998046875 c 0
 797.5 -125.200195312 682.700195312 -178 578.900390625 -140.700195312 c 0
 563.099609375 -135 548 -127.299804688 534.099609375 -117.900390625 c 1
 581.200195312 -50.2998046875 l 1
 634.900390625 -86 708 -72.5 744.599609375 -19.900390625 c 0
 781.200195312 32.5 767.299804688 104.099609375 713.599609375 139.799804688 c 0
 711.299804688 141.299804688 709 142.700195312 706.700195312 144 c 0
 549 219.599609375 359.200195312 153.900390625 283 -2.5 c 0
 268.200195312 -32.7998046875 258.5 -65.099609375 254.099609375 -98.2001953125 c 0
 252.299804688 -111.099609375 251.400390625 -123.900390625 251.400390625 -136.799804688 c 0
 251.400390625 -137.599609375 251.400390625 -138.5 251.400390625 -139.400390625 c 1
 168.5 -139.400390625 l 1
 168.5 -138.599609375 168.5 -137.700195312 168.5 -136.799804688 c 0
 168.5 36.400390625 183.599609375 209.200195312 213.5 379.400390625 c 1
 83.7001953125 379.400390625 l 1
 83.7001953125 468.900390625 l 1
 230.599609375 468.900390625 l 1
 249.299804688 559.200195312 272.200195312 648.700195312 299.299804688 737.099609375 c 1
 380.900390625 712.099609375 l 1
 356.299804688 631.900390625 335.299804688 550.700195312 317.799804688 468.900390625 c 1
 455.299804688 468.900390625 l 1
 574.599609375 487.299804688 674.299804688 571.799804688 711 688.5 c 1
 786.299804688 664.799804688 l 1
 761.299804688 585.200195312 712.700195312 517.599609375 649.5 468.900390625 c 1
 925.799804688 468.900390625 l 1
 925.799804688 379.400390625 l 1
 300.099609375 379.400390625 l 1
 284.599609375 293.400390625 272.900390625 206.700195312 265.099609375 119.599609375 c 1
 338.5 204.299804688 447.099609375 257.900390625 568.400390625 257.900390625 c 0
 618.900390625 257.900390625 669 248.599609375 715.799804688 230.200195312 c 0
EndSplineSet
EndChar

StartChar: uniE11A
Encoding: 57626 57626 26
Width: 1000
Flags: H
LayerCount: 2
Fore
SplineSet
925.799804688 379.400390625 m 1
 252.799804688 379.400390625 l 1
 246.299804688 326.900390625 242.099609375 274 240 221 c 1
 276.5 269 334.599609375 300 400 300 c 0
 510.5 300 600 211.599609375 600 102.599609375 c 0
 600 33.099609375 563.5 -28 508.5 -63.2001953125 c 1
 915.799804688 -63.2001953125 l 1
 915.799804688 -147.400390625 l 1
 444.099609375 -147.400390625 l 2
 279.799804688 -143.799804688 149.799804688 -9.7998046875 152.700195312 154.5 c 0
 153 229.700195312 157.5 304.799804688 166.299804688 379.400390625 c 1
 83.7001953125 379.400390625 l 1
 83.7001953125 468.900390625 l 1
 178.799804688 468.900390625 l 1
 193.5 558.5 214.299804688 647.200195312 241.200195312 734.200195312 c 1
 323.299804688 708.900390625 l 1
 298.900390625 630.099609375 279.799804688 549.900390625 265.900390625 468.900390625 c 1
 455.299804688 468.900390625 l 1
 574.599609375 487.299804688 674.299804688 571.799804688 711 688.5 c 1
 786.299804688 664.799804688 l 1
 761.299804688 585.200195312 712.700195312 517.599609375 649.5 468.900390625 c 1
 925.799804688 468.900390625 l 1
 925.799804688 379.400390625 l 1
400 216.900390625 m 0
 335.400390625 216.900390625 283.099609375 165.700195312 283.099609375 102.599609375 c 0
 283.099609375 39.5 335.400390625 -11.7001953125 400 -11.7001953125 c 0
 464.599609375 -11.7001953125 516.900390625 39.5 516.900390625 102.599609375 c 0
 516.900390625 165.700195312 464.599609375 216.900390625 400 216.900390625 c 0
EndSplineSet
EndChar

StartChar: uniE11B
Encoding: 57627 57627 27
Width: 1000
Flags: H
LayerCount: 2
Fore
SplineSet
668.400390625 276.299804688 m 0
 668.400390625 298.115234375 686.084960938 315.799804688 707.900390625 315.799804688 c 0
 729.71484375 315.799804688 747.400390625 298.115234375 747.400390625 276.299804688 c 0
 747.400390625 254.484375 729.71484375 236.799804688 707.900390625 236.799804688 c 0
 686.084960938 236.799804688 668.400390625 254.484375 668.400390625 276.299804688 c 0
805.200195312 276.299804688 m 0
 805.200195312 298.115234375 822.884765625 315.799804688 844.700195312 315.799804688 c 0
 866.515625 315.799804688 884.200195312 298.115234375 884.200195312 276.299804688 c 0
 884.200195312 254.484375 866.515625 236.799804688 844.700195312 236.799804688 c 0
 822.884765625 236.799804688 805.200195312 254.484375 805.200195312 276.299804688 c 0
925.799804688 468.900390625 m 1
 925.799804688 379.400390625 l 1
 258.099609375 379.400390625 l 1
 251.599609375 326.900390625 247.400390625 274 245.299804688 221 c 1
 281.799804688 269 339.900390625 300 405.299804688 300 c 0
 515.799804688 300 605.299804688 211.599609375 605.299804688 102.599609375 c 0
 605.299804688 33.099609375 568.799804688 -28 513.799804688 -63.2001953125 c 1
 921 -63.2001953125 l 1
 921 -147.400390625 l 1
 449.5 -147.400390625 l 2
 285.200195312 -143.799804688 155 -9.7998046875 158 154.5 c 0
 158.299804688 229.700195312 162.799804688 304.799804688 171.599609375 379.400390625 c 1
 83.7001953125 379.400390625 l 1
 83.7001953125 468.900390625 l 1
 184.099609375 468.900390625 l 1
 198.799804688 558.5 219.599609375 647.200195312 246.5 734.200195312 c 1
 328.599609375 708.900390625 l 1
 304.200195312 630.099609375 285.099609375 549.900390625 271.200195312 468.900390625 c 1
 455.299804688 468.900390625 l 1
 574.599609375 487.299804688 674.299804688 571.799804688 711 688.5 c 1
 786.299804688 664.799804688 l 1
 761.299804688 585.200195312 712.700195312 517.599609375 649.5 468.900390625 c 1
 925.799804688 468.900390625 l 1
405.299804688 216.900390625 m 0
 340.700195312 216.900390625 288.400390625 165.700195312 288.400390625 102.599609375 c 0
 288.400390625 39.5 340.700195312 -11.7001953125 405.299804688 -11.7001953125 c 0
 469.900390625 -11.7001953125 522.200195312 39.5 522.200195312 102.599609375 c 0
 522.200195312 165.700195312 469.900390625 216.900390625 405.299804688 216.900390625 c 0
EndSplineSet
EndChar

StartChar: uniE11C
Encoding: 57628 57628 28
Width: 1000
Flags: H
LayerCount: 2
Fore
SplineSet
742.099609375 321.099609375 m 0
 852.599609375 321.099609375 942.099609375 231.599609375 942.099609375 121.099609375 c 0
 942.099609375 10.599609375 852.599609375 -78.900390625 742.099609375 -78.900390625 c 0
 723.900390625 -78.900390625 706.299804688 -76.5 689.5 -71.900390625 c 1
 689.5 -147.299804688 l 1
 605.299804688 -147.299804688 l 1
 605.299804688 -29.2001953125 l 1
 446.599609375 62.400390625 l 1
 447.099609375 56.599609375 447.400390625 50.7001953125 447.400390625 44.7998046875 c 0
 447.400390625 -64.2001953125 359 -152.599609375 250 -152.599609375 c 0
 141 -152.599609375 52.599609375 -64.099609375 52.599609375 44.900390625 c 0
 52.599609375 153.900390625 141 242.299804688 250 242.299804688 c 0
 269.200195312 242.299804688 287.799804688 239.5 305.299804688 234.400390625 c 1
 305.299804688 379.400390625 l 1
 83.7001953125 379.400390625 l 1
 83.7001953125 468.900390625 l 1
 305.200195312 468.900390625 l 1
 305.200195312 721.200195312 l 1
 389.400390625 721.200195312 l 1
 389.400390625 468.900390625 l 1
 455.299804688 468.900390625 l 1
 574.599609375 487.299804688 674.299804688 571.799804688 711 688.5 c 1
 786.299804688 664.799804688 l 1
 761.299804688 585.200195312 712.700195312 517.599609375 649.5 468.900390625 c 1
 925.799804688 468.900390625 l 1
 925.799804688 379.400390625 l 1
 389.5 379.400390625 l 1
 389.5 194.200195312 l 1
 542.700195312 105.700195312 l 1
 542.299804688 110.799804688 542.099609375 115.900390625 542.099609375 121.099609375 c 0
 542.099609375 231.599609375 631.599609375 321.099609375 742.099609375 321.099609375 c 0
250 -69.599609375 m 0
 313.099609375 -69.599609375 364.299804688 -18.400390625 364.299804688 44.7001953125 c 0
 364.299804688 82.400390625 346 115.799804688 317.900390625 136.700195312 c 1
 295.5 149.599609375 l 2
 281.5 155.599609375 266.200195312 159 250 159 c 0
 186.900390625 159 135.700195312 107.799804688 135.700195312 44.7001953125 c 0
 135.700195312 -18.400390625 186.900390625 -69.599609375 250 -69.599609375 c 0
742.099609375 5.2998046875 m 0
 806.099609375 5.2998046875 857.900390625 57 857.900390625 121 c 0
 857.900390625 185 806 236.799804688 742.099609375 236.799804688 c 0
 678.099609375 236.799804688 626.299804688 184.900390625 626.299804688 121 c 0
 626.299804688 87.2001953125 640.900390625 56.7998046875 664 35.599609375 c 1
 701.5 13.900390625 l 1
 700.900390625 12.7998046875 l 1
 713.700195312 8 727.599609375 5.2998046875 742.099609375 5.2998046875 c 0
EndSplineSet
EndChar

StartChar: uniE11D
Encoding: 57629 57629 29
Width: 1000
Flags: H
LayerCount: 2
Fore
SplineSet
865.5 221.599609375 m 2
 875 216.099609375 878.299804688 203.900390625 872.799804688 194.400390625 c 0
 867.299804688 184.900390625 855.099609375 181.599609375 845.599609375 187.099609375 c 2
 707.799804688 266.700195312 l 2
 698.299804688 272.200195312 695 284.400390625 700.5 293.900390625 c 0
 706 303.400390625 718.200195312 306.700195312 727.700195312 301.200195312 c 2
 865.5 221.599609375 l 2
649.5 468.900390625 m 0
 925.799804688 468.900390625 l 1
 925.799804688 379.400390625 l 1
 310.599609375 379.400390625 l 1
 295.099609375 293.700195312 283.5 207.299804688 275.700195312 120.5 c 1
 348.599609375 204.599609375 456.200195312 257.900390625 576.299804688 257.900390625 c 0
 623.799804688 257.900390625 670.900390625 249.299804688 715.200195312 232.799804688 c 0
 727.299804688 228.900390625 738.900390625 223.900390625 749.900390625 217.900390625 c 0
 750.099609375 217.799804688 750.299804688 217.700195312 750.5 217.599609375 c 0
 811.400390625 184 852.599609375 119.200195312 852.599609375 44.7998046875 c 0
 852.599609375 -64.2001953125 764.200195312 -152.599609375 655.200195312 -152.599609375 c 0
 546.200195312 -152.599609375 457.799804688 -64.2001953125 457.799804688 44.7998046875 c 0
 457.799804688 90.2001953125 473.200195312 132 499 165.400390625 c 1
 412.5 143.400390625 335.799804688 84.900390625 293.599609375 -1.599609375 c 0
 278.700195312 -32 268.900390625 -64.599609375 264.5 -98 c 0
 262.200195312 -113.5 261.799804688 -123.799804688 261.799804688 -136.799804688 c 0
 261.799804688 -137.599609375 261.799804688 -138.5 261.799804688 -139.400390625 c 1
 178.900390625 -139.400390625 l 1
 178.900390625 -138.599609375 178.900390625 -137.700195312 178.900390625 -136.799804688 c 0
 178.900390625 36.5 194 209.200195312 223.900390625 379.400390625 c 1
 83.7001953125 379.400390625 l 1
 83.7001953125 468.900390625 l 1
 241 468.900390625 l 1
 259.799804688 559.200195312 282.700195312 648.799804688 309.799804688 737.200195312 c 1
 391.400390625 712.200195312 l 1
 366.799804688 631.900390625 345.799804688 550.799804688 328.299804688 468.900390625 c 1
 455.299804688 468.900390625 l 1
 574.599609375 487.299804688 674.299804688 571.799804688 711 688.5 c 1
 786.299804688 664.799804688 l 1
 761.299804688 585.200195312 712.700195312 517.599609375 649.5 468.900390625 c 0
655.299804688 159 m 0
 592.200195312 159 541 107.900390625 541 44.7998046875 c 0
 541 -18.2998046875 592.200195312 -69.5 655.299804688 -69.5 c 0
 718.400390625 -69.5 769.5 -18.400390625 769.599609375 44.7001953125 c 0
 769.599609375 88.7998046875 744.599609375 127.099609375 708 146.099609375 c 0
 702.900390625 148.5 697.799804688 150.700195312 692.700195312 152.700195312 c 0
 681 156.799804688 668.400390625 159 655.299804688 159 c 0
EndSplineSet
EndChar

StartChar: uniE11E
Encoding: 57630 57630 30
Width: 1000
Flags: H
LayerCount: 2
Fore
SplineSet
852.799804688 221.599609375 m 2
 862.299804688 216.099609375 865.599609375 203.900390625 860.099609375 194.400390625 c 0
 854.599609375 184.900390625 842.400390625 181.599609375 832.900390625 187.099609375 c 2
 695.099609375 266.700195312 l 2
 685.599609375 272.200195312 682.299804688 284.400390625 687.799804688 293.900390625 c 0
 693.299804688 303.400390625 705.5 306.700195312 715 301.200195312 c 2
 852.799804688 221.599609375 l 2
649.5 468.900390625 m 0
 925.799804688 468.900390625 l 1
 925.799804688 379.400390625 l 1
 300.099609375 379.400390625 l 1
 284.200195312 291.400390625 272.299804688 202.700195312 264.599609375 113.5 c 1
 337.400390625 201.700195312 447.700195312 257.900390625 571 257.900390625 c 0
 621.5 257.900390625 671.599609375 248.5 718.299804688 229.900390625 c 0
 727.400390625 226.5 736.099609375 222.599609375 744.299804688 218.099609375 c 0
 744.599609375 217.900390625 744.900390625 217.799804688 745.200195312 217.599609375 c 0
 829.5 171.400390625 869.400390625 69.2001953125 835.200195312 -23.5 c 0
 797.5 -125.799804688 684 -178.099609375 581.700195312 -140.299804688 c 0
 565.900390625 -134.5 551 -126.700195312 537.200195312 -117.099609375 c 1
 584.299804688 -49.5 l 1
 636.400390625 -85.7998046875 708.099609375 -73 744.400390625 -20.900390625 c 0
 780.700195312 31.2001953125 767.900390625 102.900390625 715.799804688 139.200195312 c 0
 713.599609375 140.700195312 711.400390625 142.099609375 709.099609375 143.5 c 0
 552.900390625 219.599609375 364.599609375 154.599609375 288.400390625 -1.5 c 0
 267.5 -44.5 256.599609375 -91.599609375 256.599609375 -139.400390625 c 1
 173.700195312 -139.400390625 l 1
 173.700195312 -138.599609375 173.700195312 -137.700195312 173.700195312 -136.799804688 c 0
 173.700195312 36.400390625 187 209.200195312 215.400390625 379.400390625 c 1
 83.7001953125 379.400390625 l 1
 83.7001953125 468.900390625 l 1
 231.799804688 468.900390625 l 1
 249.799804688 559.200195312 272.200195312 648.700195312 299.299804688 737.099609375 c 1
 380.900390625 712.099609375 l 1
 356.299804688 631.900390625 335.299804688 550.700195312 317.799804688 468.900390625 c 1
 455.299804688 468.900390625 l 1
 574.599609375 487.299804688 674.299804688 571.799804688 711 688.5 c 1
 786.299804688 664.799804688 l 1
 761.299804688 585.200195312 712.700195312 517.599609375 649.5 468.900390625 c 0
EndSplineSet
EndChar

StartChar: uniE11F
Encoding: 57631 57631 31
Width: 1000
Flags: H
LayerCount: 2
Fore
SplineSet
602.599609375 263.099609375 m 2
 760.5 263.099609375 l 2
 770.700195312 263.099609375 778.900390625 254.900390625 778.900390625 244.700195312 c 0
 778.900390625 234.5 770.700195312 226.299804688 760.5 226.299804688 c 2
 602.599609375 226.299804688 l 2
 592.5 226.299804688 584.200195312 234.599609375 584.200195312 244.700195312 c 0
 584.200195312 254.900390625 592.400390625 263.099609375 602.599609375 263.099609375 c 2
913.400390625 18.599609375 m 1
 973 -42.7998046875 l 1
 815.200195312 -195.799804688 563.299804688 -191.799804688 410.400390625 -34 c 0
 409.099609375 -32.599609375 407.799804688 -31.2998046875 406.5 -29.900390625 c 1
 377.099609375 -101.900390625 306.299804688 -152.700195312 223.700195312 -152.700195312 c 0
 114.700195312 -152.700195312 26.2998046875 -64.2998046875 26.2998046875 44.7001953125 c 0
 26.2998046875 153.700195312 114.700195312 242.099609375 223.700195312 242.099609375 c 0
 250.099609375 242.099609375 275.400390625 236.900390625 298.5 227.400390625 c 1
 298.400390625 229.400390625 298.299804688 231.299804688 298.299804688 233.200195312 c 2
 298.799804688 379.400390625 l 1
 83.7001953125 379.400390625 l 1
 83.7001953125 468.900390625 l 1
 299.099609375 468.900390625 l 1
 300 721.099609375 l 1
 384.099609375 721.099609375 l 1
 384.099609375 468.900390625 l 1
 455.299804688 468.900390625 l 1
 574.599609375 487.299804688 674.299804688 571.799804688 711 688.5 c 1
 786.299804688 664.799804688 l 1
 761.299804688 585.200195312 712.700195312 517.599609375 649.5 468.900390625 c 1
 925.799804688 468.900390625 l 1
 925.799804688 379.400390625 l 1
 384.200195312 379.400390625 l 1
 384.200195312 224.400390625 l 1
 394 57.099609375 534.799804688 -73.599609375 703.700195312 -69.400390625 c 0
 782.200195312 -67.400390625 857 -36 913.400390625 18.599609375 c 1
223.700195312 -69.5 m 0
 286.799804688 -69.5 338 -18.400390625 338 44.7001953125 c 0
 338 107.799804688 286.799804688 159 223.700195312 159 c 0
 160.599609375 159 109.400390625 107.900390625 109.400390625 44.7998046875 c 0
 109.400390625 -18.2998046875 160.599609375 -69.5 223.700195312 -69.5 c 0
EndSplineSet
EndChar

StartChar: uniE120
Encoding: 57632 57632 32
Width: 1000
Flags: H
LayerCount: 2
Fore
SplineSet
834.200195312 264.200195312 m 2
 844.400390625 264.200195312 852.599609375 255.900390625 852.700195312 245.799804688 c 0
 852.700195312 235.599609375 844.5 227.400390625 834.299804688 227.400390625 c 2
 671.099609375 227.400390625 l 2
 660.900390625 227.400390625 652.700195312 235.599609375 652.700195312 245.799804688 c 0
 652.700195312 256 660.900390625 264.200195312 671.099609375 264.200195312 c 2
 834.200195312 264.200195312 l 2
649.5 468.900390625 m 1
 925.799804688 468.900390625 l 1
 925.799804688 379.400390625 l 1
 299.900390625 379.400390625 l 1
 294.900390625 352 290.400390625 324.400390625 286.200195312 296.799804688 c 1
 315.200195312 312.900390625 348.599609375 322.099609375 384.200195312 322.099609375 c 0
 494.700195312 322.099609375 584.200195312 233.799804688 584.200195312 124.799804688 c 0
 584.200195312 15.7998046875 494.700195312 -72.599609375 384.200195312 -72.599609375 c 0
 335.299804688 -72.599609375 290.5 -55.2998046875 255.799804688 -26.599609375 c 1
 254.400390625 -63 253.700195312 -99.400390625 253.700195312 -135.799804688 c 1
 168.400390625 -135.799804688 l 1
 168.400390625 37.099609375 183.400390625 209.5 213.200195312 379.400390625 c 1
 83.7001953125 379.400390625 l 1
 83.7001953125 468.900390625 l 1
 230.299804688 468.900390625 l 1
 249.099609375 559.599609375 272 649.400390625 299.200195312 738.099609375 c 1
 380.799804688 713.099609375 l 1
 356.099609375 632.599609375 335 551.099609375 317.5 468.900390625 c 1
 455.299804688 468.900390625 l 1
 574.599609375 487.299804688 674.299804688 571.799804688 711 688.5 c 1
 786.299804688 664.799804688 l 1
 761.299804688 585.200195312 712.700195312 517.599609375 649.5 468.900390625 c 1
384.200195312 239 m 0
 319.599609375 239 267.299804688 187.799804688 267.299804688 124.700195312 c 0
 267.299804688 61.599609375 319.599609375 10.400390625 384.200195312 10.400390625 c 0
 448.799804688 10.400390625 501.099609375 61.599609375 501.099609375 124.700195312 c 0
 501.099609375 187.799804688 448.799804688 239 384.200195312 239 c 0
EndSplineSet
EndChar

StartChar: uniE121
Encoding: 57633 57633 33
Width: 1000
Flags: H
LayerCount: 2
Fore
SplineSet
868.400390625 310.5 m 2
 880 310.5 889.5 301.099609375 889.5 289.400390625 c 0
 889.5 277.700195312 880 268.299804688 868.400390625 268.299804688 c 2
 710.5 268.299804688 l 2
 698.799804688 268.299804688 689.400390625 277.700195312 689.400390625 289.400390625 c 0
 689.400390625 301.099609375 698.900390625 310.5 710.5 310.5 c 2
 868.400390625 310.5 l 2
649.5 468.900390625 m 1
 925.799804688 468.900390625 l 1
 925.799804688 379.400390625 l 1
 258 379.400390625 l 1
 248.799804688 304.400390625 244 228.799804688 243.799804688 153 c 0
 241.799804688 37.900390625 333.200195312 -57.5 447.599609375 -63 c 1
 482.200195312 -63 l 2
 645.900390625 -60.7998046875 779.5 67.5 789.5 229.700195312 c 2
 790 242.200195312 l 2
 790 242.700195312 790 243.200195312 790 243.700195312 c 1
 874 242.200195312 l 1
 873.799804688 231.200195312 873.900390625 220.599609375 873.799804688 209.700195312 c 2
 873.799804688 -142.200195312 l 1
 789.599609375 -142.200195312 l 1
 789.599609375 1.7998046875 l 1
 716.900390625 -89.7001953125 604.900390625 -148.299804688 479.299804688 -148.799804688 c 2
 451.599609375 -149.099609375 l 1
 289.700195312 -145.599609375 158.799804688 -13.7998046875 157.900390625 147.299804688 c 0
 157.900390625 224.900390625 162.5 302.5 171.5 379.400390625 c 1
 83.7001953125 379.400390625 l 1
 83.7001953125 468.900390625 l 1
 184.099609375 468.900390625 l 1
 198.700195312 558.5 219.5 647.200195312 246.400390625 734.200195312 c 1
 328.5 708.900390625 l 1
 304.200195312 630.099609375 285.099609375 549.900390625 271.200195312 468.900390625 c 1
 455.299804688 468.900390625 l 1
 574.599609375 487.299804688 674.299804688 571.799804688 711 688.5 c 1
 786.299804688 664.799804688 l 1
 761.299804688 585.200195312 712.700195312 517.599609375 649.5 468.900390625 c 1
EndSplineSet
EndChar

StartChar: uniE122
Encoding: 57634 57634 34
Width: 1000
Flags: HW
LayerCount: 2
Fore
SplineSet
810.5 594.700195312 m 5
 810.5 632.5 842.299804688 663.099609375 881.599609375 663.099609375 c 4
 920.799804688 663.099609375 952.700195312 632.5 952.700195312 594.700195312 c 4
 952.700195312 556.900390625 920.900390625 526.299804688 881.599609375 526.299804688 c 4
 842.299804688 526.299804688 810.5 556.900390625 810.5 594.700195312 c 5
 810.5 594.700195312 l 5
844.700195312 594.700195312 m 5
 844.700195312 575.799804688 861.200195312 560.5 881.5 560.5 c 4
 901.799804688 560.5 918.299804688 575.799804688 918.299804688 594.700195312 c 4
 918.299804688 613.599609375 901.799804688 628.900390625 881.5 628.900390625 c 4
 861.200195312 628.900390625 844.700195312 613.599609375 844.700195312 594.700195312 c 5
 844.700195312 594.700195312 l 5
925.799804688 379.400390625 m 2
 315.799804688 379.400390625 l 1
 300.299804688 293.700195312 288.599609375 207.200195312 280.900390625 120.299804688 c 1
 353.799804688 204.599609375 461.5 257.900390625 581.599609375 257.900390625 c 0
 629.099609375 257.900390625 676.200195312 249.299804688 720.5 232.799804688 c 0
 732.599609375 228.900390625 744.200195312 223.900390625 755.200195312 217.900390625 c 0
 755.400390625 217.799804688 755.599609375 217.700195312 755.799804688 217.599609375 c 0
 816.700195312 184 857.900390625 119.200195312 858 44.7998046875 c 0
 858 -64.2001953125 769.599609375 -152.599609375 660.599609375 -152.599609375 c 0
 551.599609375 -152.599609375 463.200195312 -64.2001953125 463.200195312 44.7998046875 c 0
 463.200195312 90.2001953125 478.599609375 132 504.400390625 165.400390625 c 1
 417.900390625 143.400390625 341.200195312 84.900390625 299 -1.599609375 c 0
 284 -32.2001953125 274.200195312 -65 269.799804688 -98.599609375 c 0
 267.799804688 -111.5 267.099609375 -124.099609375 267.099609375 -136.799804688 c 0
 267.099609375 -137.599609375 267.099609375 -138.5 267.099609375 -139.400390625 c 1
 184.200195312 -139.400390625 l 1
 184.200195312 -138.599609375 184.200195312 -137.700195312 184.200195312 -136.799804688 c 0
 184.200195312 36.400390625 199.299804688 209.200195312 229.200195312 379.400390625 c 1
 83.7001953125 379.400390625 l 1
 83.7001953125 468.900390625 l 1
 246.200195312 468.900390625 l 1
 264.799804688 559 287.700195312 648.200195312 314.599609375 736.400390625 c 1
 396.099609375 711.400390625 l 1
 371.700195312 631.400390625 350.700195312 550.5 333.299804688 468.900390625 c 1
 455.299804688 468.900390625 l 1
 574.599609375 487.299804688 674.299804688 571.799804688 711 688.5 c 1
 786.299804688 664.799804688 l 1
 761.299804688 585.200195312 712.700195312 517.599609375 649.5 468.900390625 c 1
 925.799804688 468.900390625 l 1
 925.799804688 379.400390625 l 2
660.5 159 m 0
 597.400390625 159 546.200195312 107.900390625 546.200195312 44.7998046875 c 0
 546.200195312 -18.2998046875 597.400390625 -69.5 660.5 -69.5 c 0
 723.599609375 -69.5 774.799804688 -18.400390625 774.799804688 44.7001953125 c 0
 774.799804688 88.7998046875 749.799804688 127.099609375 713.200195312 146.099609375 c 0
 708.099609375 148.5 703 150.700195312 697.900390625 152.700195312 c 0
 686.200195312 156.799804688 673.599609375 159 660.5 159 c 0
EndSplineSet
EndChar

StartChar: uniE123
Encoding: 57635 57635 35
Width: 1000
Flags: HW
LayerCount: 2
Fore
SplineSet
810.5 594.700195312 m 5
 810.5 632.5 842.299804688 663.099609375 881.599609375 663.099609375 c 4
 920.799804688 663.099609375 952.700195312 632.5 952.700195312 594.700195312 c 4
 952.700195312 556.900390625 920.900390625 526.299804688 881.599609375 526.299804688 c 4
 842.299804688 526.299804688 810.5 556.900390625 810.5 594.700195312 c 5
 810.5 594.700195312 l 5
844.700195312 594.700195312 m 5
 844.700195312 575.799804688 861.200195312 560.5 881.5 560.5 c 4
 901.799804688 560.5 918.299804688 575.799804688 918.299804688 594.700195312 c 4
 918.299804688 613.599609375 901.799804688 628.900390625 881.5 628.900390625 c 4
 861.200195312 628.900390625 844.700195312 613.599609375 844.700195312 594.700195312 c 5
 844.700195312 594.700195312 l 5
925.799804688 379.400390625 m 2
 305.400390625 379.400390625 l 1
 289.5 291.400390625 277.599609375 202.700195312 269.900390625 113.5 c 1
 342.700195312 201.700195312 453 257.900390625 576.299804688 257.900390625 c 0
 626.799804688 257.900390625 676.900390625 248.5 723.599609375 229.900390625 c 0
 732.700195312 226.5 741.400390625 222.599609375 749.599609375 218.099609375 c 0
 749.900390625 217.900390625 750.200195312 217.799804688 750.5 217.599609375 c 0
 834.700195312 171.400390625 874.700195312 69.2001953125 840.5 -23.5 c 0
 802.799804688 -125.799804688 689.299804688 -178.099609375 587 -140.299804688 c 0
 571.200195312 -134.5 556.299804688 -126.700195312 542.5 -117.099609375 c 1
 589.599609375 -49.5 l 1
 641.700195312 -85.7998046875 713.400390625 -73 749.700195312 -20.900390625 c 0
 786 31.2001953125 773.200195312 102.900390625 721.099609375 139.200195312 c 0
 718.900390625 140.700195312 716.700195312 142.099609375 714.400390625 143.5 c 0
 558.200195312 219.599609375 369.900390625 154.599609375 293.700195312 -1.5 c 0
 272.799804688 -44.5 261.900390625 -91.599609375 261.900390625 -139.400390625 c 1
 179 -139.400390625 l 1
 179 -138.599609375 179 -137.700195312 179 -136.799804688 c 0
 179 36.5 192.299804688 209.200195312 220.700195312 379.400390625 c 1
 83.7001953125 379.400390625 l 1
 83.7001953125 468.900390625 l 1
 237 468.900390625 l 1
 255 559.200195312 277.400390625 648.700195312 304.5 737.099609375 c 1
 386.099609375 712.099609375 l 1
 361.599609375 631.900390625 340.599609375 550.700195312 323.099609375 468.900390625 c 1
 455.299804688 468.900390625 l 1
 574.599609375 487.299804688 674.299804688 571.799804688 711 688.5 c 1
 786.299804688 664.799804688 l 1
 761.299804688 585.200195312 712.700195312 517.599609375 649.5 468.900390625 c 1
 925.799804688 468.900390625 l 1
 925.799804688 379.400390625 l 2
EndSplineSet
EndChar

StartChar: uniE124
Encoding: 57636 57636 36
Width: 1000
Flags: HW
LayerCount: 2
Fore
SplineSet
810.5 594.700195312 m 5
 810.5 632.5 842.299804688 663.099609375 881.599609375 663.099609375 c 4
 920.799804688 663.099609375 952.700195312 632.5 952.700195312 594.700195312 c 4
 952.700195312 556.900390625 920.900390625 526.299804688 881.599609375 526.299804688 c 4
 842.299804688 526.299804688 810.5 556.900390625 810.5 594.700195312 c 5
 810.5 594.700195312 l 5
844.700195312 594.700195312 m 5
 844.700195312 575.799804688 861.200195312 560.5 881.5 560.5 c 4
 901.799804688 560.5 918.299804688 575.799804688 918.299804688 594.700195312 c 4
 918.299804688 613.599609375 901.799804688 628.900390625 881.5 628.900390625 c 4
 861.200195312 628.900390625 844.700195312 613.599609375 844.700195312 594.700195312 c 5
 844.700195312 594.700195312 l 5
918.5 18.599609375 m 1
 978 -42.7001953125 l 1
 820.200195312 -195.700195312 568.299804688 -191.700195312 415.400390625 -33.900390625 c 0
 414.200195312 -32.599609375 412.900390625 -31.2998046875 411.700195312 -30 c 1
 382.299804688 -102 311.599609375 -152.700195312 229 -152.700195312 c 0
 120 -152.700195312 31.599609375 -64.2998046875 31.599609375 44.7001953125 c 0
 31.599609375 153.700195312 120 242.099609375 229 242.099609375 c 0
 255.400390625 242.099609375 280.599609375 236.900390625 303.599609375 227.5 c 1
 303.5 229.400390625 303.400390625 231.299804688 303.400390625 233.200195312 c 2
 304 379.400390625 l 1
 83.7001953125 379.400390625 l 1
 83.7001953125 468.900390625 l 1
 304.200195312 468.900390625 l 1
 305.200195312 721.099609375 l 1
 389.400390625 721.099609375 l 1
 389.400390625 468.900390625 l 1
 455.299804688 468.900390625 l 1
 574.599609375 487.299804688 674.299804688 571.799804688 711 688.5 c 1
 786.299804688 664.799804688 l 1
 761.299804688 585.200195312 712.700195312 517.599609375 649.5 468.900390625 c 1
 925.799804688 468.900390625 l 1
 925.799804688 379.400390625 l 1
 389.5 379.400390625 l 1
 389.5 221.299804688 l 1
 400.900390625 55.5 541 -73.5 708.799804688 -69.400390625 c 0
 787.299804688 -67.400390625 862.099609375 -36 918.5 18.599609375 c 1
228.900390625 -69.599609375 m 0
 292 -69.599609375 343.200195312 -18.400390625 343.200195312 44.7001953125 c 0
 343.200195312 59.599609375 340.400390625 73.7998046875 335.099609375 86.7998046875 c 0
 334.599609375 88.2001953125 334 89.599609375 333.400390625 91 c 0
 315.700195312 131 275.599609375 159 228.900390625 159 c 0
 165.799804688 159 114.599609375 107.799804688 114.599609375 44.7001953125 c 0
 114.599609375 -18.400390625 165.799804688 -69.599609375 228.900390625 -69.599609375 c 0
EndSplineSet
EndChar

StartChar: uniE125
Encoding: 57637 57637 37
Width: 1000
Flags: HW
LayerCount: 2
Fore
SplineSet
810.5 594.700195312 m 5
 810.5 632.5 842.299804688 663.099609375 881.599609375 663.099609375 c 4
 920.799804688 663.099609375 952.700195312 632.5 952.700195312 594.700195312 c 4
 952.700195312 556.900390625 920.900390625 526.299804688 881.599609375 526.299804688 c 4
 842.299804688 526.299804688 810.5 556.900390625 810.5 594.700195312 c 5
 810.5 594.700195312 l 5
844.700195312 594.700195312 m 5
 844.700195312 575.799804688 861.200195312 560.5 881.5 560.5 c 4
 901.799804688 560.5 918.299804688 575.799804688 918.299804688 594.700195312 c 4
 918.299804688 613.599609375 901.799804688 628.900390625 881.5 628.900390625 c 4
 861.200195312 628.900390625 844.700195312 613.599609375 844.700195312 594.700195312 c 5
 844.700195312 594.700195312 l 5
925.799804688 379.400390625 m 1
 305.400390625 379.400390625 l 1
 300.299804688 351.599609375 295.700195312 323.700195312 291.5 295.799804688 c 1
 320.5 311.900390625 353.900390625 321.099609375 389.5 321.099609375 c 0
 499.900390625 321.099609375 589.5 232.799804688 589.5 123.799804688 c 0
 589.5 14.7998046875 500 -73.599609375 389.5 -73.599609375 c 0
 340.599609375 -73.599609375 295.799804688 -56.2998046875 261.099609375 -27.599609375 c 1
 259.700195312 -64 259 -100.400390625 259 -136.799804688 c 1
 173.700195312 -136.799804688 l 1
 173.700195312 36.400390625 188.799804688 209.200195312 218.700195312 379.400390625 c 1
 83.7001953125 379.400390625 l 1
 83.7001953125 468.900390625 l 1
 235.799804688 468.900390625 l 1
 254.5 559.200195312 277.400390625 648.700195312 304.5 737.099609375 c 1
 386.099609375 712.099609375 l 1
 361.5 631.900390625 340.5 550.799804688 323 468.900390625 c 1
 455.299804688 468.900390625 l 1
 574.599609375 487.299804688 674.299804688 571.799804688 711 688.5 c 1
 786.299804688 664.799804688 l 1
 761.299804688 585.200195312 712.700195312 517.599609375 649.5 468.900390625 c 1
 925.799804688 468.900390625 l 1
 925.799804688 379.400390625 l 1
389.5 238 m 0
 324.900390625 238 272.599609375 186.799804688 272.599609375 123.700195312 c 0
 272.599609375 60.599609375 324.900390625 9.400390625 389.5 9.400390625 c 0
 454 9.400390625 506.400390625 60.599609375 506.400390625 123.700195312 c 0
 506.400390625 186.799804688 454.099609375 238 389.5 238 c 0
EndSplineSet
EndChar

StartChar: uniE126
Encoding: 57638 57638 38
Width: 1000
Flags: HW
LayerCount: 2
Fore
SplineSet
810.5 594.700195312 m 5
 810.5 632.5 842.299804688 663.099609375 881.599609375 663.099609375 c 4
 920.799804688 663.099609375 952.700195312 632.5 952.700195312 594.700195312 c 4
 952.700195312 556.900390625 920.900390625 526.299804688 881.599609375 526.299804688 c 4
 842.299804688 526.299804688 810.5 556.900390625 810.5 594.700195312 c 5
 810.5 594.700195312 l 5
844.700195312 594.700195312 m 5
 844.700195312 575.799804688 861.200195312 560.5 881.5 560.5 c 4
 901.799804688 560.5 918.299804688 575.799804688 918.299804688 594.700195312 c 4
 918.299804688 613.599609375 901.799804688 628.900390625 881.5 628.900390625 c 4
 861.200195312 628.900390625 844.700195312 613.599609375 844.700195312 594.700195312 c 5
 844.700195312 594.700195312 l 5
862.599609375 208 m 1
 949.5 161.799804688 991.099609375 57.2998046875 956.099609375 -37.7998046875 c 0
 917.799804688 -141.400390625 802.799804688 -194.400390625 699.200195312 -156.099609375 c 0
 673.700195312 -146.700195312 650.400390625 -132.200195312 630.799804688 -113.599609375 c 1
 581.200195312 -136 526.200195312 -148.599609375 468.299804688 -148.799804688 c 2
 440.599609375 -149.099609375 l 1
 278.799804688 -145.599609375 148.299804688 -13.7998046875 147.400390625 147.299804688 c 0
 147.400390625 224.900390625 152 302.5 161 379.400390625 c 1
 83.7001953125 379.400390625 l 1
 83.7001953125 468.900390625 l 1
 173.599609375 468.900390625 l 1
 188.200195312 558.5 209 647.200195312 235.900390625 734.200195312 c 1
 318 708.900390625 l 1
 293.700195312 630.099609375 274.599609375 549.900390625 260.700195312 468.900390625 c 1
 455.299804688 468.900390625 l 1
 574.599609375 487.299804688 674.299804688 571.799804688 711 688.5 c 1
 786.299804688 664.799804688 l 1
 761.299804688 585.200195312 712.700195312 517.599609375 649.5 468.900390625 c 1
 925.799804688 468.900390625 l 1
 925.799804688 379.400390625 l 1
 247.5 379.400390625 l 1
 238.299804688 304.400390625 233.5 228.799804688 233.299804688 153 c 0
 231.299804688 37.900390625 322.299804688 -57.5 436.599609375 -63.2001953125 c 1
 471.200195312 -63.2001953125 l 2
 639.599609375 -60.900390625 776.200195312 74.7998046875 779.099609375 243.599609375 c 1
 864.599609375 242.099609375 l 1
 864.400390625 230.599609375 863.799804688 219.200195312 862.599609375 208 c 1
841.5 -58.7998046875 m 0
 891.5 -18.5 899.200195312 54.7998046875 858.700195312 104.700195312 c 0
 854.099609375 110.400390625 848.900390625 115.700195312 843.299804688 120.400390625 c 1
 817.5 44.900390625 769.700195312 -20.2998046875 707.599609375 -67.599609375 c 1
 748.400390625 -92.5 802.200195312 -90.599609375 841.5 -58.7998046875 c 0
EndSplineSet
EndChar

StartChar: uniE127
Encoding: 57639 57639 39
Width: 1000
Flags: HW
LayerCount: 2
Fore
SplineSet
810.5 594.700195312 m 5
 810.5 632.5 842.299804688 663.099609375 881.599609375 663.099609375 c 4
 920.799804688 663.099609375 952.700195312 632.5 952.700195312 594.700195312 c 4
 952.700195312 556.900390625 920.900390625 526.299804688 881.599609375 526.299804688 c 4
 842.299804688 526.299804688 810.5 556.900390625 810.5 594.700195312 c 5
 810.5 594.700195312 l 5
844.700195312 594.700195312 m 5
 844.700195312 575.799804688 861.200195312 560.5 881.5 560.5 c 4
 901.799804688 560.5 918.299804688 575.799804688 918.299804688 594.700195312 c 4
 918.299804688 613.599609375 901.799804688 628.900390625 881.5 628.900390625 c 4
 861.200195312 628.900390625 844.700195312 613.599609375 844.700195312 594.700195312 c 5
 844.700195312 594.700195312 l 5
925.799804688 379.400390625 m 1
 258 379.400390625 l 1
 248.599609375 302.5 243.799804688 225 243.799804688 147.299804688 c 0
 244.799804688 34.7001953125 332.099609375 -57.7001953125 444.5 -63.2001953125 c 1
 479.099609375 -63.2001953125 l 2
 496.799804688 -63 514.099609375 -61.2998046875 531 -58.2001953125 c 1
 460.200195312 -28.2998046875 410.5 41.900390625 410.5 123.599609375 c 0
 410.5 232.599609375 498.900390625 321 607.900390625 321 c 0
 685.400390625 321 752.5 276.299804688 784.799804688 211.299804688 c 1
 786.099609375 221.900390625 786.799804688 231.599609375 787 242.5 c 2
 789.5 300 l 1
 873.700195312 300 l 1
 873.700195312 -147.5 l 1
 789.5 -147.5 l 1
 789.5 5.599609375 l 1
 717 -88.099609375 603.599609375 -148.400390625 476.200195312 -148.900390625 c 2
 448.5 -149.200195312 l 1
 284.200195312 -145.599609375 155 -9.900390625 157.900390625 154.400390625 c 0
 158.200195312 229.700195312 162.700195312 304.799804688 171.5 379.400390625 c 1
 83.7001953125 379.400390625 l 1
 83.7001953125 468.900390625 l 1
 184.099609375 468.900390625 l 1
 198.700195312 558.5 219.5 647.099609375 246.400390625 734.099609375 c 1
 328.5 708.799804688 l 1
 304.200195312 630 285.099609375 549.900390625 271.200195312 468.900390625 c 1
 455.299804688 468.900390625 l 1
 574.599609375 487.299804688 674.299804688 571.799804688 711 688.5 c 1
 786.299804688 664.799804688 l 1
 761.299804688 585.200195312 712.700195312 517.599609375 649.5 468.900390625 c 1
 925.799804688 468.900390625 l 1
 925.799804688 379.400390625 l 1
493.599609375 123.700195312 m 0
 493.599609375 60.599609375 544.799804688 9.400390625 607.900390625 9.400390625 c 0
 671 9.400390625 722.200195312 60.599609375 722.200195312 123.700195312 c 0
 722.200195312 186.799804688 671 238 607.900390625 238 c 0
 544.799804688 238 493.599609375 186.799804688 493.599609375 123.700195312 c 0
EndSplineSet
EndChar

StartChar: uniE128
Encoding: 57640 57640 40
Width: 1000
Flags: HW
LayerCount: 2
Fore
SplineSet
810.5 594.700195312 m 5
 810.5 632.5 842.299804688 663.099609375 881.599609375 663.099609375 c 4
 920.799804688 663.099609375 952.700195312 632.5 952.700195312 594.700195312 c 4
 952.700195312 556.900390625 920.900390625 526.299804688 881.599609375 526.299804688 c 4
 842.299804688 526.299804688 810.5 556.900390625 810.5 594.700195312 c 5
 810.5 594.700195312 l 5
844.700195312 594.700195312 m 5
 844.700195312 575.799804688 861.200195312 560.5 881.5 560.5 c 4
 901.799804688 560.5 918.299804688 575.799804688 918.299804688 594.700195312 c 4
 918.299804688 613.599609375 901.799804688 628.900390625 881.5 628.900390625 c 4
 861.200195312 628.900390625 844.700195312 613.599609375 844.700195312 594.700195312 c 5
 844.700195312 594.700195312 l 5
247.5 379.400390625 m 1
 238.299804688 304.400390625 233.5 228.799804688 233.299804688 153 c 0
 231.299804688 37.900390625 322.099609375 -57.5 436.5 -63.2001953125 c 1
 471.099609375 -63.2001953125 l 2
 639.5 -60.7998046875 776 74.7998046875 779 243.700195312 c 1
 864.5 242.200195312 l 1
 864.299804688 233.299804688 863.900390625 224.5 863.200195312 215.799804688 c 2
 863.200195312 -142.200195312 l 1
 779 -142.200195312 l 1
 779 2.5 l 1
 706.400390625 -89.400390625 594.099609375 -148.299804688 468.200195312 -148.799804688 c 2
 440.5 -149.099609375 l 1
 278.599609375 -145.599609375 148.299804688 -13.7998046875 147.400390625 147.299804688 c 0
 147.400390625 224.900390625 152 302.5 161 379.400390625 c 1
 83.7001953125 379.400390625 l 1
 83.7001953125 468.900390625 l 1
 173.599609375 468.900390625 l 1
 188.200195312 558.5 209 647.200195312 235.900390625 734.200195312 c 1
 318 708.900390625 l 1
 293.700195312 630.099609375 274.599609375 549.900390625 260.700195312 468.900390625 c 1
 455.299804688 468.900390625 l 1
 574.599609375 487.299804688 674.299804688 571.799804688 711 688.5 c 1
 786.299804688 664.799804688 l 1
 761.299804688 585.200195312 712.700195312 517.599609375 649.5 468.900390625 c 1
 925.799804688 468.900390625 l 1
 925.799804688 379.400390625 l 1
 247.5 379.400390625 l 1
EndSplineSet
EndChar

StartChar: uniE129
Encoding: 57641 57641 41
Width: 1000
Flags: HW
LayerCount: 2
Fore
SplineSet
810.5 594.700195312 m 5
 810.5 632.5 842.299804688 663.099609375 881.599609375 663.099609375 c 4
 920.799804688 663.099609375 952.700195312 632.5 952.700195312 594.700195312 c 4
 952.700195312 556.900390625 920.900390625 526.299804688 881.599609375 526.299804688 c 4
 842.299804688 526.299804688 810.5 556.900390625 810.5 594.700195312 c 5
 810.5 594.700195312 l 5
844.700195312 594.700195312 m 5
 844.700195312 575.799804688 861.200195312 560.5 881.5 560.5 c 4
 901.799804688 560.5 918.299804688 575.799804688 918.299804688 594.700195312 c 4
 918.299804688 613.599609375 901.799804688 628.900390625 881.5 628.900390625 c 4
 861.200195312 628.900390625 844.700195312 613.599609375 844.700195312 594.700195312 c 5
 844.700195312 594.700195312 l 5
907 -29.099609375 m 0
 930.599609375 -62.5 943.299804688 -102.400390625 943.400390625 -143.400390625 c 1
 856.5 -143.599609375 l 1
 856.400390625 -81.7001953125 806.200195312 -31.7001953125 744.299804688 -31.7998046875 c 0
 721.200195312 -31.900390625 698.200195312 -38.2998046875 679.400390625 -51.599609375 c 2
 604.5 -104.099609375 l 1
 471.099609375 -187.299804688 294.400390625 -152.799804688 202.799804688 -22.7001953125 c 0
 167.700195312 27.2001953125 147.799804688 86.5 147.400390625 147.299804688 c 0
 147.400390625 224.900390625 152 302.5 161 379.400390625 c 1
 83.7001953125 379.400390625 l 1
 83.7001953125 468.900390625 l 1
 173.599609375 468.900390625 l 1
 188.200195312 558.5 209 647.200195312 235.900390625 734.200195312 c 1
 318 708.900390625 l 1
 293.599609375 630.099609375 274.5 549.900390625 260.599609375 468.900390625 c 1
 455.299804688 468.900390625 l 1
 574.599609375 487.299804688 674.299804688 571.799804688 711 688.5 c 1
 786.299804688 664.799804688 l 1
 761.299804688 585.200195312 712.700195312 517.599609375 649.5 468.900390625 c 1
 925.799804688 468.900390625 l 1
 925.799804688 379.400390625 l 1
 247.400390625 379.400390625 l 1
 238.5 306.599609375 233.700195312 233.299804688 233.200195312 159.700195312 c 0
 231.200195312 42.400390625 319.299804688 -56.7998046875 436.200195312 -62.5 c 0
 462.599609375 -63.7998046875 488.700195312 -60.099609375 513.400390625 -51.900390625 c 1
 443.5 -21.099609375 394.599609375 49.400390625 394.599609375 131.599609375 c 0
 394.599609375 242.099609375 483 331.599609375 592 331.599609375 c 0
 701 331.599609375 789.400390625 242.099609375 789.400390625 131.599609375 c 0
 789.400390625 103.700195312 783.799804688 77.099609375 773.599609375 53 c 1
 825.599609375 45.2998046875 874.400390625 17.2001953125 907 -29.099609375 c 0
654.700195312 33.7998046875 m 0
 685.799804688 54.7001953125 706.400390625 90.7001953125 706.400390625 131.599609375 c 0
 706.400390625 196.200195312 655.200195312 248.5 592.099609375 248.5 c 0
 529 248.5 477.799804688 196.200195312 477.799804688 131.599609375 c 0
 477.799804688 67 529 14.7001953125 592.099609375 14.7001953125 c 0
 608.900390625 14.7001953125 624.900390625 18.400390625 639.299804688 25.099609375 c 0
 644.400390625 28.2998046875 649.5 31.2001953125 654.700195312 33.7998046875 c 0
EndSplineSet
EndChar

StartChar: uniE12A
Encoding: 57642 57642 42
Width: 1000
Flags: HW
LayerCount: 2
Fore
SplineSet
810.5 594.700195312 m 5
 810.5 632.5 842.299804688 663.099609375 881.599609375 663.099609375 c 4
 920.799804688 663.099609375 952.700195312 632.5 952.700195312 594.700195312 c 4
 952.700195312 556.900390625 920.900390625 526.299804688 881.599609375 526.299804688 c 4
 842.299804688 526.299804688 810.5 556.900390625 810.5 594.700195312 c 5
 810.5 594.700195312 l 5
844.700195312 594.700195312 m 5
 844.700195312 575.799804688 861.200195312 560.5 881.5 560.5 c 4
 901.799804688 560.5 918.299804688 575.799804688 918.299804688 594.700195312 c 4
 918.299804688 613.599609375 901.799804688 628.900390625 881.5 628.900390625 c 4
 861.200195312 628.900390625 844.700195312 613.599609375 844.700195312 594.700195312 c 5
 844.700195312 594.700195312 l 5
757.900390625 278.900390625 m 0
 757.900390625 302.151367188 775.584960938 321 797.400390625 321 c 0
 819.21484375 321 836.900390625 302.151367188 836.900390625 278.900390625 c 0
 836.900390625 255.6484375 819.21484375 236.799804688 797.400390625 236.799804688 c 0
 775.584960938 236.799804688 757.900390625 255.6484375 757.900390625 278.900390625 c 0
895.514648438 126.4296875 m 0
 873.723632812 127.4453125 856.881835938 145.934570312 857.8984375 167.7265625 c 0
 858.915039062 189.517578125 877.404296875 206.358398438 899.1953125 205.342773438 c 0
 920.986328125 204.326171875 937.828125 185.836914062 936.811523438 164.045898438 c 0
 935.794921875 142.25390625 917.305664062 125.413085938 895.514648438 126.4296875 c 0
715.799804688 230.200195312 m 0
 819.599609375 192.900390625 873.099609375 79.599609375 835.299804688 -22.7998046875 c 0
 797.5 -125.200195312 682.700195312 -178 578.900390625 -140.700195312 c 0
 563.099609375 -135 548 -127.299804688 534.099609375 -117.900390625 c 1
 581.200195312 -50.2998046875 l 1
 634.900390625 -86 708 -72.5 744.599609375 -19.900390625 c 0
 781.200195312 32.5 767.299804688 104.099609375 713.599609375 139.799804688 c 0
 711.299804688 141.299804688 709 142.700195312 706.700195312 144 c 0
 549 219.599609375 359.200195312 153.900390625 283 -2.5 c 0
 268.200195312 -32.7998046875 258.5 -65.099609375 254.099609375 -98.2001953125 c 0
 252.299804688 -111.099609375 251.400390625 -123.900390625 251.400390625 -136.799804688 c 0
 251.400390625 -137.599609375 251.400390625 -138.5 251.400390625 -139.400390625 c 1
 168.5 -139.400390625 l 1
 168.5 -138.599609375 168.5 -137.700195312 168.5 -136.799804688 c 0
 168.5 36.400390625 183.599609375 209.200195312 213.5 379.400390625 c 1
 83.7001953125 379.400390625 l 1
 83.7001953125 468.900390625 l 1
 230.599609375 468.900390625 l 1
 249.299804688 559.200195312 272.200195312 648.700195312 299.299804688 737.099609375 c 1
 380.900390625 712.099609375 l 1
 356.299804688 631.900390625 335.299804688 550.700195312 317.799804688 468.900390625 c 1
 455.299804688 468.900390625 l 1
 574.599609375 487.299804688 674.299804688 571.799804688 711 688.5 c 1
 786.299804688 664.799804688 l 1
 761.299804688 585.200195312 712.700195312 517.599609375 649.5 468.900390625 c 1
 925.799804688 468.900390625 l 1
 925.799804688 379.400390625 l 1
 300.099609375 379.400390625 l 1
 284.599609375 293.400390625 272.900390625 206.700195312 265.099609375 119.599609375 c 1
 338.5 204.299804688 447.099609375 257.900390625 568.400390625 257.900390625 c 0
 618.900390625 257.900390625 669 248.599609375 715.799804688 230.200195312 c 0
EndSplineSet
EndChar

StartChar: uniE12B
Encoding: 57643 57643 43
Width: 1000
Flags: HW
LayerCount: 2
Fore
SplineSet
810.5 594.700195312 m 5
 810.5 632.5 842.299804688 663.099609375 881.599609375 663.099609375 c 4
 920.799804688 663.099609375 952.700195312 632.5 952.700195312 594.700195312 c 4
 952.700195312 556.900390625 920.900390625 526.299804688 881.599609375 526.299804688 c 4
 842.299804688 526.299804688 810.5 556.900390625 810.5 594.700195312 c 5
 810.5 594.700195312 l 5
844.700195312 594.700195312 m 5
 844.700195312 575.799804688 861.200195312 560.5 881.5 560.5 c 4
 901.799804688 560.5 918.299804688 575.799804688 918.299804688 594.700195312 c 4
 918.299804688 613.599609375 901.799804688 628.900390625 881.5 628.900390625 c 4
 861.200195312 628.900390625 844.700195312 613.599609375 844.700195312 594.700195312 c 5
 844.700195312 594.700195312 l 5
925.799804688 379.400390625 m 1
 252.799804688 379.400390625 l 1
 246.299804688 326.900390625 242.099609375 274 240 221 c 1
 276.5 269 334.599609375 300 400 300 c 0
 510.5 300 600 211.599609375 600 102.599609375 c 0
 600 33.099609375 563.5 -28 508.5 -63.2001953125 c 1
 915.799804688 -63.2001953125 l 1
 915.799804688 -147.400390625 l 1
 444.099609375 -147.400390625 l 2
 279.799804688 -143.799804688 149.799804688 -9.7998046875 152.700195312 154.5 c 0
 153 229.700195312 157.5 304.799804688 166.299804688 379.400390625 c 1
 83.7001953125 379.400390625 l 1
 83.7001953125 468.900390625 l 1
 178.799804688 468.900390625 l 1
 193.5 558.5 214.299804688 647.200195312 241.200195312 734.200195312 c 1
 323.299804688 708.900390625 l 1
 298.900390625 630.099609375 279.799804688 549.900390625 265.900390625 468.900390625 c 1
 455.299804688 468.900390625 l 1
 574.599609375 487.299804688 674.299804688 571.799804688 711 688.5 c 1
 786.299804688 664.799804688 l 1
 761.299804688 585.200195312 712.700195312 517.599609375 649.5 468.900390625 c 1
 925.799804688 468.900390625 l 1
 925.799804688 379.400390625 l 1
400 216.900390625 m 0
 335.400390625 216.900390625 283.099609375 165.700195312 283.099609375 102.599609375 c 0
 283.099609375 39.5 335.400390625 -11.7001953125 400 -11.7001953125 c 0
 464.599609375 -11.7001953125 516.900390625 39.5 516.900390625 102.599609375 c 0
 516.900390625 165.700195312 464.599609375 216.900390625 400 216.900390625 c 0
EndSplineSet
EndChar

StartChar: uniE12C
Encoding: 57644 57644 44
Width: 1000
Flags: HW
LayerCount: 2
Fore
SplineSet
810.5 594.700195312 m 5
 810.5 632.5 842.299804688 663.099609375 881.599609375 663.099609375 c 4
 920.799804688 663.099609375 952.700195312 632.5 952.700195312 594.700195312 c 4
 952.700195312 556.900390625 920.900390625 526.299804688 881.599609375 526.299804688 c 4
 842.299804688 526.299804688 810.5 556.900390625 810.5 594.700195312 c 5
 810.5 594.700195312 l 5
844.700195312 594.700195312 m 5
 844.700195312 575.799804688 861.200195312 560.5 881.5 560.5 c 4
 901.799804688 560.5 918.299804688 575.799804688 918.299804688 594.700195312 c 4
 918.299804688 613.599609375 901.799804688 628.900390625 881.5 628.900390625 c 4
 861.200195312 628.900390625 844.700195312 613.599609375 844.700195312 594.700195312 c 5
 844.700195312 594.700195312 l 5
668.400390625 276.299804688 m 0
 668.400390625 298.115234375 686.084960938 315.799804688 707.900390625 315.799804688 c 0
 729.71484375 315.799804688 747.400390625 298.115234375 747.400390625 276.299804688 c 0
 747.400390625 254.484375 729.71484375 236.799804688 707.900390625 236.799804688 c 0
 686.084960938 236.799804688 668.400390625 254.484375 668.400390625 276.299804688 c 0
805.200195312 276.299804688 m 0
 805.200195312 298.115234375 822.884765625 315.799804688 844.700195312 315.799804688 c 0
 866.515625 315.799804688 884.200195312 298.115234375 884.200195312 276.299804688 c 0
 884.200195312 254.484375 866.515625 236.799804688 844.700195312 236.799804688 c 0
 822.884765625 236.799804688 805.200195312 254.484375 805.200195312 276.299804688 c 0
925.799804688 468.900390625 m 1
 925.799804688 379.400390625 l 1
 258.099609375 379.400390625 l 1
 251.599609375 326.900390625 247.400390625 274 245.299804688 221 c 1
 281.799804688 269 339.900390625 300 405.299804688 300 c 0
 515.799804688 300 605.299804688 211.599609375 605.299804688 102.599609375 c 0
 605.299804688 33.099609375 568.799804688 -28 513.799804688 -63.2001953125 c 1
 921 -63.2001953125 l 1
 921 -147.400390625 l 1
 449.5 -147.400390625 l 2
 285.200195312 -143.799804688 155 -9.7998046875 158 154.5 c 0
 158.299804688 229.700195312 162.799804688 304.799804688 171.599609375 379.400390625 c 1
 83.7001953125 379.400390625 l 1
 83.7001953125 468.900390625 l 1
 184.099609375 468.900390625 l 1
 198.799804688 558.5 219.599609375 647.200195312 246.5 734.200195312 c 1
 328.599609375 708.900390625 l 1
 304.200195312 630.099609375 285.099609375 549.900390625 271.200195312 468.900390625 c 1
 455.299804688 468.900390625 l 1
 574.599609375 487.299804688 674.299804688 571.799804688 711 688.5 c 1
 786.299804688 664.799804688 l 1
 761.299804688 585.200195312 712.700195312 517.599609375 649.5 468.900390625 c 1
 925.799804688 468.900390625 l 1
405.299804688 216.900390625 m 0
 340.700195312 216.900390625 288.400390625 165.700195312 288.400390625 102.599609375 c 0
 288.400390625 39.5 340.700195312 -11.7001953125 405.299804688 -11.7001953125 c 0
 469.900390625 -11.7001953125 522.200195312 39.5 522.200195312 102.599609375 c 0
 522.200195312 165.700195312 469.900390625 216.900390625 405.299804688 216.900390625 c 0
EndSplineSet
EndChar

StartChar: uniE12D
Encoding: 57645 57645 45
Width: 1000
Flags: HW
LayerCount: 2
Fore
SplineSet
810.5 594.700195312 m 5
 810.5 632.5 842.299804688 663.099609375 881.599609375 663.099609375 c 4
 920.799804688 663.099609375 952.700195312 632.5 952.700195312 594.700195312 c 4
 952.700195312 556.900390625 920.900390625 526.299804688 881.599609375 526.299804688 c 4
 842.299804688 526.299804688 810.5 556.900390625 810.5 594.700195312 c 5
 810.5 594.700195312 l 5
844.700195312 594.700195312 m 5
 844.700195312 575.799804688 861.200195312 560.5 881.5 560.5 c 4
 901.799804688 560.5 918.299804688 575.799804688 918.299804688 594.700195312 c 4
 918.299804688 613.599609375 901.799804688 628.900390625 881.5 628.900390625 c 4
 861.200195312 628.900390625 844.700195312 613.599609375 844.700195312 594.700195312 c 5
 844.700195312 594.700195312 l 5
742.099609375 321.099609375 m 0
 852.599609375 321.099609375 942.099609375 231.599609375 942.099609375 121.099609375 c 0
 942.099609375 10.599609375 852.599609375 -78.900390625 742.099609375 -78.900390625 c 0
 723.900390625 -78.900390625 706.299804688 -76.5 689.5 -71.900390625 c 1
 689.5 -147.299804688 l 1
 605.299804688 -147.299804688 l 1
 605.299804688 -29.2001953125 l 1
 446.599609375 62.400390625 l 1
 447.099609375 56.599609375 447.400390625 50.7001953125 447.400390625 44.7998046875 c 0
 447.400390625 -64.2001953125 359 -152.599609375 250 -152.599609375 c 0
 141 -152.599609375 52.599609375 -64.099609375 52.599609375 44.900390625 c 0
 52.599609375 153.900390625 141 242.299804688 250 242.299804688 c 0
 269.200195312 242.299804688 287.799804688 239.5 305.299804688 234.400390625 c 1
 305.299804688 379.400390625 l 1
 83.7001953125 379.400390625 l 1
 83.7001953125 468.900390625 l 1
 305.200195312 468.900390625 l 1
 305.200195312 721.200195312 l 1
 389.400390625 721.200195312 l 1
 389.400390625 468.900390625 l 1
 455.299804688 468.900390625 l 1
 574.599609375 487.299804688 674.299804688 571.799804688 711 688.5 c 1
 786.299804688 664.799804688 l 1
 761.299804688 585.200195312 712.700195312 517.599609375 649.5 468.900390625 c 1
 925.799804688 468.900390625 l 1
 925.799804688 379.400390625 l 1
 389.5 379.400390625 l 1
 389.5 194.200195312 l 1
 542.700195312 105.700195312 l 1
 542.299804688 110.799804688 542.099609375 115.900390625 542.099609375 121.099609375 c 0
 542.099609375 231.599609375 631.599609375 321.099609375 742.099609375 321.099609375 c 0
250 -69.599609375 m 0
 313.099609375 -69.599609375 364.299804688 -18.400390625 364.299804688 44.7001953125 c 0
 364.299804688 82.400390625 346 115.799804688 317.900390625 136.700195312 c 1
 295.5 149.599609375 l 2
 281.5 155.599609375 266.200195312 159 250 159 c 0
 186.900390625 159 135.700195312 107.799804688 135.700195312 44.7001953125 c 0
 135.700195312 -18.400390625 186.900390625 -69.599609375 250 -69.599609375 c 0
742.099609375 5.2998046875 m 0
 806.099609375 5.2998046875 857.900390625 57 857.900390625 121 c 0
 857.900390625 185 806 236.799804688 742.099609375 236.799804688 c 0
 678.099609375 236.799804688 626.299804688 184.900390625 626.299804688 121 c 0
 626.299804688 87.2001953125 640.900390625 56.7998046875 664 35.599609375 c 1
 701.5 13.900390625 l 1
 700.900390625 12.7998046875 l 1
 713.700195312 8 727.599609375 5.2998046875 742.099609375 5.2998046875 c 0
EndSplineSet
EndChar

StartChar: uniE12E
Encoding: 57646 57646 46
Width: 1000
Flags: HW
LayerCount: 2
Fore
SplineSet
810.5 594.700195312 m 5
 810.5 632.5 842.299804688 663.099609375 881.599609375 663.099609375 c 4
 920.799804688 663.099609375 952.700195312 632.5 952.700195312 594.700195312 c 4
 952.700195312 556.900390625 920.900390625 526.299804688 881.599609375 526.299804688 c 4
 842.299804688 526.299804688 810.5 556.900390625 810.5 594.700195312 c 5
 810.5 594.700195312 l 5
844.700195312 594.700195312 m 5
 844.700195312 575.799804688 861.200195312 560.5 881.5 560.5 c 4
 901.799804688 560.5 918.299804688 575.799804688 918.299804688 594.700195312 c 4
 918.299804688 613.599609375 901.799804688 628.900390625 881.5 628.900390625 c 4
 861.200195312 628.900390625 844.700195312 613.599609375 844.700195312 594.700195312 c 5
 844.700195312 594.700195312 l 5
865.5 221.599609375 m 2
 875 216.099609375 878.299804688 203.900390625 872.799804688 194.400390625 c 0
 867.299804688 184.900390625 855.099609375 181.599609375 845.599609375 187.099609375 c 2
 707.799804688 266.700195312 l 2
 698.299804688 272.200195312 695 284.400390625 700.5 293.900390625 c 0
 706 303.400390625 718.200195312 306.700195312 727.700195312 301.200195312 c 2
 865.5 221.599609375 l 2
649.5 468.900390625 m 0
 925.799804688 468.900390625 l 1
 925.799804688 379.400390625 l 1
 310.599609375 379.400390625 l 1
 295.099609375 293.700195312 283.5 207.299804688 275.700195312 120.5 c 1
 348.599609375 204.599609375 456.200195312 257.900390625 576.299804688 257.900390625 c 0
 623.799804688 257.900390625 670.900390625 249.299804688 715.200195312 232.799804688 c 0
 727.299804688 228.900390625 738.900390625 223.900390625 749.900390625 217.900390625 c 0
 750.099609375 217.799804688 750.299804688 217.700195312 750.5 217.599609375 c 0
 811.400390625 184 852.599609375 119.200195312 852.599609375 44.7998046875 c 0
 852.599609375 -64.2001953125 764.200195312 -152.599609375 655.200195312 -152.599609375 c 0
 546.200195312 -152.599609375 457.799804688 -64.2001953125 457.799804688 44.7998046875 c 0
 457.799804688 90.2001953125 473.200195312 132 499 165.400390625 c 1
 412.5 143.400390625 335.799804688 84.900390625 293.599609375 -1.599609375 c 0
 278.700195312 -32 268.900390625 -64.599609375 264.5 -98 c 0
 262.200195312 -113.5 261.799804688 -123.799804688 261.799804688 -136.799804688 c 0
 261.799804688 -137.599609375 261.799804688 -138.5 261.799804688 -139.400390625 c 1
 178.900390625 -139.400390625 l 1
 178.900390625 -138.599609375 178.900390625 -137.700195312 178.900390625 -136.799804688 c 0
 178.900390625 36.5 194 209.200195312 223.900390625 379.400390625 c 1
 83.7001953125 379.400390625 l 1
 83.7001953125 468.900390625 l 1
 241 468.900390625 l 1
 259.799804688 559.200195312 282.700195312 648.799804688 309.799804688 737.200195312 c 1
 391.400390625 712.200195312 l 1
 366.799804688 631.900390625 345.799804688 550.799804688 328.299804688 468.900390625 c 1
 455.299804688 468.900390625 l 1
 574.599609375 487.299804688 674.299804688 571.799804688 711 688.5 c 1
 786.299804688 664.799804688 l 1
 761.299804688 585.200195312 712.700195312 517.599609375 649.5 468.900390625 c 0
655.299804688 159 m 0
 592.200195312 159 541 107.900390625 541 44.7998046875 c 0
 541 -18.2998046875 592.200195312 -69.5 655.299804688 -69.5 c 0
 718.400390625 -69.5 769.5 -18.400390625 769.599609375 44.7001953125 c 0
 769.599609375 88.7998046875 744.599609375 127.099609375 708 146.099609375 c 0
 702.900390625 148.5 697.799804688 150.700195312 692.700195312 152.700195312 c 0
 681 156.799804688 668.400390625 159 655.299804688 159 c 0
EndSplineSet
EndChar

StartChar: uniE12F
Encoding: 57647 57647 47
Width: 1000
Flags: HW
LayerCount: 2
Fore
SplineSet
810.5 594.700195312 m 5
 810.5 632.5 842.299804688 663.099609375 881.599609375 663.099609375 c 4
 920.799804688 663.099609375 952.700195312 632.5 952.700195312 594.700195312 c 4
 952.700195312 556.900390625 920.900390625 526.299804688 881.599609375 526.299804688 c 4
 842.299804688 526.299804688 810.5 556.900390625 810.5 594.700195312 c 5
 810.5 594.700195312 l 5
844.700195312 594.700195312 m 5
 844.700195312 575.799804688 861.200195312 560.5 881.5 560.5 c 4
 901.799804688 560.5 918.299804688 575.799804688 918.299804688 594.700195312 c 4
 918.299804688 613.599609375 901.799804688 628.900390625 881.5 628.900390625 c 4
 861.200195312 628.900390625 844.700195312 613.599609375 844.700195312 594.700195312 c 5
 844.700195312 594.700195312 l 5
852.799804688 221.599609375 m 2
 862.299804688 216.099609375 865.599609375 203.900390625 860.099609375 194.400390625 c 0
 854.599609375 184.900390625 842.400390625 181.599609375 832.900390625 187.099609375 c 2
 695.099609375 266.700195312 l 2
 685.599609375 272.200195312 682.299804688 284.400390625 687.799804688 293.900390625 c 0
 693.299804688 303.400390625 705.5 306.700195312 715 301.200195312 c 2
 852.799804688 221.599609375 l 2
649.5 468.900390625 m 0
 925.799804688 468.900390625 l 1
 925.799804688 379.400390625 l 1
 300.099609375 379.400390625 l 1
 284.200195312 291.400390625 272.299804688 202.700195312 264.599609375 113.5 c 1
 337.400390625 201.700195312 447.700195312 257.900390625 571 257.900390625 c 0
 621.5 257.900390625 671.599609375 248.5 718.299804688 229.900390625 c 0
 727.400390625 226.5 736.099609375 222.599609375 744.299804688 218.099609375 c 0
 744.599609375 217.900390625 744.900390625 217.799804688 745.200195312 217.599609375 c 0
 829.5 171.400390625 869.400390625 69.2001953125 835.200195312 -23.5 c 0
 797.5 -125.799804688 684 -178.099609375 581.700195312 -140.299804688 c 0
 565.900390625 -134.5 551 -126.700195312 537.200195312 -117.099609375 c 1
 584.299804688 -49.5 l 1
 636.400390625 -85.7998046875 708.099609375 -73 744.400390625 -20.900390625 c 0
 780.700195312 31.2001953125 767.900390625 102.900390625 715.799804688 139.200195312 c 0
 713.599609375 140.700195312 711.400390625 142.099609375 709.099609375 143.5 c 0
 552.900390625 219.599609375 364.599609375 154.599609375 288.400390625 -1.5 c 0
 267.5 -44.5 256.599609375 -91.599609375 256.599609375 -139.400390625 c 1
 173.700195312 -139.400390625 l 1
 173.700195312 -138.599609375 173.700195312 -137.700195312 173.700195312 -136.799804688 c 0
 173.700195312 36.400390625 187 209.200195312 215.400390625 379.400390625 c 1
 83.7001953125 379.400390625 l 1
 83.7001953125 468.900390625 l 1
 231.799804688 468.900390625 l 1
 249.799804688 559.200195312 272.200195312 648.700195312 299.299804688 737.099609375 c 1
 380.900390625 712.099609375 l 1
 356.299804688 631.900390625 335.299804688 550.700195312 317.799804688 468.900390625 c 1
 455.299804688 468.900390625 l 1
 574.599609375 487.299804688 674.299804688 571.799804688 711 688.5 c 1
 786.299804688 664.799804688 l 1
 761.299804688 585.200195312 712.700195312 517.599609375 649.5 468.900390625 c 0
EndSplineSet
EndChar

StartChar: uniE130
Encoding: 57648 57648 48
Width: 1000
Flags: HW
LayerCount: 2
Fore
SplineSet
810.5 594.700195312 m 5
 810.5 632.5 842.299804688 663.099609375 881.599609375 663.099609375 c 4
 920.799804688 663.099609375 952.700195312 632.5 952.700195312 594.700195312 c 4
 952.700195312 556.900390625 920.900390625 526.299804688 881.599609375 526.299804688 c 4
 842.299804688 526.299804688 810.5 556.900390625 810.5 594.700195312 c 5
 810.5 594.700195312 l 5
844.700195312 594.700195312 m 5
 844.700195312 575.799804688 861.200195312 560.5 881.5 560.5 c 4
 901.799804688 560.5 918.299804688 575.799804688 918.299804688 594.700195312 c 4
 918.299804688 613.599609375 901.799804688 628.900390625 881.5 628.900390625 c 4
 861.200195312 628.900390625 844.700195312 613.599609375 844.700195312 594.700195312 c 5
 844.700195312 594.700195312 l 5
602.599609375 263.099609375 m 2
 760.5 263.099609375 l 2
 770.700195312 263.099609375 778.900390625 254.900390625 778.900390625 244.700195312 c 0
 778.900390625 234.5 770.700195312 226.299804688 760.5 226.299804688 c 2
 602.599609375 226.299804688 l 2
 592.5 226.299804688 584.200195312 234.599609375 584.200195312 244.700195312 c 0
 584.200195312 254.900390625 592.400390625 263.099609375 602.599609375 263.099609375 c 2
913.400390625 18.599609375 m 1
 973 -42.7998046875 l 1
 815.200195312 -195.799804688 563.299804688 -191.799804688 410.400390625 -34 c 0
 409.099609375 -32.599609375 407.799804688 -31.2998046875 406.5 -29.900390625 c 1
 377.099609375 -101.900390625 306.299804688 -152.700195312 223.700195312 -152.700195312 c 0
 114.700195312 -152.700195312 26.2998046875 -64.2998046875 26.2998046875 44.7001953125 c 0
 26.2998046875 153.700195312 114.700195312 242.099609375 223.700195312 242.099609375 c 0
 250.099609375 242.099609375 275.400390625 236.900390625 298.5 227.400390625 c 1
 298.400390625 229.400390625 298.299804688 231.299804688 298.299804688 233.200195312 c 2
 298.799804688 379.400390625 l 1
 83.7001953125 379.400390625 l 1
 83.7001953125 468.900390625 l 1
 299.099609375 468.900390625 l 1
 300 721.099609375 l 1
 384.099609375 721.099609375 l 1
 384.099609375 468.900390625 l 1
 455.299804688 468.900390625 l 1
 574.599609375 487.299804688 674.299804688 571.799804688 711 688.5 c 1
 786.299804688 664.799804688 l 1
 761.299804688 585.200195312 712.700195312 517.599609375 649.5 468.900390625 c 1
 925.799804688 468.900390625 l 1
 925.799804688 379.400390625 l 1
 384.200195312 379.400390625 l 1
 384.200195312 224.400390625 l 1
 394 57.099609375 534.799804688 -73.599609375 703.700195312 -69.400390625 c 0
 782.200195312 -67.400390625 857 -36 913.400390625 18.599609375 c 1
223.700195312 -69.5 m 0
 286.799804688 -69.5 338 -18.400390625 338 44.7001953125 c 0
 338 107.799804688 286.799804688 159 223.700195312 159 c 0
 160.599609375 159 109.400390625 107.900390625 109.400390625 44.7998046875 c 0
 109.400390625 -18.2998046875 160.599609375 -69.5 223.700195312 -69.5 c 0
EndSplineSet
EndChar

StartChar: uniE131
Encoding: 57649 57649 49
Width: 1000
Flags: HW
LayerCount: 2
Fore
SplineSet
810.5 594.700195312 m 5
 810.5 632.5 842.299804688 663.099609375 881.599609375 663.099609375 c 4
 920.799804688 663.099609375 952.700195312 632.5 952.700195312 594.700195312 c 4
 952.700195312 556.900390625 920.900390625 526.299804688 881.599609375 526.299804688 c 4
 842.299804688 526.299804688 810.5 556.900390625 810.5 594.700195312 c 5
 810.5 594.700195312 l 5
844.700195312 594.700195312 m 5
 844.700195312 575.799804688 861.200195312 560.5 881.5 560.5 c 4
 901.799804688 560.5 918.299804688 575.799804688 918.299804688 594.700195312 c 4
 918.299804688 613.599609375 901.799804688 628.900390625 881.5 628.900390625 c 4
 861.200195312 628.900390625 844.700195312 613.599609375 844.700195312 594.700195312 c 5
 844.700195312 594.700195312 l 5
834.200195312 264.200195312 m 2
 844.400390625 264.200195312 852.599609375 255.900390625 852.700195312 245.799804688 c 0
 852.700195312 235.599609375 844.5 227.400390625 834.299804688 227.400390625 c 2
 671.099609375 227.400390625 l 2
 660.900390625 227.400390625 652.700195312 235.599609375 652.700195312 245.799804688 c 0
 652.700195312 256 660.900390625 264.200195312 671.099609375 264.200195312 c 2
 834.200195312 264.200195312 l 2
649.5 468.900390625 m 1
 925.799804688 468.900390625 l 1
 925.799804688 379.400390625 l 1
 299.900390625 379.400390625 l 1
 294.900390625 352 290.400390625 324.400390625 286.200195312 296.799804688 c 1
 315.200195312 312.900390625 348.599609375 322.099609375 384.200195312 322.099609375 c 0
 494.700195312 322.099609375 584.200195312 233.799804688 584.200195312 124.799804688 c 0
 584.200195312 15.7998046875 494.700195312 -72.599609375 384.200195312 -72.599609375 c 0
 335.299804688 -72.599609375 290.5 -55.2998046875 255.799804688 -26.599609375 c 1
 254.400390625 -63 253.700195312 -99.400390625 253.700195312 -135.799804688 c 1
 168.400390625 -135.799804688 l 1
 168.400390625 37.099609375 183.400390625 209.5 213.200195312 379.400390625 c 1
 83.7001953125 379.400390625 l 1
 83.7001953125 468.900390625 l 1
 230.299804688 468.900390625 l 1
 249.099609375 559.599609375 272 649.400390625 299.200195312 738.099609375 c 1
 380.799804688 713.099609375 l 1
 356.099609375 632.599609375 335 551.099609375 317.5 468.900390625 c 1
 455.299804688 468.900390625 l 1
 574.599609375 487.299804688 674.299804688 571.799804688 711 688.5 c 1
 786.299804688 664.799804688 l 1
 761.299804688 585.200195312 712.700195312 517.599609375 649.5 468.900390625 c 1
384.200195312 239 m 0
 319.599609375 239 267.299804688 187.799804688 267.299804688 124.700195312 c 0
 267.299804688 61.599609375 319.599609375 10.400390625 384.200195312 10.400390625 c 0
 448.799804688 10.400390625 501.099609375 61.599609375 501.099609375 124.700195312 c 0
 501.099609375 187.799804688 448.799804688 239 384.200195312 239 c 0
EndSplineSet
EndChar

StartChar: uniE132
Encoding: 57650 57650 50
Width: 1000
Flags: HW
LayerCount: 2
Fore
SplineSet
810.5 594.700195312 m 5
 810.5 632.5 842.299804688 663.099609375 881.599609375 663.099609375 c 4
 920.799804688 663.099609375 952.700195312 632.5 952.700195312 594.700195312 c 4
 952.700195312 556.900390625 920.900390625 526.299804688 881.599609375 526.299804688 c 4
 842.299804688 526.299804688 810.5 556.900390625 810.5 594.700195312 c 5
 810.5 594.700195312 l 5
844.700195312 594.700195312 m 5
 844.700195312 575.799804688 861.200195312 560.5 881.5 560.5 c 4
 901.799804688 560.5 918.299804688 575.799804688 918.299804688 594.700195312 c 4
 918.299804688 613.599609375 901.799804688 628.900390625 881.5 628.900390625 c 4
 861.200195312 628.900390625 844.700195312 613.599609375 844.700195312 594.700195312 c 5
 844.700195312 594.700195312 l 5
868.400390625 310.5 m 2
 880 310.5 889.5 301.099609375 889.5 289.400390625 c 0
 889.5 277.700195312 880 268.299804688 868.400390625 268.299804688 c 2
 710.5 268.299804688 l 2
 698.799804688 268.299804688 689.400390625 277.700195312 689.400390625 289.400390625 c 0
 689.400390625 301.099609375 698.900390625 310.5 710.5 310.5 c 2
 868.400390625 310.5 l 2
649.5 468.900390625 m 1
 925.799804688 468.900390625 l 1
 925.799804688 379.400390625 l 1
 258 379.400390625 l 1
 248.799804688 304.400390625 244 228.799804688 243.799804688 153 c 0
 241.799804688 37.900390625 333.200195312 -57.5 447.599609375 -63 c 1
 482.200195312 -63 l 2
 645.900390625 -60.7998046875 779.5 67.5 789.5 229.700195312 c 2
 790 242.200195312 l 2
 790 242.700195312 790 243.200195312 790 243.700195312 c 1
 874 242.200195312 l 1
 873.799804688 231.200195312 873.900390625 220.599609375 873.799804688 209.700195312 c 2
 873.799804688 -142.200195312 l 1
 789.599609375 -142.200195312 l 1
 789.599609375 1.7998046875 l 1
 716.900390625 -89.7001953125 604.900390625 -148.299804688 479.299804688 -148.799804688 c 2
 451.599609375 -149.099609375 l 1
 289.700195312 -145.599609375 158.799804688 -13.7998046875 157.900390625 147.299804688 c 0
 157.900390625 224.900390625 162.5 302.5 171.5 379.400390625 c 1
 83.7001953125 379.400390625 l 1
 83.7001953125 468.900390625 l 1
 184.099609375 468.900390625 l 1
 198.700195312 558.5 219.5 647.200195312 246.400390625 734.200195312 c 1
 328.5 708.900390625 l 1
 304.200195312 630.099609375 285.099609375 549.900390625 271.200195312 468.900390625 c 1
 455.299804688 468.900390625 l 1
 574.599609375 487.299804688 674.299804688 571.799804688 711 688.5 c 1
 786.299804688 664.799804688 l 1
 761.299804688 585.200195312 712.700195312 517.599609375 649.5 468.900390625 c 1
EndSplineSet
EndChar

StartChar: uniE133
Encoding: 57651 57651 51
Width: 1000
Flags: H
LayerCount: 2
Fore
SplineSet
818.799804688 694.099609375 m 5
 884 711.599609375 l 5
 928.299804688 546.099609375 l 5
 863.099609375 528.599609375 l 5
 818.799804688 694.099609375 l 5
755.799804688 217.599609375 m 1
 816.700195312 184 857.900390625 119.200195312 857.900390625 44.900390625 c 0
 857.900390625 -64.099609375 769.5 -152.5 660.5 -152.5 c 0
 551.5 -152.5 463.099609375 -64.099609375 463.099609375 44.900390625 c 0
 463.099609375 90.2998046875 478.5 132.099609375 504.299804688 165.5 c 1
 417.799804688 143.5 341.099609375 85 298.900390625 -1.5 c 0
 284.5 -31.099609375 274.799804688 -62.7001953125 270.200195312 -95.099609375 c 0
 267.799804688 -109.400390625 267.099609375 -122.900390625 267.099609375 -136.799804688 c 1
 267.099609375 -136.799804688 l 1
 267.099609375 -137.599609375 267.099609375 -138.5 267.099609375 -139.400390625 c 1
 184.200195312 -139.400390625 l 1
 184.200195312 -138.599609375 184.200195312 -137.700195312 184.200195312 -136.799804688 c 1
 184.200195312 -136.799804688 l 1
 184.200195312 71 206 278.299804688 249 481.700195312 c 1
 249 481.700195312 l 1
 281.099609375 642.799804688 436.700195312 747.5 597.700195312 715.299804688 c 0
 707.200195312 693.400390625 795.200195312 612 825.599609375 504.700195312 c 1
 742.599609375 481.200195312 l 1
 710.900390625 593.400390625 594.200195312 658.599609375 482 626.900390625 c 0
 408.099609375 606 352.099609375 546.5 334.5 472.099609375 c 1
 334.5 472.099609375 l 1
 309.599609375 356.200195312 291.900390625 238.900390625 281.400390625 120.900390625 c 1
 354.299804688 204.799804688 461.700195312 257.900390625 581.599609375 257.900390625 c 0
 629.099609375 257.900390625 676.200195312 249.299804688 720.5 232.799804688 c 0
 732.599609375 228.900390625 744.200195312 223.900390625 755.200195312 217.900390625 c 0
 755.400390625 217.799804688 755.599609375 217.700195312 755.799804688 217.599609375 c 1
 755.799804688 217.599609375 l 1
660.5 -69.5 m 0
 723.599609375 -69.5 774.799804688 -18.400390625 774.799804688 44.7001953125 c 0
 774.799804688 88.7998046875 749.799804688 127.099609375 713.200195312 146.099609375 c 0
 708.099609375 148.5 703 150.700195312 697.900390625 152.700195312 c 0
 686.200195312 156.799804688 673.599609375 159 660.5 159 c 0
 597.400390625 159 546.200195312 107.900390625 546.200195312 44.7998046875 c 0
 546.200195312 -18.2998046875 597.400390625 -69.5 660.5 -69.5 c 0
EndSplineSet
EndChar

StartChar: uniE134
Encoding: 57652 57652 52
Width: 1000
Flags: H
LayerCount: 2
Fore
SplineSet
818.799804688 694.099609375 m 5
 884 711.599609375 l 5
 928.299804688 546.099609375 l 5
 863.099609375 528.599609375 l 5
 818.799804688 694.099609375 l 5
750.5 217.599609375 m 1
 834.700195312 171.400390625 874.700195312 69.2001953125 840.599609375 -23.5 c 0
 802.900390625 -125.799804688 689.400390625 -178.099609375 587.099609375 -140.299804688 c 0
 571.299804688 -134.5 556.400390625 -126.700195312 542.599609375 -117.099609375 c 1
 589.700195312 -49.5 l 1
 641.799804688 -85.7998046875 713.5 -73 749.799804688 -20.900390625 c 0
 786.099609375 31.2001953125 773.299804688 102.900390625 721.200195312 139.200195312 c 0
 719 140.700195312 716.799804688 142.099609375 714.5 143.5 c 1
 714.5 143.5 l 1
 558.299804688 219.599609375 370 154.599609375 293.799804688 -1.5 c 0
 272.900390625 -44.5 262 -91.599609375 262 -139.400390625 c 1
 179.099609375 -139.400390625 l 1
 179.099609375 -138.599609375 179.099609375 -137.700195312 179.099609375 -136.799804688 c 1
 179.099609375 -136.799804688 l 1
 179.099609375 71.2001953125 195.5 278.700195312 238.700195312 482.200195312 c 1
 238.700195312 482.200195312 l 1
 271.400390625 643.200195312 428.5 747.599609375 590.900390625 715.200195312 c 0
 700.900390625 693.299804688 789.299804688 612.299804688 820.099609375 505.299804688 c 1
 737.099609375 481.799804688 l 1
 704.599609375 593.900390625 586.200195312 658.799804688 472.700195312 626.700195312 c 0
 398.299804688 605.599609375 342.099609375 546.5 324.200195312 472.599609375 c 1
 324.200195312 472.599609375 l 1
 298.799804688 354.299804688 280.799804688 234.5 270.299804688 114.099609375 c 1
 343.200195312 201.900390625 453.200195312 257.900390625 576.299804688 257.900390625 c 0
 626.799804688 257.900390625 676.900390625 248.5 723.599609375 229.900390625 c 1
 723.599609375 229.900390625 l 1
 732.700195312 226.5 741.400390625 222.599609375 749.599609375 218.099609375 c 0
 749.900390625 217.900390625 750.200195312 217.799804688 750.5 217.599609375 c 1
 750.5 217.599609375 l 1
EndSplineSet
EndChar

StartChar: uniE135
Encoding: 57653 57653 53
Width: 1000
Flags: H
LayerCount: 2
Fore
SplineSet
856.5 741 m 5
 921.700195312 758.5 l 5
 966 593 l 5
 900.799804688 575.5 l 5
 856.5 741 l 5
918.5 18.599609375 m 1
 978 -42.7998046875 l 1
 820.200195312 -195.799804688 568.299804688 -191.799804688 415.400390625 -34 c 0
 414.200195312 -32.7001953125 412.900390625 -31.400390625 411.700195312 -30.099609375 c 1
 382.299804688 -102.099609375 311.599609375 -152.799804688 229 -152.799804688 c 0
 120 -152.799804688 31.599609375 -64.400390625 31.599609375 44.599609375 c 0
 31.599609375 153.599609375 120 242 229 242 c 0
 255.400390625 242 280.599609375 236.799804688 303.599609375 227.400390625 c 1
 303.5 229.299804688 303.400390625 231.200195312 303.400390625 233.099609375 c 1
 303.400390625 233.099609375 l 1
 305.299804688 431.5 l 1
 305.400390625 431.5 l 1
 309.5 590.599609375 438.799804688 719.200195312 599.200195312 721 c 0
 733.5 722.599609375 852.200195312 633.900390625 888.799804688 504.599609375 c 1
 805.799804688 481.099609375 l 1
 774.099609375 593.299804688 657.400390625 658.5 545.200195312 626.799804688 c 0
 453.400390625 600.900390625 388.400390625 516.599609375 389.5 421.200195312 c 1
 389.5 421.200195312 l 1
 389.5 221.299804688 l 1
 400.900390625 55.5 541 -73.5 708.799804688 -69.400390625 c 0
 787.299804688 -67.400390625 862.099609375 -36 918.5 18.599609375 c 1
343.200195312 44.7001953125 m 0
 343.200195312 59.599609375 340.400390625 73.7998046875 335.099609375 86.7998046875 c 0
 334.599609375 88.2001953125 334 89.599609375 333.400390625 91 c 0
 315.700195312 131 275.599609375 159 228.900390625 159 c 0
 165.799804688 159 114.599609375 107.799804688 114.599609375 44.7001953125 c 0
 114.599609375 -18.400390625 165.799804688 -69.599609375 228.900390625 -69.599609375 c 0
 292 -69.599609375 343.200195312 -18.400390625 343.200195312 44.7001953125 c 0
EndSplineSet
EndChar

StartChar: uniE136
Encoding: 57654 57654 54
Width: 1000
Flags: H
LayerCount: 2
Fore
SplineSet
818.799804688 694.099609375 m 5
 884 711.599609375 l 5
 928.299804688 546.099609375 l 5
 863.099609375 528.599609375 l 5
 818.799804688 694.099609375 l 5
590.799804688 715.200195312 m 0
 700.799804688 693.200195312 789.299804688 612.200195312 820.299804688 505.400390625 c 1
 737.299804688 481.900390625 l 1
 704.799804688 594 586.400390625 658.900390625 472.900390625 626.799804688 c 0
 398.5 605.700195312 342.299804688 546.599609375 324.400390625 472.700195312 c 1
 324.400390625 472.700195312 l 1
 311.799804688 414.099609375 301 355.200195312 292.099609375 296.099609375 c 1
 320.900390625 312 354.200195312 321.099609375 389.599609375 321.099609375 c 0
 500.099609375 321.099609375 589.599609375 232.700195312 589.599609375 123.700195312 c 0
 589.599609375 14.7001953125 500.099609375 -73.7001953125 389.599609375 -73.7001953125 c 0
 340.900390625 -73.7001953125 296.299804688 -56.5 261.599609375 -28 c 1
 260.200195312 -64.2001953125 259.5 -100.5 259.5 -136.799804688 c 1
 173.700195312 -136.799804688 l 1
 173.700195312 71.2001953125 195.400390625 278.700195312 238.599609375 482.200195312 c 1
 238.599609375 482.200195312 l 1
 271.299804688 643.200195312 428.400390625 747.599609375 590.799804688 715.200195312 c 0
389.5 237.900390625 m 0
 324.900390625 237.900390625 272.599609375 186.799804688 272.599609375 123.700195312 c 0
 272.599609375 60.599609375 325 9.400390625 389.5 9.400390625 c 0
 454 9.400390625 506.400390625 60.5 506.400390625 123.599609375 c 0
 506.400390625 186.700195312 454.099609375 237.900390625 389.5 237.900390625 c 0
EndSplineSet
EndChar

StartChar: uniE137
Encoding: 57655 57655 55
Width: 1000
Flags: H
LayerCount: 2
Fore
SplineSet
818.799804688 694.099609375 m 5
 884 711.599609375 l 5
 928.299804688 546.099609375 l 5
 863.099609375 528.599609375 l 5
 818.799804688 694.099609375 l 5
862.599609375 208 m 1
 949.5 161.799804688 991.099609375 57.2998046875 956.200195312 -37.7998046875 c 0
 917.900390625 -141.400390625 802.900390625 -194.400390625 699.299804688 -156.099609375 c 0
 673.799804688 -146.700195312 650.5 -132.200195312 630.900390625 -113.599609375 c 1
 581.299804688 -136 526.299804688 -148.599609375 468.400390625 -148.799804688 c 1
 468.400390625 -148.799804688 l 1
 440.700195312 -149.099609375 l 1
 440.700195312 -149.099609375 l 1
 278.900390625 -145.599609375 148.400390625 -13.7998046875 147.5 147.299804688 c 1
 147.5 147.299804688 l 1
 147.5 259.5 157 371.5 175.900390625 482.099609375 c 1
 175.900390625 482.099609375 l 1
 208.599609375 643.099609375 365.400390625 747.599609375 527.799804688 715.200195312 c 0
 637.799804688 693.299804688 726.200195312 612.299804688 757 505.299804688 c 1
 674 481.799804688 l 1
 641.5 593.900390625 523.099609375 658.799804688 409.599609375 626.700195312 c 0
 338.200195312 606.5 282.799804688 551.200195312 262.799804688 481.200195312 c 1
 243.5 372.799804688 233.599609375 263 233.299804688 153 c 1
 233.299804688 153 l 1
 231.200195312 37.900390625 322.299804688 -57.5 436.599609375 -63.2001953125 c 1
 471.200195312 -63.2001953125 l 2
 639.599609375 -60.900390625 776.200195312 74.7998046875 779.099609375 243.599609375 c 1
 864.599609375 242.099609375 l 1
 864.400390625 230.599609375 863.799804688 219.200195312 862.599609375 208 c 1
841.5 -58.7998046875 m 0
 891.5 -18.5 899.200195312 54.7998046875 858.700195312 104.700195312 c 0
 854.099609375 110.400390625 848.900390625 115.700195312 843.299804688 120.400390625 c 1
 817.5 44.900390625 769.700195312 -20.2998046875 707.599609375 -67.599609375 c 1
 748.400390625 -92.5 802.200195312 -90.599609375 841.5 -58.7998046875 c 0
EndSplineSet
EndChar

StartChar: uniE138
Encoding: 57656 57656 56
Width: 1000
Flags: H
LayerCount: 2
Fore
SplineSet
818.799804688 694.099609375 m 5
 884 711.599609375 l 5
 928.299804688 546.099609375 l 5
 863.099609375 528.599609375 l 5
 818.799804688 694.099609375 l 5
789.5 300 m 1
 873.700195312 300 l 1
 873.700195312 -147.400390625 l 1
 789.5 -147.400390625 l 1
 789.5 5.7001953125 l 1
 717 -88 603.599609375 -148.299804688 476.200195312 -148.799804688 c 1
 476.200195312 -148.799804688 l 1
 448.5 -149.099609375 l 1
 448.5 -149.099609375 l 1
 284.200195312 -145.5 155 -9.7998046875 157.900390625 154.5 c 1
 157.900390625 154.5 l 1
 158.299804688 264.099609375 167.799804688 373.5 186.200195312 481.599609375 c 1
 186.200195312 481.599609375 l 1
 218.400390625 642.700195312 373.5 747.5 534.599609375 715.299804688 c 0
 644.099609375 693.400390625 732.099609375 612 762.5 504.599609375 c 1
 679.5 481.099609375 l 1
 647.799804688 593.299804688 531.099609375 658.5 418.900390625 626.799804688 c 0
 348 606.799804688 293.200195312 551.299804688 273.299804688 481.200195312 c 1
 273.299804688 481.200195312 l 1
 253.700195312 371 243.799804688 259.200195312 243.799804688 147.299804688 c 1
 243.799804688 147.299804688 l 1
 244.700195312 34.7001953125 332.099609375 -57.7001953125 444.5 -63.2001953125 c 1
 479.099609375 -63.2001953125 l 2
 496.799804688 -63 514.099609375 -61.2998046875 531 -58.2001953125 c 1
 460.200195312 -28.2998046875 410.5 41.900390625 410.5 123.599609375 c 0
 410.5 232.599609375 498.900390625 321 607.900390625 321 c 0
 685.400390625 321 752.5 276.299804688 784.799804688 211.299804688 c 1
 786.099609375 221.900390625 788.299804688 232.700195312 788.5 243.599609375 c 1
 788.5 243.599609375 l 1
 789.5 300 l 1
493.599609375 123.700195312 m 0
 493.599609375 60.599609375 544.799804688 9.400390625 607.900390625 9.400390625 c 0
 671 9.400390625 722.200195312 60.599609375 722.200195312 123.700195312 c 0
 722.200195312 186.799804688 671 238 607.900390625 238 c 0
 544.799804688 238 493.599609375 186.799804688 493.599609375 123.700195312 c 0
EndSplineSet
EndChar

StartChar: uniE139
Encoding: 57657 57657 57
Width: 1000
Flags: H
LayerCount: 2
Fore
SplineSet
818.799804688 694.099609375 m 5
 884 711.599609375 l 5
 928.299804688 546.099609375 l 5
 863.099609375 528.599609375 l 5
 818.799804688 694.099609375 l 5
864.5 242.200195312 m 1
 864.299804688 233.299804688 863.900390625 224.5 863.200195312 215.799804688 c 2
 863.200195312 -142.099609375 l 1
 779 -142.099609375 l 1
 779 2.599609375 l 1
 706.400390625 -89.2998046875 594.099609375 -148.200195312 468.200195312 -148.700195312 c 1
 468.200195312 -148.700195312 l 1
 440.5 -149 l 1
 440.5 -149 l 1
 278.599609375 -145.5 148.299804688 -13.7001953125 147.400390625 147.400390625 c 1
 147.400390625 147.400390625 l 1
 147.400390625 264.400390625 157.700195312 381.099609375 178.200195312 496.299804688 c 1
 178.200195312 496.299804688 l 1
 216.200195312 649.599609375 372.799804688 746.599609375 529.299804688 715.299804688 c 0
 638.799804688 693.400390625 726.799804688 612 757.200195312 504.599609375 c 1
 674.200195312 481.099609375 l 1
 642.5 593.299804688 525.799804688 658.5 413.599609375 626.799804688 c 0
 337.299804688 605.299804688 275.599609375 543.5 260.099609375 465.799804688 c 1
 260.099609375 465.799804688 l 1
 242.599609375 362.5 233.599609375 257.799804688 233.299804688 153 c 1
 233.299804688 153 l 1
 231.200195312 37.900390625 322.099609375 -57.5 436.5 -63.2001953125 c 1
 471.099609375 -63.2001953125 l 2
 639.5 -60.7998046875 776 74.7998046875 779 243.700195312 c 1
 864.5 242.200195312 l 1
EndSplineSet
EndChar

StartChar: uniE13A
Encoding: 57658 57658 58
Width: 1000
Flags: H
LayerCount: 2
Fore
SplineSet
818.799804688 694.099609375 m 5
 884 711.599609375 l 5
 928.299804688 546.099609375 l 5
 863.099609375 528.599609375 l 5
 818.799804688 694.099609375 l 5
907 -29.099609375 m 0
 930.599609375 -62.5 943.299804688 -102.400390625 943.299804688 -143.400390625 c 1
 856.400390625 -143.599609375 l 1
 856.299804688 -81.7001953125 806.099609375 -31.7001953125 744.200195312 -31.7998046875 c 0
 721.099609375 -31.900390625 698.099609375 -38.2998046875 679.299804688 -51.599609375 c 1
 679.299804688 -51.599609375 l 1
 604.400390625 -104.099609375 l 1
 604.400390625 -104.099609375 l 1
 471 -187.299804688 294.299804688 -152.799804688 202.700195312 -22.7001953125 c 0
 167.599609375 27.2001953125 147.700195312 86.5 147.299804688 147.299804688 c 1
 147.299804688 147.299804688 l 1
 147.299804688 259.5 156.799804688 371.5 175.700195312 482.099609375 c 1
 175.700195312 482.099609375 l 1
 208.400390625 643.099609375 365.200195312 747.599609375 527.599609375 715.200195312 c 0
 637.599609375 693.299804688 726 612.299804688 756.799804688 505.299804688 c 1
 673.799804688 481.799804688 l 1
 641.299804688 593.900390625 522.900390625 658.799804688 409.400390625 626.700195312 c 0
 338 606.5 282.599609375 551.200195312 262.599609375 481.200195312 c 1
 243.599609375 375.099609375 233.799804688 267.5 233.099609375 159.700195312 c 1
 233.099609375 159.700195312 l 1
 231 44.5 319.299804688 -56.7998046875 436.200195312 -62.5 c 0
 462.599609375 -63.7998046875 488.700195312 -60.099609375 513.400390625 -51.900390625 c 1
 443.5 -21.099609375 394.599609375 49.400390625 394.599609375 131.599609375 c 0
 394.599609375 242.099609375 483 331.599609375 592 331.599609375 c 0
 701 331.599609375 789.400390625 242.099609375 789.400390625 131.599609375 c 0
 789.400390625 103.700195312 783.799804688 77.099609375 773.599609375 53 c 1
 825.599609375 45.2998046875 874.400390625 17.2001953125 907 -29.099609375 c 0
477.799804688 131.599609375 m 0
 477.799804688 67 529 14.7001953125 592.099609375 14.7001953125 c 0
 608.900390625 14.7001953125 624.900390625 18.400390625 639.299804688 25.099609375 c 0
 644.400390625 28.2998046875 649.5 31.2001953125 654.700195312 33.7998046875 c 0
 685.799804688 54.7001953125 706.400390625 90.7001953125 706.400390625 131.599609375 c 0
 706.400390625 196.200195312 655.200195312 248.5 592.099609375 248.5 c 0
 529 248.5 477.799804688 196.200195312 477.799804688 131.599609375 c 0
EndSplineSet
EndChar

StartChar: uniE13B
Encoding: 57659 57659 59
Width: 1000
Flags: H
LayerCount: 2
Fore
SplineSet
818.799804688 694.099609375 m 5
 884 711.599609375 l 5
 928.299804688 546.099609375 l 5
 863.099609375 528.599609375 l 5
 818.799804688 694.099609375 l 5
757.900390625 278.900390625 m 0
 757.900390625 302.151367188 775.584960938 321 797.400390625 321 c 0
 819.21484375 321 836.900390625 302.151367188 836.900390625 278.900390625 c 0
 836.900390625 255.6484375 819.21484375 236.799804688 797.400390625 236.799804688 c 0
 775.584960938 236.799804688 757.900390625 255.6484375 757.900390625 278.900390625 c 0
882.282226562 129.3359375 m 0
 862.126953125 137.685546875 852.555664062 160.791992188 860.904296875 180.947265625 c 0
 869.252929688 201.102539062 892.360351562 210.672851562 912.515625 202.32421875 c 0
 932.670898438 193.975585938 942.241210938 170.869140625 933.892578125 150.713867188 c 0
 925.543945312 130.55859375 902.4375 120.987304688 882.282226562 129.3359375 c 0
715.799804688 230.200195312 m 1
 819.599609375 192.900390625 873.099609375 79.599609375 835.299804688 -22.7998046875 c 0
 797.5 -125.200195312 682.700195312 -178 578.900390625 -140.700195312 c 0
 563.099609375 -135 548 -127.299804688 534.099609375 -117.900390625 c 1
 581.200195312 -50.2998046875 l 1
 634.900390625 -86 708 -72.5 744.599609375 -19.900390625 c 0
 781.200195312 32.5 767.299804688 104.099609375 713.599609375 139.799804688 c 0
 711.299804688 141.299804688 709 142.700195312 706.700195312 144 c 1
 706.700195312 144 l 1
 549 219.599609375 359.200195312 153.900390625 282.900390625 -2.5 c 0
 268.599609375 -31.7998046875 259 -63.2001953125 254.400390625 -95.2998046875 c 0
 252.400390625 -109.299804688 251.299804688 -123 251.299804688 -136.799804688 c 1
 251.299804688 -136.799804688 l 1
 251.299804688 -137.599609375 251.299804688 -138.5 251.299804688 -139.400390625 c 1
 168.400390625 -139.400390625 l 1
 168.400390625 -138.599609375 168.400390625 -137.700195312 168.400390625 -136.799804688 c 1
 168.400390625 -136.799804688 l 1
 168.400390625 71 190.200195312 278.299804688 233.200195312 481.700195312 c 1
 233.200195312 481.700195312 l 1
 265.299804688 642.799804688 420.799804688 747.5 581.900390625 715.299804688 c 0
 691.400390625 693.400390625 779.400390625 612 809.799804688 504.700195312 c 1
 726.799804688 481.200195312 l 1
 695.099609375 593.400390625 578.400390625 658.599609375 466.200195312 626.900390625 c 0
 392.299804688 606 336.299804688 546.5 318.700195312 472.099609375 c 1
 318.700195312 472.099609375 l 1
 293.799804688 355.900390625 276 238.299804688 265.5 120.099609375 c 1
 338.900390625 204.5 447.299804688 257.900390625 568.400390625 257.900390625 c 0
 618.900390625 257.900390625 669 248.599609375 715.799804688 230.200195312 c 1
 715.799804688 230.200195312 l 1
EndSplineSet
EndChar

StartChar: uniE13C
Encoding: 57660 57660 60
Width: 1000
Flags: H
LayerCount: 2
Fore
SplineSet
818.799804688 694.099609375 m 5
 884 711.599609375 l 5
 928.299804688 546.099609375 l 5
 863.099609375 528.599609375 l 5
 818.799804688 694.099609375 l 5
915.799804688 -63.2001953125 m 1
 915.700195312 -63.2001953125 l 1
 915.700195312 -147.400390625 l 1
 444 -147.400390625 l 1
 444 -147.400390625 l 1
 279.700195312 -143.799804688 149.700195312 -9.7998046875 152.599609375 154.5 c 1
 152.599609375 154.5 l 1
 153 264.299804688 162.5 373.900390625 181 482.099609375 c 1
 181 482.099609375 l 1
 213.700195312 643.099609375 370.5 747.599609375 533 715.200195312 c 0
 643 693.299804688 731.400390625 612.299804688 762.200195312 505.299804688 c 1
 679.200195312 481.799804688 l 1
 646.700195312 593.900390625 528.299804688 658.799804688 414.799804688 626.700195312 c 0
 343.400390625 606.5 288 551.200195312 268 481.200195312 c 1
 252.700195312 395.200195312 243.299804688 308.299804688 239.900390625 221 c 1
 276.400390625 269 334.5 300 400 300 c 0
 510.5 300 600 211.599609375 600 102.599609375 c 0
 600 33.099609375 563.5 -28 508.5 -63.2001953125 c 1
 915.799804688 -63.2001953125 l 1
400 216.900390625 m 0
 335.400390625 216.900390625 283.099609375 165.799804688 283.099609375 102.700195312 c 0
 283.099609375 39.599609375 335.400390625 -11.599609375 400 -11.599609375 c 0
 464.599609375 -11.599609375 516.900390625 39.5 516.900390625 102.599609375 c 0
 516.900390625 165.700195312 464.599609375 216.900390625 400 216.900390625 c 0
EndSplineSet
EndChar

StartChar: uniE13D
Encoding: 57661 57661 61
Width: 1000
Flags: H
LayerCount: 2
Fore
SplineSet
818.799804688 694.099609375 m 5
 884 711.599609375 l 5
 928.299804688 546.099609375 l 5
 863.099609375 528.599609375 l 5
 818.799804688 694.099609375 l 5
668.930664062 269.979492188 m 0
 665.435546875 291.512695312 680.05859375 311.802734375 701.592773438 315.297851562 c 0
 723.126953125 318.791992188 743.416015625 304.168945312 746.911132812 282.634765625 c 0
 750.40625 261.1015625 735.782226562 240.811523438 714.248046875 237.31640625 c 0
 692.71484375 233.821289062 672.424804688 248.4453125 668.930664062 269.979492188 c 0
805.200195312 276.299804688 m 0
 805.200195312 298.115234375 822.884765625 315.799804688 844.700195312 315.799804688 c 0
 866.515625 315.799804688 884.200195312 298.115234375 884.200195312 276.299804688 c 0
 884.200195312 254.484375 866.515625 236.799804688 844.700195312 236.799804688 c 0
 822.884765625 236.799804688 805.200195312 254.484375 805.200195312 276.299804688 c 0
921.099609375 -63.2001953125 m 1
 921 -63.2001953125 l 1
 921 -147.400390625 l 1
 449.5 -147.400390625 l 1
 449.5 -147.400390625 l 1
 285.200195312 -143.799804688 155 -9.7998046875 157.900390625 154.5 c 1
 157.900390625 154.5 l 1
 158.299804688 264.299804688 167.799804688 373.900390625 186.299804688 482.099609375 c 1
 186.299804688 482.099609375 l 1
 219 643.099609375 375.799804688 747.599609375 538.299804688 715.200195312 c 0
 648.299804688 693.299804688 736.700195312 612.299804688 767.5 505.299804688 c 1
 684.5 481.799804688 l 1
 652 593.900390625 533.599609375 658.799804688 420.099609375 626.700195312 c 0
 348.700195312 606.5 293.299804688 551.200195312 273.299804688 481.200195312 c 1
 258 395.200195312 248.599609375 308.299804688 245.200195312 221 c 1
 281.700195312 269 339.799804688 300 405.299804688 300 c 0
 515.799804688 300 605.299804688 211.599609375 605.299804688 102.599609375 c 0
 605.299804688 33.099609375 568.799804688 -28 513.799804688 -63.2001953125 c 1
 921.099609375 -63.2001953125 l 1
405.299804688 216.900390625 m 0
 340.700195312 216.900390625 288.400390625 165.700195312 288.400390625 102.599609375 c 0
 288.400390625 39.5 340.700195312 -11.7001953125 405.299804688 -11.7001953125 c 0
 469.900390625 -11.7001953125 522.200195312 39.5 522.200195312 102.599609375 c 0
 522.200195312 165.700195312 469.900390625 216.900390625 405.299804688 216.900390625 c 0
EndSplineSet
EndChar

StartChar: uniE13E
Encoding: 57662 57662 62
Width: 1000
Flags: H
LayerCount: 2
Fore
SplineSet
856.5 741 m 5
 921.700195312 758.5 l 5
 966 593 l 5
 900.799804688 575.5 l 5
 856.5 741 l 5
742.099609375 321.099609375 m 0
 852.599609375 321.099609375 942.099609375 231.599609375 942.099609375 121.099609375 c 0
 942.099609375 10.599609375 852.599609375 -78.900390625 742.099609375 -78.900390625 c 0
 723.900390625 -78.900390625 706.299804688 -76.5 689.5 -71.900390625 c 1
 689.5 -147.299804688 l 1
 605.299804688 -147.299804688 l 1
 605.299804688 -29.2001953125 l 1
 446.599609375 62.400390625 l 1
 447.099609375 56.599609375 447.400390625 50.7001953125 447.400390625 44.7998046875 c 0
 447.400390625 -64.2001953125 359 -152.599609375 250 -152.599609375 c 0
 141 -152.599609375 52.599609375 -64.2998046875 52.599609375 44.7001953125 c 0
 52.599609375 153.700195312 141 242.099609375 250 242.099609375 c 0
 269.200195312 242.099609375 287.799804688 239.299804688 305.299804688 234.200195312 c 1
 305.299804688 431.5 l 1
 305.299804688 431.5 l 1
 309.400390625 590.599609375 438.799804688 719.200195312 599.200195312 721 c 0
 733.5 722.599609375 852.200195312 633.900390625 888.799804688 504.599609375 c 1
 805.799804688 481.099609375 l 1
 774.099609375 593.299804688 657.400390625 658.5 545.200195312 626.799804688 c 0
 453.400390625 600.900390625 388.400390625 516.599609375 389.5 421.200195312 c 1
 389.5 421.200195312 l 1
 389.5 194.200195312 l 1
 542.700195312 105.700195312 l 1
 542.299804688 110.799804688 542.099609375 115.900390625 542.099609375 121.099609375 c 0
 542.099609375 231.599609375 631.599609375 321.099609375 742.099609375 321.099609375 c 0
364.299804688 44.7001953125 m 0
 364.299804688 82.400390625 346 115.799804688 317.900390625 136.700195312 c 1
 295.5 149.599609375 l 2
 281.5 155.599609375 266.200195312 159 250 159 c 0
 186.900390625 159 135.700195312 107.799804688 135.700195312 44.7001953125 c 0
 135.700195312 -18.400390625 186.900390625 -69.599609375 250 -69.599609375 c 0
 313.099609375 -69.599609375 364.299804688 -18.400390625 364.299804688 44.7001953125 c 0
742.099609375 5.2998046875 m 0
 806.099609375 5.2998046875 857.799804688 57 857.799804688 121 c 0
 857.799804688 185 805.900390625 236.799804688 742 236.799804688 c 0
 678 236.799804688 626.200195312 184.900390625 626.200195312 121 c 0
 626.200195312 87.2001953125 640.799804688 56.7998046875 663.900390625 35.599609375 c 2
 680.799804688 21.599609375 l 1
 700.900390625 12.7998046875 l 2
 713.700195312 8 727.599609375 5.2998046875 742.099609375 5.2998046875 c 0
EndSplineSet
EndChar

StartChar: uniE13F
Encoding: 57663 57663 63
Width: 1000
Flags: H
LayerCount: 2
Fore
SplineSet
818.799804688 694.099609375 m 5
 884 711.599609375 l 5
 928.299804688 546.099609375 l 5
 863.099609375 528.599609375 l 5
 818.799804688 694.099609375 l 5
865.5 221.599609375 m 2
 875 216.099609375 878.299804688 203.900390625 872.799804688 194.400390625 c 0
 867.299804688 184.900390625 855.099609375 181.599609375 845.599609375 187.099609375 c 2
 707.799804688 266.700195312 l 2
 698.299804688 272.200195312 695 284.400390625 700.5 293.900390625 c 0
 706 303.400390625 718.200195312 306.700195312 727.700195312 301.200195312 c 2
 865.5 221.599609375 l 2
750.5 217.599609375 m 1
 811.400390625 184 852.599609375 119.200195312 852.700195312 44.900390625 c 0
 852.700195312 -64.099609375 764.299804688 -152.5 655.299804688 -152.5 c 0
 546.299804688 -152.5 457.900390625 -64.099609375 457.900390625 44.900390625 c 0
 457.900390625 90.2998046875 473.299804688 132.099609375 499.099609375 165.5 c 1
 412.599609375 143.5 335.900390625 85 293.700195312 -1.5 c 0
 279.400390625 -30.900390625 269.700195312 -62.2998046875 265.099609375 -94.5 c 0
 262.900390625 -108 261.900390625 -122.700195312 261.900390625 -136.799804688 c 1
 261.900390625 -136.799804688 l 1
 261.900390625 -137.599609375 261.900390625 -138.5 261.900390625 -139.400390625 c 1
 179 -139.400390625 l 1
 179 -138.599609375 179 -137.700195312 179 -136.799804688 c 1
 179 -136.799804688 l 1
 179 71 200.700195312 278.299804688 243.799804688 481.700195312 c 1
 243.799804688 481.700195312 l 1
 276 642.799804688 431.400390625 747.5 592.5 715.299804688 c 0
 702 693.400390625 790 612 820.400390625 504.700195312 c 1
 737.400390625 481.200195312 l 1
 705.700195312 593.400390625 589 658.599609375 476.799804688 626.900390625 c 0
 403 606 347.200195312 546.799804688 329.5 472.599609375 c 1
 329.5 472.599609375 l 1
 304.5 356.5 286.700195312 239.099609375 276.200195312 121 c 1
 349.099609375 204.900390625 456.5 257.900390625 576.299804688 257.900390625 c 0
 623.799804688 257.900390625 670.900390625 249.299804688 715.200195312 232.799804688 c 0
 727.299804688 228.900390625 738.900390625 223.900390625 749.900390625 217.900390625 c 0
 750.099609375 217.799804688 750.299804688 217.700195312 750.5 217.599609375 c 1
 750.5 217.599609375 l 1
655.299804688 -69.5 m 0
 718.400390625 -69.5 769.5 -18.400390625 769.599609375 44.7001953125 c 0
 769.599609375 88.7998046875 744.599609375 127.099609375 708 146.099609375 c 0
 702.900390625 148.5 697.799804688 150.700195312 692.700195312 152.700195312 c 0
 681 156.799804688 668.400390625 159 655.299804688 159 c 0
 592.200195312 159 541 107.900390625 541 44.7998046875 c 0
 541 -18.2998046875 592.200195312 -69.5 655.299804688 -69.5 c 0
EndSplineSet
EndChar

StartChar: uniE140
Encoding: 57664 57664 64
Width: 1000
Flags: H
LayerCount: 2
Fore
SplineSet
818.799804688 694.099609375 m 5
 884 711.599609375 l 5
 928.299804688 546.099609375 l 5
 863.099609375 528.599609375 l 5
 818.799804688 694.099609375 l 5
852.799804688 221.599609375 m 2
 862.299804688 216.099609375 865.599609375 203.900390625 860.099609375 194.400390625 c 0
 854.599609375 184.900390625 842.400390625 181.599609375 832.900390625 187.099609375 c 2
 695.099609375 266.700195312 l 2
 685.599609375 272.200195312 682.299804688 284.400390625 687.799804688 293.900390625 c 0
 693.299804688 303.400390625 705.5 306.700195312 715 301.200195312 c 2
 852.799804688 221.599609375 l 2
745.200195312 217.599609375 m 1
 829.5 171.400390625 869.400390625 69.2001953125 835.200195312 -23.5 c 0
 797.5 -125.799804688 684 -178.099609375 581.700195312 -140.299804688 c 0
 565.900390625 -134.5 551 -126.700195312 537.200195312 -117.099609375 c 1
 584.299804688 -49.5 l 1
 636.400390625 -85.7998046875 708.099609375 -73 744.400390625 -20.900390625 c 0
 780.700195312 31.2001953125 767.900390625 102.900390625 715.799804688 139.200195312 c 0
 713.599609375 140.700195312 711.400390625 142.099609375 709.099609375 143.5 c 1
 709.099609375 143.5 l 1
 552.900390625 219.599609375 364.599609375 154.599609375 288.400390625 -1.5 c 0
 267.5 -44.5 256.599609375 -91.599609375 256.599609375 -139.400390625 c 1
 173.700195312 -139.400390625 l 1
 173.700195312 -138.599609375 173.700195312 -137.700195312 173.700195312 -136.799804688 c 1
 173.700195312 -136.799804688 l 1
 173.700195312 74.099609375 190.700195312 284.5 235.099609375 490.700195312 c 1
 235.099609375 490.700195312 l 1
 270.799804688 647.200195312 428.799804688 746.900390625 587.200195312 715.299804688 c 0
 696.700195312 693.400390625 784.700195312 612 815 504.700195312 c 1
 732 481.200195312 l 1
 700.299804688 593.400390625 583.599609375 658.599609375 471.400390625 626.900390625 c 0
 395.099609375 605.299804688 333 543.599609375 317.5 465.900390625 c 1
 317.5 465.900390625 l 1
 292.799804688 349.799804688 275.299804688 232.299804688 265 114.099609375 c 1
 337.900390625 201.900390625 447.900390625 257.900390625 571 257.900390625 c 0
 621.5 257.900390625 671.599609375 248.5 718.299804688 229.900390625 c 1
 718.299804688 229.900390625 l 1
 727.400390625 226.5 736.099609375 222.599609375 744.299804688 218.099609375 c 0
 744.599609375 217.900390625 744.900390625 217.799804688 745.200195312 217.599609375 c 1
 745.200195312 217.599609375 l 1
EndSplineSet
EndChar

StartChar: uniE141
Encoding: 57665 57665 65
Width: 1000
Flags: H
LayerCount: 2
Fore
SplineSet
856.5 741 m 5
 921.700195312 758.5 l 5
 966 593 l 5
 900.799804688 575.5 l 5
 856.5 741 l 5
602.599609375 263.200195312 m 2
 760.5 263.200195312 l 2
 770.700195312 263.200195312 778.900390625 255 778.900390625 244.799804688 c 0
 778.900390625 234.599609375 770.700195312 226.400390625 760.5 226.400390625 c 2
 602.599609375 226.400390625 l 2
 592.400390625 226.400390625 584.200195312 234.599609375 584.200195312 244.799804688 c 0
 584.200195312 255 592.400390625 263.200195312 602.599609375 263.200195312 c 2
913.400390625 18.599609375 m 1
 973 -42.7998046875 l 1
 815.200195312 -195.799804688 563.299804688 -191.799804688 410.400390625 -34 c 0
 409.099609375 -32.599609375 407.799804688 -31.2998046875 406.5 -29.900390625 c 1
 377.099609375 -101.900390625 306.299804688 -152.700195312 223.700195312 -152.700195312 c 0
 114.700195312 -152.700195312 26.2998046875 -64.2998046875 26.2998046875 44.7001953125 c 0
 26.2998046875 153.700195312 114.700195312 242.099609375 223.700195312 242.099609375 c 0
 250.099609375 242.099609375 275.400390625 236.900390625 298.5 227.400390625 c 1
 298.400390625 229.400390625 298.299804688 231.299804688 298.299804688 233.200195312 c 1
 298.299804688 233.200195312 l 1
 300 420.299804688 l 1
 300 420.299804688 l 1
 298.099609375 584.5 425.599609375 719.099609375 591.299804688 721.099609375 c 0
 726.599609375 722.599609375 846.200195312 634.299804688 883.299804688 505.299804688 c 1
 800.299804688 481.799804688 l 1
 767.799804688 593.900390625 649.400390625 658.799804688 535.900390625 626.700195312 c 0
 446.700195312 601.5 387.599609375 522.400390625 384.200195312 431.599609375 c 1
 384.200195312 431.599609375 l 1
 384.200195312 224.400390625 l 1
 394 57.099609375 534.799804688 -73.599609375 703.700195312 -69.400390625 c 0
 782.200195312 -67.400390625 857 -36 913.400390625 18.599609375 c 1
223.700195312 -69.5 m 0
 286.799804688 -69.5 338 -18.400390625 338 44.7001953125 c 0
 338 107.799804688 286.799804688 159 223.700195312 159 c 0
 160.599609375 159 109.400390625 107.900390625 109.400390625 44.7998046875 c 0
 109.400390625 -18.2998046875 160.599609375 -69.5 223.700195312 -69.5 c 0
EndSplineSet
EndChar

StartChar: uniE142
Encoding: 57666 57666 66
Width: 1000
Flags: H
LayerCount: 2
Fore
SplineSet
818.799804688 694.099609375 m 5
 884 711.599609375 l 5
 928.299804688 546.099609375 l 5
 863.099609375 528.599609375 l 5
 818.799804688 694.099609375 l 5
834.200195312 263.200195312 m 2
 844.400390625 263.200195312 852.599609375 254.900390625 852.700195312 244.799804688 c 0
 852.700195312 234.599609375 844.5 226.400390625 834.299804688 226.400390625 c 2
 671.099609375 226.400390625 l 2
 660.900390625 226.400390625 652.700195312 234.599609375 652.700195312 244.799804688 c 0
 652.700195312 255 660.900390625 263.200195312 671.099609375 263.200195312 c 2
 834.200195312 263.200195312 l 2
384.200195312 321.099609375 m 0
 494.700195312 321.099609375 584.5 232.799804688 584.5 123.799804688 c 0
 584.5 14.7998046875 495 -73.599609375 384.5 -73.599609375 c 0
 335.799804688 -73.599609375 291.200195312 -56.400390625 256.5 -27.900390625 c 1
 255.099609375 -64.099609375 254.400390625 -100.400390625 254.400390625 -136.700195312 c 1
 168.599609375 -136.700195312 l 1
 168.599609375 71.2998046875 190.299804688 278.799804688 233.5 482.299804688 c 1
 233.5 482.299804688 l 1
 266.200195312 643.299804688 423.299804688 747.700195312 585.700195312 715.299804688 c 0
 695.700195312 693.400390625 784.099609375 612.400390625 814.900390625 505.400390625 c 1
 731.900390625 481.900390625 l 1
 699.400390625 594 581 658.900390625 467.5 626.799804688 c 0
 393.099609375 605.700195312 336.900390625 546.599609375 319 472.700195312 c 1
 319 472.700195312 l 1
 306.400390625 414.099609375 295.599609375 355.200195312 286.700195312 296.099609375 c 1
 315.5 312 348.799804688 321.099609375 384.200195312 321.099609375 c 0
384.200195312 9.400390625 m 0
 448.799804688 9.400390625 501.099609375 60.599609375 501.099609375 123.700195312 c 0
 501.099609375 186.799804688 448.799804688 238 384.200195312 238 c 0
 319.599609375 238 267.299804688 186.799804688 267.299804688 123.700195312 c 0
 267.299804688 60.599609375 319.599609375 9.400390625 384.200195312 9.400390625 c 0
EndSplineSet
EndChar

StartChar: uniE143
Encoding: 57667 57667 67
Width: 1000
Flags: H
LayerCount: 2
Fore
SplineSet
818.799804688 694.099609375 m 5
 884 711.599609375 l 5
 928.299804688 546.099609375 l 5
 863.099609375 528.599609375 l 5
 818.799804688 694.099609375 l 5
868.400390625 310.5 m 2
 880 310.5 889.5 301.099609375 889.5 289.400390625 c 1
 889.5 289.400390625 l 1
 889.5 277.700195312 880 268.299804688 868.400390625 268.299804688 c 2
 710.5 268.299804688 l 2
 698.799804688 268.299804688 689.400390625 277.700195312 689.400390625 289.400390625 c 0
 689.400390625 301.099609375 698.900390625 310.5 710.5 310.5 c 2
 868.400390625 310.5 l 2
790 243.700195312 m 1
 873.799804688 241.799804688 l 1
 873.700195312 230.900390625 874.099609375 220.799804688 873.799804688 209.700195312 c 2
 873.799804688 -142.200195312 l 1
 789.599609375 -142.200195312 l 1
 789.599609375 1.7998046875 l 1
 716.900390625 -89.7001953125 604.900390625 -148.299804688 479.299804688 -148.799804688 c 1
 479.299804688 -148.799804688 l 1
 451.599609375 -149.099609375 l 1
 451.599609375 -149.099609375 l 1
 289.700195312 -145.599609375 158.799804688 -13.7998046875 157.900390625 147.299804688 c 1
 157.900390625 147.299804688 l 1
 157.900390625 259.5 167.400390625 371.5 186.299804688 482.099609375 c 1
 186.299804688 482.099609375 l 1
 219 643.099609375 375.799804688 747.599609375 538.299804688 715.200195312 c 0
 648.299804688 693.299804688 736.700195312 612.299804688 767.5 505.299804688 c 1
 684.5 481.799804688 l 1
 652 593.900390625 533.599609375 658.799804688 420.099609375 626.700195312 c 0
 348.700195312 606.5 293.299804688 551.200195312 273.299804688 481.200195312 c 1
 254 372.799804688 244.099609375 263 243.799804688 153 c 1
 243.799804688 153 l 1
 241.700195312 37.900390625 333.200195312 -57.5 447.599609375 -63 c 1
 482.200195312 -63 l 2
 645.900390625 -60.7998046875 779.5 67.5 789.5 229.700195312 c 2
 790 242.200195312 l 1
 790 242.200195312 l 1
 790 242.700195312 790 243.200195312 790 243.700195312 c 1
EndSplineSet
EndChar

StartChar: uniE144
Encoding: 57668 57668 68
Width: 1000
Flags: HW
LayerCount: 2
Fore
SplineSet
925.799804688 379.400390625 m 2
 315.799804688 379.400390625 l 1
 300.299804688 293.700195312 288.599609375 207.200195312 280.900390625 120.299804688 c 1
 353.799804688 204.599609375 461.5 257.900390625 581.599609375 257.900390625 c 0
 629.099609375 257.900390625 676.200195312 249.299804688 720.5 232.799804688 c 0
 732.599609375 228.900390625 744.200195312 223.900390625 755.200195312 217.900390625 c 0
 755.400390625 217.799804688 755.599609375 217.700195312 755.799804688 217.599609375 c 0
 816.700195312 184 857.900390625 119.200195312 858 44.7998046875 c 0
 858 -64.2001953125 769.599609375 -152.599609375 660.599609375 -152.599609375 c 0
 551.599609375 -152.599609375 463.200195312 -64.2001953125 463.200195312 44.7998046875 c 0
 463.200195312 90.2001953125 478.599609375 132 504.400390625 165.400390625 c 1
 417.900390625 143.400390625 341.200195312 84.900390625 299 -1.599609375 c 0
 284 -32.2001953125 274.200195312 -65 269.799804688 -98.599609375 c 0
 267.799804688 -111.5 267.099609375 -124.099609375 267.099609375 -136.799804688 c 0
 267.099609375 -137.599609375 267.099609375 -138.5 267.099609375 -139.400390625 c 1
 184.200195312 -139.400390625 l 1
 184.200195312 -138.599609375 184.200195312 -137.700195312 184.200195312 -136.799804688 c 0
 184.200195312 36.400390625 199.299804688 209.200195312 229.200195312 379.400390625 c 1
 83.7001953125 379.400390625 l 1
 83.7001953125 468.900390625 l 1
 246.299804688 468.900390625 l 1
 264.900390625 559 287.799804688 648.200195312 314.700195312 736.400390625 c 1
 396.200195312 711.400390625 l 1
 371.799804688 631.400390625 350.799804688 550.5 333.400390625 468.900390625 c 1
 925.799804688 468.900390625 l 1
 925.799804688 379.400390625 l 2
660.5 159 m 0
 597.400390625 159 546.200195312 107.900390625 546.200195312 44.7998046875 c 0
 546.200195312 -18.2998046875 597.400390625 -69.5 660.5 -69.5 c 0
 723.599609375 -69.5 774.799804688 -18.400390625 774.799804688 44.7001953125 c 0
 774.799804688 88.7998046875 749.799804688 127.099609375 713.200195312 146.099609375 c 0
 708.099609375 148.5 703 150.700195312 697.900390625 152.700195312 c 0
 686.200195312 156.799804688 673.599609375 159 660.5 159 c 0
EndSplineSet
EndChar

StartChar: uniE155
Encoding: 57685 57685 69
Width: 1000
Flags: HW
LayerCount: 2
Fore
SplineSet
810.5 594.700195312 m 5
 810.5 632.5 842.299804688 663.099609375 881.599609375 663.099609375 c 4
 920.799804688 663.099609375 952.700195312 632.5 952.700195312 594.700195312 c 4
 952.700195312 556.900390625 920.900390625 526.299804688 881.599609375 526.299804688 c 4
 842.299804688 526.299804688 810.5 556.900390625 810.5 594.700195312 c 5
 810.5 594.700195312 l 5
844.700195312 594.700195312 m 5
 844.700195312 575.799804688 861.200195312 560.5 881.5 560.5 c 4
 901.799804688 560.5 918.299804688 575.799804688 918.299804688 594.700195312 c 4
 918.299804688 613.599609375 901.799804688 628.900390625 881.5 628.900390625 c 4
 861.200195312 628.900390625 844.700195312 613.599609375 844.700195312 594.700195312 c 5
 844.700195312 594.700195312 l 5
925.799804688 379.400390625 m 2
 315.799804688 379.400390625 l 1
 300.299804688 293.700195312 288.599609375 207.200195312 280.900390625 120.299804688 c 1
 353.799804688 204.599609375 461.5 257.900390625 581.599609375 257.900390625 c 0
 629.099609375 257.900390625 676.200195312 249.299804688 720.5 232.799804688 c 0
 732.599609375 228.900390625 744.200195312 223.900390625 755.200195312 217.900390625 c 0
 755.400390625 217.799804688 755.599609375 217.700195312 755.799804688 217.599609375 c 0
 816.700195312 184 857.900390625 119.200195312 858 44.7998046875 c 0
 858 -64.2001953125 769.599609375 -152.599609375 660.599609375 -152.599609375 c 0
 551.599609375 -152.599609375 463.200195312 -64.2001953125 463.200195312 44.7998046875 c 0
 463.200195312 90.2001953125 478.599609375 132 504.400390625 165.400390625 c 1
 417.900390625 143.400390625 341.200195312 84.900390625 299 -1.599609375 c 0
 284 -32.2001953125 274.200195312 -65 269.799804688 -98.599609375 c 0
 267.799804688 -111.5 267.099609375 -124.099609375 267.099609375 -136.799804688 c 0
 267.099609375 -137.599609375 267.099609375 -138.5 267.099609375 -139.400390625 c 1
 184.200195312 -139.400390625 l 1
 184.200195312 -138.599609375 184.200195312 -137.700195312 184.200195312 -136.799804688 c 0
 184.200195312 36.400390625 199.299804688 209.200195312 229.200195312 379.400390625 c 1
 83.7001953125 379.400390625 l 1
 83.7001953125 468.900390625 l 1
 246.299804688 468.900390625 l 1
 264.900390625 559 287.799804688 648.200195312 314.700195312 736.400390625 c 1
 396.200195312 711.400390625 l 1
 371.799804688 631.400390625 350.799804688 550.5 333.400390625 468.900390625 c 1
 925.799804688 468.900390625 l 1
 925.799804688 379.400390625 l 2
660.5 159 m 0
 597.400390625 159 546.200195312 107.900390625 546.200195312 44.7998046875 c 0
 546.200195312 -18.2998046875 597.400390625 -69.5 660.5 -69.5 c 0
 723.599609375 -69.5 774.799804688 -18.400390625 774.799804688 44.7001953125 c 0
 774.799804688 88.7998046875 749.799804688 127.099609375 713.200195312 146.099609375 c 0
 708.099609375 148.5 703 150.700195312 697.900390625 152.700195312 c 0
 686.200195312 156.799804688 673.599609375 159 660.5 159 c 0
EndSplineSet
EndChar

StartChar: uniE156
Encoding: 57686 57686 70
Width: 1000
Flags: HW
LayerCount: 2
Fore
SplineSet
810.5 594.700195312 m 5
 810.5 632.5 842.299804688 663.099609375 881.599609375 663.099609375 c 4
 920.799804688 663.099609375 952.700195312 632.5 952.700195312 594.700195312 c 4
 952.700195312 556.900390625 920.900390625 526.299804688 881.599609375 526.299804688 c 4
 842.299804688 526.299804688 810.5 556.900390625 810.5 594.700195312 c 5
 810.5 594.700195312 l 5
844.700195312 594.700195312 m 5
 844.700195312 575.799804688 861.200195312 560.5 881.5 560.5 c 4
 901.799804688 560.5 918.299804688 575.799804688 918.299804688 594.700195312 c 4
 918.299804688 613.599609375 901.799804688 628.900390625 881.5 628.900390625 c 4
 861.200195312 628.900390625 844.700195312 613.599609375 844.700195312 594.700195312 c 5
 844.700195312 594.700195312 l 5
925.799804688 379.400390625 m 2
 305.400390625 379.400390625 l 1
 289.5 291.400390625 277.599609375 202.700195312 269.900390625 113.5 c 1
 342.700195312 201.700195312 453 257.900390625 576.299804688 257.900390625 c 0
 626.799804688 257.900390625 676.900390625 248.5 723.599609375 229.900390625 c 0
 732.700195312 226.5 741.400390625 222.599609375 749.599609375 218.099609375 c 0
 749.900390625 217.900390625 750.200195312 217.799804688 750.5 217.599609375 c 0
 834.700195312 171.400390625 874.700195312 69.2001953125 840.5 -23.5 c 0
 802.799804688 -125.799804688 689.299804688 -178.099609375 587 -140.299804688 c 0
 571.200195312 -134.5 556.299804688 -126.700195312 542.5 -117.099609375 c 1
 589.599609375 -49.5 l 1
 641.700195312 -85.7998046875 713.400390625 -73 749.700195312 -20.900390625 c 0
 786 31.2001953125 773.200195312 102.900390625 721.099609375 139.200195312 c 0
 718.900390625 140.700195312 716.700195312 142.099609375 714.400390625 143.5 c 0
 558.200195312 219.599609375 369.900390625 154.599609375 293.700195312 -1.5 c 0
 272.799804688 -44.5 261.900390625 -91.599609375 261.900390625 -139.400390625 c 1
 179 -139.400390625 l 1
 179 -138.599609375 179 -137.700195312 179 -136.799804688 c 0
 179 36.5 192.299804688 209.200195312 220.700195312 379.400390625 c 1
 83.7001953125 379.400390625 l 1
 83.7001953125 468.900390625 l 1
 237 468.900390625 l 1
 255 559.200195312 277.400390625 648.700195312 304.5 737.099609375 c 1
 386.099609375 712.099609375 l 1
 361.599609375 631.900390625 340.599609375 550.700195312 323.099609375 468.900390625 c 1
 925.799804688 468.900390625 l 1
 925.799804688 379.400390625 l 2
EndSplineSet
EndChar

StartChar: uniE157
Encoding: 57687 57687 71
Width: 1000
Flags: HW
LayerCount: 2
Fore
SplineSet
810.5 594.700195312 m 5
 810.5 632.5 842.299804688 663.099609375 881.599609375 663.099609375 c 4
 920.799804688 663.099609375 952.700195312 632.5 952.700195312 594.700195312 c 4
 952.700195312 556.900390625 920.900390625 526.299804688 881.599609375 526.299804688 c 4
 842.299804688 526.299804688 810.5 556.900390625 810.5 594.700195312 c 5
 810.5 594.700195312 l 5
844.700195312 594.700195312 m 5
 844.700195312 575.799804688 861.200195312 560.5 881.5 560.5 c 4
 901.799804688 560.5 918.299804688 575.799804688 918.299804688 594.700195312 c 4
 918.299804688 613.599609375 901.799804688 628.900390625 881.5 628.900390625 c 4
 861.200195312 628.900390625 844.700195312 613.599609375 844.700195312 594.700195312 c 5
 844.700195312 594.700195312 l 5
918.5 18.599609375 m 1
 978 -42.7001953125 l 1
 820.200195312 -195.700195312 568.299804688 -191.700195312 415.400390625 -33.900390625 c 0
 414.200195312 -32.599609375 412.900390625 -31.2998046875 411.700195312 -30 c 1
 382.299804688 -102 311.599609375 -152.700195312 229 -152.700195312 c 0
 120 -152.700195312 31.599609375 -64.2998046875 31.599609375 44.7001953125 c 0
 31.599609375 153.700195312 120 242.099609375 229 242.099609375 c 0
 255.400390625 242.099609375 280.599609375 236.900390625 303.599609375 227.5 c 1
 303.5 229.400390625 303.400390625 231.299804688 303.400390625 233.200195312 c 2
 304 379.400390625 l 1
 83.7001953125 379.400390625 l 1
 83.7001953125 468.900390625 l 1
 304.299804688 468.900390625 l 1
 305.299804688 721.099609375 l 1
 389.5 721.099609375 l 1
 389.5 468.900390625 l 1
 925.799804688 468.900390625 l 1
 925.799804688 379.400390625 l 1
 389.5 379.400390625 l 1
 389.5 221.299804688 l 1
 400.900390625 55.5 541 -73.5 708.799804688 -69.400390625 c 0
 787.299804688 -67.400390625 862.099609375 -36 918.5 18.599609375 c 1
228.900390625 -69.599609375 m 0
 292 -69.599609375 343.200195312 -18.400390625 343.200195312 44.7001953125 c 0
 343.200195312 59.599609375 340.400390625 73.7998046875 335.099609375 86.7998046875 c 0
 334.599609375 88.2001953125 334 89.599609375 333.400390625 91 c 0
 315.700195312 131 275.599609375 159 228.900390625 159 c 0
 165.799804688 159 114.599609375 107.799804688 114.599609375 44.7001953125 c 0
 114.599609375 -18.400390625 165.799804688 -69.599609375 228.900390625 -69.599609375 c 0
EndSplineSet
EndChar

StartChar: uniE158
Encoding: 57688 57688 72
Width: 1000
Flags: HW
LayerCount: 2
Fore
SplineSet
810.5 594.700195312 m 5
 810.5 632.5 842.299804688 663.099609375 881.599609375 663.099609375 c 4
 920.799804688 663.099609375 952.700195312 632.5 952.700195312 594.700195312 c 4
 952.700195312 556.900390625 920.900390625 526.299804688 881.599609375 526.299804688 c 4
 842.299804688 526.299804688 810.5 556.900390625 810.5 594.700195312 c 5
 810.5 594.700195312 l 5
844.700195312 594.700195312 m 5
 844.700195312 575.799804688 861.200195312 560.5 881.5 560.5 c 4
 901.799804688 560.5 918.299804688 575.799804688 918.299804688 594.700195312 c 4
 918.299804688 613.599609375 901.799804688 628.900390625 881.5 628.900390625 c 4
 861.200195312 628.900390625 844.700195312 613.599609375 844.700195312 594.700195312 c 5
 844.700195312 594.700195312 l 5
925.799804688 379.400390625 m 1
 305.400390625 379.400390625 l 1
 300.299804688 351.599609375 295.700195312 323.700195312 291.5 295.799804688 c 1
 320.5 311.900390625 353.900390625 321.099609375 389.5 321.099609375 c 0
 499.900390625 321.099609375 589.5 232.799804688 589.5 123.799804688 c 0
 589.5 14.7998046875 500 -73.599609375 389.5 -73.599609375 c 0
 340.599609375 -73.599609375 295.799804688 -56.2998046875 261.099609375 -27.599609375 c 1
 259.700195312 -64 259 -100.400390625 259 -136.799804688 c 1
 173.700195312 -136.799804688 l 1
 173.700195312 36.400390625 188.799804688 209.200195312 218.700195312 379.400390625 c 1
 83.7001953125 379.400390625 l 1
 83.7001953125 468.900390625 l 1
 235.799804688 468.900390625 l 1
 254.5 559.200195312 277.400390625 648.700195312 304.5 737.099609375 c 1
 386.099609375 712.099609375 l 1
 361.5 631.900390625 340.5 550.799804688 323 468.900390625 c 1
 925.799804688 468.900390625 l 1
 925.799804688 379.400390625 l 1
389.5 238 m 0
 324.900390625 238 272.599609375 186.799804688 272.599609375 123.700195312 c 0
 272.599609375 60.599609375 324.900390625 9.400390625 389.5 9.400390625 c 0
 454 9.400390625 506.400390625 60.599609375 506.400390625 123.700195312 c 0
 506.400390625 186.799804688 454.099609375 238 389.5 238 c 0
EndSplineSet
EndChar

StartChar: uniE159
Encoding: 57689 57689 73
Width: 1000
Flags: HW
LayerCount: 2
Fore
SplineSet
810.5 594.700195312 m 5
 810.5 632.5 842.299804688 663.099609375 881.599609375 663.099609375 c 4
 920.799804688 663.099609375 952.700195312 632.5 952.700195312 594.700195312 c 4
 952.700195312 556.900390625 920.900390625 526.299804688 881.599609375 526.299804688 c 4
 842.299804688 526.299804688 810.5 556.900390625 810.5 594.700195312 c 5
 810.5 594.700195312 l 5
844.700195312 594.700195312 m 5
 844.700195312 575.799804688 861.200195312 560.5 881.5 560.5 c 4
 901.799804688 560.5 918.299804688 575.799804688 918.299804688 594.700195312 c 4
 918.299804688 613.599609375 901.799804688 628.900390625 881.5 628.900390625 c 4
 861.200195312 628.900390625 844.700195312 613.599609375 844.700195312 594.700195312 c 5
 844.700195312 594.700195312 l 5
862.599609375 208 m 1
 949.5 161.799804688 991.099609375 57.2998046875 956.099609375 -37.7998046875 c 0
 917.799804688 -141.400390625 802.799804688 -194.400390625 699.200195312 -156.099609375 c 0
 673.700195312 -146.700195312 650.400390625 -132.200195312 630.799804688 -113.599609375 c 1
 581.200195312 -136 526.200195312 -148.599609375 468.299804688 -148.799804688 c 2
 440.599609375 -149.099609375 l 1
 278.799804688 -145.599609375 148.299804688 -13.7998046875 147.400390625 147.299804688 c 0
 147.400390625 224.900390625 152 302.5 161 379.400390625 c 1
 83.7001953125 379.400390625 l 1
 83.7001953125 468.900390625 l 1
 173.599609375 468.900390625 l 1
 188.200195312 558.5 209 647.200195312 235.900390625 734.200195312 c 1
 318 708.900390625 l 1
 293.700195312 630.099609375 274.599609375 549.900390625 260.700195312 468.900390625 c 1
 925.799804688 468.900390625 l 1
 925.799804688 379.400390625 l 1
 247.5 379.400390625 l 1
 238.299804688 304.400390625 233.5 228.799804688 233.299804688 153 c 0
 231.299804688 37.900390625 322.299804688 -57.5 436.599609375 -63.2001953125 c 1
 471.200195312 -63.2001953125 l 2
 639.599609375 -60.900390625 776.200195312 74.7998046875 779.099609375 243.599609375 c 1
 864.599609375 242.099609375 l 1
 864.400390625 230.599609375 863.799804688 219.200195312 862.599609375 208 c 1
841.5 -58.7998046875 m 0
 891.5 -18.5 899.200195312 54.7998046875 858.700195312 104.700195312 c 0
 854.099609375 110.400390625 848.900390625 115.700195312 843.299804688 120.400390625 c 1
 817.5 44.900390625 769.700195312 -20.2998046875 707.599609375 -67.599609375 c 1
 748.400390625 -92.5 802.200195312 -90.599609375 841.5 -58.7998046875 c 0
EndSplineSet
EndChar

StartChar: uniE15A
Encoding: 57690 57690 74
Width: 1000
Flags: HW
LayerCount: 2
Fore
SplineSet
810.5 594.700195312 m 5
 810.5 632.5 842.299804688 663.099609375 881.599609375 663.099609375 c 4
 920.799804688 663.099609375 952.700195312 632.5 952.700195312 594.700195312 c 4
 952.700195312 556.900390625 920.900390625 526.299804688 881.599609375 526.299804688 c 4
 842.299804688 526.299804688 810.5 556.900390625 810.5 594.700195312 c 5
 810.5 594.700195312 l 5
844.700195312 594.700195312 m 5
 844.700195312 575.799804688 861.200195312 560.5 881.5 560.5 c 4
 901.799804688 560.5 918.299804688 575.799804688 918.299804688 594.700195312 c 4
 918.299804688 613.599609375 901.799804688 628.900390625 881.5 628.900390625 c 4
 861.200195312 628.900390625 844.700195312 613.599609375 844.700195312 594.700195312 c 5
 844.700195312 594.700195312 l 5
925.799804688 379.400390625 m 1
 258 379.400390625 l 1
 248.599609375 302.5 243.799804688 225 243.799804688 147.299804688 c 0
 244.799804688 34.7001953125 332.099609375 -57.7001953125 444.5 -63.2001953125 c 1
 479.099609375 -63.2001953125 l 2
 496.799804688 -63 514.099609375 -61.2998046875 531 -58.2001953125 c 1
 460.200195312 -28.2998046875 410.5 41.900390625 410.5 123.599609375 c 0
 410.5 232.599609375 498.900390625 321 607.900390625 321 c 0
 685.400390625 321 752.5 276.299804688 784.799804688 211.299804688 c 1
 786.099609375 221.900390625 786.799804688 231.599609375 787 242.5 c 2
 789.5 300 l 1
 873.700195312 300 l 1
 873.700195312 -147.5 l 1
 789.5 -147.5 l 1
 789.5 5.599609375 l 1
 717 -88.099609375 603.599609375 -148.400390625 476.200195312 -148.900390625 c 2
 448.5 -149.200195312 l 1
 284.200195312 -145.599609375 155 -9.900390625 157.900390625 154.400390625 c 0
 158.200195312 229.700195312 162.700195312 304.799804688 171.5 379.400390625 c 1
 83.7001953125 379.400390625 l 1
 83.7001953125 468.900390625 l 1
 184.099609375 468.900390625 l 1
 198.700195312 558.5 219.5 647.099609375 246.400390625 734.099609375 c 1
 328.5 708.799804688 l 1
 304.200195312 630 285.099609375 549.900390625 271.200195312 468.900390625 c 1
 925.799804688 468.900390625 l 1
 925.799804688 379.400390625 l 1
493.599609375 123.700195312 m 0
 493.599609375 60.599609375 544.799804688 9.400390625 607.900390625 9.400390625 c 0
 671 9.400390625 722.200195312 60.599609375 722.200195312 123.700195312 c 0
 722.200195312 186.799804688 671 238 607.900390625 238 c 0
 544.799804688 238 493.599609375 186.799804688 493.599609375 123.700195312 c 0
EndSplineSet
EndChar

StartChar: uniE15B
Encoding: 57691 57691 75
Width: 1000
Flags: HW
LayerCount: 2
Fore
SplineSet
810.5 594.700195312 m 5
 810.5 632.5 842.299804688 663.099609375 881.599609375 663.099609375 c 4
 920.799804688 663.099609375 952.700195312 632.5 952.700195312 594.700195312 c 4
 952.700195312 556.900390625 920.900390625 526.299804688 881.599609375 526.299804688 c 4
 842.299804688 526.299804688 810.5 556.900390625 810.5 594.700195312 c 5
 810.5 594.700195312 l 5
844.700195312 594.700195312 m 5
 844.700195312 575.799804688 861.200195312 560.5 881.5 560.5 c 4
 901.799804688 560.5 918.299804688 575.799804688 918.299804688 594.700195312 c 4
 918.299804688 613.599609375 901.799804688 628.900390625 881.5 628.900390625 c 4
 861.200195312 628.900390625 844.700195312 613.599609375 844.700195312 594.700195312 c 5
 844.700195312 594.700195312 l 5
247.5 379.400390625 m 1
 238.299804688 304.400390625 233.5 228.799804688 233.299804688 153 c 0
 231.299804688 37.900390625 322.099609375 -57.5 436.5 -63.2001953125 c 1
 471.099609375 -63.2001953125 l 2
 639.5 -60.7998046875 776 74.7998046875 779 243.700195312 c 1
 864.5 242.200195312 l 1
 864.299804688 233.299804688 863.900390625 224.5 863.200195312 215.799804688 c 2
 863.200195312 -142.200195312 l 1
 779 -142.200195312 l 1
 779 2.5 l 1
 706.400390625 -89.400390625 594.099609375 -148.299804688 468.200195312 -148.799804688 c 2
 440.5 -149.099609375 l 1
 278.599609375 -145.599609375 148.299804688 -13.7998046875 147.400390625 147.299804688 c 0
 147.400390625 224.900390625 152 302.5 161 379.400390625 c 1
 83.7001953125 379.400390625 l 1
 83.7001953125 468.900390625 l 1
 173.599609375 468.900390625 l 1
 188.200195312 558.5 209 647.200195312 235.900390625 734.200195312 c 1
 318 708.900390625 l 1
 293.700195312 630.099609375 274.599609375 549.900390625 260.700195312 468.900390625 c 1
 925.799804688 468.900390625 l 1
 925.799804688 379.400390625 l 1
 247.5 379.400390625 l 1
EndSplineSet
EndChar

StartChar: uniE15C
Encoding: 57692 57692 76
Width: 1000
Flags: HW
LayerCount: 2
Fore
SplineSet
810.5 594.700195312 m 5
 810.5 632.5 842.299804688 663.099609375 881.599609375 663.099609375 c 4
 920.799804688 663.099609375 952.700195312 632.5 952.700195312 594.700195312 c 4
 952.700195312 556.900390625 920.900390625 526.299804688 881.599609375 526.299804688 c 4
 842.299804688 526.299804688 810.5 556.900390625 810.5 594.700195312 c 5
 810.5 594.700195312 l 5
844.700195312 594.700195312 m 5
 844.700195312 575.799804688 861.200195312 560.5 881.5 560.5 c 4
 901.799804688 560.5 918.299804688 575.799804688 918.299804688 594.700195312 c 4
 918.299804688 613.599609375 901.799804688 628.900390625 881.5 628.900390625 c 4
 861.200195312 628.900390625 844.700195312 613.599609375 844.700195312 594.700195312 c 5
 844.700195312 594.700195312 l 5
907 -29.099609375 m 0
 930.599609375 -62.5 943.299804688 -102.400390625 943.400390625 -143.400390625 c 1
 856.5 -143.599609375 l 1
 856.400390625 -81.7001953125 806.200195312 -31.7001953125 744.299804688 -31.7998046875 c 0
 721.200195312 -31.900390625 698.200195312 -38.2998046875 679.400390625 -51.599609375 c 2
 604.5 -104.099609375 l 1
 471.099609375 -187.299804688 294.400390625 -152.799804688 202.799804688 -22.7001953125 c 0
 167.700195312 27.2001953125 147.799804688 86.5 147.400390625 147.299804688 c 0
 147.400390625 224.900390625 152 302.5 161 379.400390625 c 1
 83.7001953125 379.400390625 l 1
 83.7001953125 468.900390625 l 1
 173.599609375 468.900390625 l 1
 188.200195312 558.5 209 647.200195312 235.900390625 734.200195312 c 1
 318 708.900390625 l 1
 293.599609375 630.099609375 274.5 549.900390625 260.599609375 468.900390625 c 1
 925.799804688 468.900390625 l 1
 925.799804688 379.400390625 l 1
 247.400390625 379.400390625 l 1
 238.5 306.599609375 233.700195312 233.299804688 233.200195312 159.700195312 c 0
 231.200195312 42.400390625 319.299804688 -56.7998046875 436.200195312 -62.5 c 0
 462.599609375 -63.7998046875 488.700195312 -60.099609375 513.400390625 -51.900390625 c 1
 443.5 -21.099609375 394.599609375 49.400390625 394.599609375 131.599609375 c 0
 394.599609375 242.099609375 483 331.599609375 592 331.599609375 c 0
 701 331.599609375 789.400390625 242.099609375 789.400390625 131.599609375 c 0
 789.400390625 103.700195312 783.799804688 77.099609375 773.599609375 53 c 1
 825.599609375 45.2998046875 874.400390625 17.2001953125 907 -29.099609375 c 0
654.700195312 33.7998046875 m 0
 685.799804688 54.7001953125 706.400390625 90.7001953125 706.400390625 131.599609375 c 0
 706.400390625 196.200195312 655.200195312 248.5 592.099609375 248.5 c 0
 529 248.5 477.799804688 196.200195312 477.799804688 131.599609375 c 0
 477.799804688 67 529 14.7001953125 592.099609375 14.7001953125 c 0
 608.900390625 14.7001953125 624.900390625 18.400390625 639.299804688 25.099609375 c 0
 644.400390625 28.2998046875 649.5 31.2001953125 654.700195312 33.7998046875 c 0
EndSplineSet
EndChar

StartChar: uniE15D
Encoding: 57693 57693 77
Width: 1000
Flags: HW
LayerCount: 2
Fore
SplineSet
810.5 594.700195312 m 5
 810.5 632.5 842.299804688 663.099609375 881.599609375 663.099609375 c 4
 920.799804688 663.099609375 952.700195312 632.5 952.700195312 594.700195312 c 4
 952.700195312 556.900390625 920.900390625 526.299804688 881.599609375 526.299804688 c 4
 842.299804688 526.299804688 810.5 556.900390625 810.5 594.700195312 c 5
 810.5 594.700195312 l 5
844.700195312 594.700195312 m 5
 844.700195312 575.799804688 861.200195312 560.5 881.5 560.5 c 4
 901.799804688 560.5 918.299804688 575.799804688 918.299804688 594.700195312 c 4
 918.299804688 613.599609375 901.799804688 628.900390625 881.5 628.900390625 c 4
 861.200195312 628.900390625 844.700195312 613.599609375 844.700195312 594.700195312 c 5
 844.700195312 594.700195312 l 5
757.900390625 278.900390625 m 0
 757.900390625 302.151367188 775.584960938 321 797.400390625 321 c 0
 819.21484375 321 836.900390625 302.151367188 836.900390625 278.900390625 c 0
 836.900390625 255.6484375 819.21484375 236.799804688 797.400390625 236.799804688 c 0
 775.584960938 236.799804688 757.900390625 255.6484375 757.900390625 278.900390625 c 0
895.514648438 126.4296875 m 0
 873.723632812 127.4453125 856.881835938 145.934570312 857.8984375 167.7265625 c 0
 858.915039062 189.517578125 877.404296875 206.358398438 899.1953125 205.342773438 c 0
 920.986328125 204.326171875 937.828125 185.836914062 936.811523438 164.045898438 c 0
 935.794921875 142.25390625 917.305664062 125.413085938 895.514648438 126.4296875 c 0
715.799804688 230.200195312 m 0
 819.599609375 192.900390625 873.099609375 79.599609375 835.299804688 -22.7998046875 c 0
 797.5 -125.200195312 682.700195312 -178 578.900390625 -140.700195312 c 0
 563.099609375 -135 548 -127.299804688 534.099609375 -117.900390625 c 1
 581.200195312 -50.2998046875 l 1
 634.900390625 -86 708 -72.5 744.599609375 -19.900390625 c 0
 781.200195312 32.5 767.299804688 104.099609375 713.599609375 139.799804688 c 0
 711.299804688 141.299804688 709 142.700195312 706.700195312 144 c 0
 549 219.599609375 359.200195312 153.900390625 283 -2.5 c 0
 268.200195312 -32.7998046875 258.5 -65.099609375 254.099609375 -98.2001953125 c 0
 252.299804688 -111.099609375 251.400390625 -123.900390625 251.400390625 -136.799804688 c 0
 251.400390625 -137.599609375 251.400390625 -138.5 251.400390625 -139.400390625 c 1
 168.5 -139.400390625 l 1
 168.5 -138.599609375 168.5 -137.700195312 168.5 -136.799804688 c 0
 168.5 36.400390625 183.599609375 209.200195312 213.5 379.400390625 c 1
 83.7001953125 379.400390625 l 1
 83.7001953125 468.900390625 l 1
 230.599609375 468.900390625 l 1
 249.299804688 559.200195312 272.200195312 648.700195312 299.299804688 737.099609375 c 1
 380.900390625 712.099609375 l 1
 356.299804688 631.900390625 335.299804688 550.700195312 317.799804688 468.900390625 c 1
 925.799804688 468.900390625 l 1
 925.799804688 379.400390625 l 1
 300.099609375 379.400390625 l 1
 284.599609375 293.400390625 272.900390625 206.700195312 265.099609375 119.599609375 c 1
 338.5 204.299804688 447.099609375 257.900390625 568.400390625 257.900390625 c 0
 618.900390625 257.900390625 669 248.599609375 715.799804688 230.200195312 c 0
EndSplineSet
EndChar

StartChar: uniE15E
Encoding: 57694 57694 78
Width: 1000
Flags: HW
LayerCount: 2
Fore
SplineSet
810.5 594.700195312 m 5
 810.5 632.5 842.299804688 663.099609375 881.599609375 663.099609375 c 4
 920.799804688 663.099609375 952.700195312 632.5 952.700195312 594.700195312 c 4
 952.700195312 556.900390625 920.900390625 526.299804688 881.599609375 526.299804688 c 4
 842.299804688 526.299804688 810.5 556.900390625 810.5 594.700195312 c 5
 810.5 594.700195312 l 5
844.700195312 594.700195312 m 5
 844.700195312 575.799804688 861.200195312 560.5 881.5 560.5 c 4
 901.799804688 560.5 918.299804688 575.799804688 918.299804688 594.700195312 c 4
 918.299804688 613.599609375 901.799804688 628.900390625 881.5 628.900390625 c 4
 861.200195312 628.900390625 844.700195312 613.599609375 844.700195312 594.700195312 c 5
 844.700195312 594.700195312 l 5
925.799804688 379.400390625 m 1
 252.799804688 379.400390625 l 1
 246.299804688 326.900390625 242.099609375 274 240 221 c 1
 276.5 269 334.599609375 300 400 300 c 0
 510.5 300 600 211.599609375 600 102.599609375 c 0
 600 33.099609375 563.5 -28 508.5 -63.2001953125 c 1
 915.799804688 -63.2001953125 l 1
 915.799804688 -147.400390625 l 1
 444.099609375 -147.400390625 l 2
 279.799804688 -143.799804688 149.799804688 -9.7998046875 152.700195312 154.5 c 0
 153 229.700195312 157.5 304.799804688 166.299804688 379.400390625 c 1
 83.7001953125 379.400390625 l 1
 83.7001953125 468.900390625 l 1
 178.799804688 468.900390625 l 1
 193.5 558.5 214.299804688 647.200195312 241.200195312 734.200195312 c 1
 323.299804688 708.900390625 l 1
 298.900390625 630.099609375 279.799804688 549.900390625 265.900390625 468.900390625 c 1
 925.799804688 468.900390625 l 1
 925.799804688 379.400390625 l 1
400 216.900390625 m 0
 335.400390625 216.900390625 283.099609375 165.700195312 283.099609375 102.599609375 c 0
 283.099609375 39.5 335.400390625 -11.7001953125 400 -11.7001953125 c 0
 464.599609375 -11.7001953125 516.900390625 39.5 516.900390625 102.599609375 c 0
 516.900390625 165.700195312 464.599609375 216.900390625 400 216.900390625 c 0
EndSplineSet
EndChar

StartChar: uniE15F
Encoding: 57695 57695 79
Width: 1000
Flags: HW
LayerCount: 2
Fore
SplineSet
810.5 594.700195312 m 5
 810.5 632.5 842.299804688 663.099609375 881.599609375 663.099609375 c 4
 920.799804688 663.099609375 952.700195312 632.5 952.700195312 594.700195312 c 4
 952.700195312 556.900390625 920.900390625 526.299804688 881.599609375 526.299804688 c 4
 842.299804688 526.299804688 810.5 556.900390625 810.5 594.700195312 c 5
 810.5 594.700195312 l 5
844.700195312 594.700195312 m 5
 844.700195312 575.799804688 861.200195312 560.5 881.5 560.5 c 4
 901.799804688 560.5 918.299804688 575.799804688 918.299804688 594.700195312 c 4
 918.299804688 613.599609375 901.799804688 628.900390625 881.5 628.900390625 c 4
 861.200195312 628.900390625 844.700195312 613.599609375 844.700195312 594.700195312 c 5
 844.700195312 594.700195312 l 5
668.400390625 276.299804688 m 0
 668.400390625 298.115234375 686.084960938 315.799804688 707.900390625 315.799804688 c 0
 729.71484375 315.799804688 747.400390625 298.115234375 747.400390625 276.299804688 c 0
 747.400390625 254.484375 729.71484375 236.799804688 707.900390625 236.799804688 c 0
 686.084960938 236.799804688 668.400390625 254.484375 668.400390625 276.299804688 c 0
805.200195312 276.299804688 m 0
 805.200195312 298.115234375 822.884765625 315.799804688 844.700195312 315.799804688 c 0
 866.515625 315.799804688 884.200195312 298.115234375 884.200195312 276.299804688 c 0
 884.200195312 254.484375 866.515625 236.799804688 844.700195312 236.799804688 c 0
 822.884765625 236.799804688 805.200195312 254.484375 805.200195312 276.299804688 c 0
925.799804688 468.900390625 m 1
 925.799804688 379.400390625 l 1
 258.099609375 379.400390625 l 1
 251.599609375 326.900390625 247.400390625 274 245.299804688 221 c 1
 281.799804688 269 339.900390625 300 405.299804688 300 c 0
 515.799804688 300 605.299804688 211.599609375 605.299804688 102.599609375 c 0
 605.299804688 33.099609375 568.799804688 -28 513.799804688 -63.2001953125 c 1
 921 -63.2001953125 l 1
 921 -147.400390625 l 1
 449.5 -147.400390625 l 2
 285.200195312 -143.799804688 155 -9.7998046875 158 154.5 c 0
 158.299804688 229.700195312 162.799804688 304.799804688 171.599609375 379.400390625 c 1
 83.7001953125 379.400390625 l 1
 83.7001953125 468.900390625 l 1
 184.099609375 468.900390625 l 1
 198.799804688 558.5 219.599609375 647.200195312 246.5 734.200195312 c 1
 328.599609375 708.900390625 l 1
 304.200195312 630.099609375 285.099609375 549.900390625 271.200195312 468.900390625 c 1
 925.799804688 468.900390625 l 1
405.299804688 216.900390625 m 0
 340.700195312 216.900390625 288.400390625 165.700195312 288.400390625 102.599609375 c 0
 288.400390625 39.5 340.700195312 -11.7001953125 405.299804688 -11.7001953125 c 0
 469.900390625 -11.7001953125 522.200195312 39.5 522.200195312 102.599609375 c 0
 522.200195312 165.700195312 469.900390625 216.900390625 405.299804688 216.900390625 c 0
EndSplineSet
EndChar

StartChar: uniE160
Encoding: 57696 57696 80
Width: 1000
Flags: HW
LayerCount: 2
Fore
SplineSet
810.5 594.700195312 m 5
 810.5 632.5 842.299804688 663.099609375 881.599609375 663.099609375 c 4
 920.799804688 663.099609375 952.700195312 632.5 952.700195312 594.700195312 c 4
 952.700195312 556.900390625 920.900390625 526.299804688 881.599609375 526.299804688 c 4
 842.299804688 526.299804688 810.5 556.900390625 810.5 594.700195312 c 5
 810.5 594.700195312 l 5
844.700195312 594.700195312 m 5
 844.700195312 575.799804688 861.200195312 560.5 881.5 560.5 c 4
 901.799804688 560.5 918.299804688 575.799804688 918.299804688 594.700195312 c 4
 918.299804688 613.599609375 901.799804688 628.900390625 881.5 628.900390625 c 4
 861.200195312 628.900390625 844.700195312 613.599609375 844.700195312 594.700195312 c 5
 844.700195312 594.700195312 l 5
742.099609375 321.099609375 m 0
 852.599609375 321.099609375 942.099609375 231.599609375 942.099609375 121.099609375 c 0
 942.099609375 10.599609375 852.599609375 -78.900390625 742.099609375 -78.900390625 c 0
 723.900390625 -78.900390625 706.299804688 -76.5 689.5 -71.900390625 c 1
 689.5 -147.299804688 l 1
 605.299804688 -147.299804688 l 1
 605.299804688 -29.2001953125 l 1
 446.599609375 62.400390625 l 1
 447.099609375 56.599609375 447.400390625 50.7001953125 447.400390625 44.7998046875 c 0
 447.400390625 -64.2001953125 359 -152.599609375 250 -152.599609375 c 0
 141 -152.599609375 52.599609375 -64.099609375 52.599609375 44.900390625 c 0
 52.599609375 153.900390625 141 242.299804688 250 242.299804688 c 0
 269.200195312 242.299804688 287.799804688 239.5 305.299804688 234.400390625 c 1
 305.299804688 379.400390625 l 1
 83.7001953125 379.400390625 l 1
 83.7001953125 468.900390625 l 1
 305.299804688 468.900390625 l 1
 305.299804688 721.200195312 l 1
 389.5 721.200195312 l 1
 389.5 468.900390625 l 1
 925.799804688 468.900390625 l 1
 925.799804688 379.400390625 l 1
 389.5 379.400390625 l 1
 389.5 194.200195312 l 1
 542.700195312 105.700195312 l 1
 542.299804688 110.799804688 542.099609375 115.900390625 542.099609375 121.099609375 c 0
 542.099609375 231.599609375 631.599609375 321.099609375 742.099609375 321.099609375 c 0
250 -69.599609375 m 0
 313.099609375 -69.599609375 364.299804688 -18.400390625 364.299804688 44.7001953125 c 0
 364.299804688 82.400390625 346 115.799804688 317.900390625 136.700195312 c 1
 295.5 149.599609375 l 2
 281.5 155.599609375 266.200195312 159 250 159 c 0
 186.900390625 159 135.700195312 107.799804688 135.700195312 44.7001953125 c 0
 135.700195312 -18.400390625 186.900390625 -69.599609375 250 -69.599609375 c 0
742.099609375 5.2998046875 m 0
 806.099609375 5.2998046875 857.900390625 57 857.900390625 121 c 0
 857.900390625 185 806 236.799804688 742.099609375 236.799804688 c 0
 678.099609375 236.799804688 626.299804688 184.900390625 626.299804688 121 c 0
 626.299804688 87.2001953125 640.900390625 56.7998046875 664 35.599609375 c 1
 701.5 13.900390625 l 1
 700.900390625 12.7998046875 l 1
 713.700195312 8 727.599609375 5.2998046875 742.099609375 5.2998046875 c 0
EndSplineSet
EndChar

StartChar: uniE161
Encoding: 57697 57697 81
Width: 1000
Flags: HW
LayerCount: 2
Fore
SplineSet
810.5 594.700195312 m 5
 810.5 632.5 842.299804688 663.099609375 881.599609375 663.099609375 c 4
 920.799804688 663.099609375 952.700195312 632.5 952.700195312 594.700195312 c 4
 952.700195312 556.900390625 920.900390625 526.299804688 881.599609375 526.299804688 c 4
 842.299804688 526.299804688 810.5 556.900390625 810.5 594.700195312 c 5
 810.5 594.700195312 l 5
844.700195312 594.700195312 m 5
 844.700195312 575.799804688 861.200195312 560.5 881.5 560.5 c 4
 901.799804688 560.5 918.299804688 575.799804688 918.299804688 594.700195312 c 4
 918.299804688 613.599609375 901.799804688 628.900390625 881.5 628.900390625 c 4
 861.200195312 628.900390625 844.700195312 613.599609375 844.700195312 594.700195312 c 5
 844.700195312 594.700195312 l 5
865.5 221.599609375 m 2
 875 216.099609375 878.299804688 203.900390625 872.799804688 194.400390625 c 0
 867.299804688 184.900390625 855.099609375 181.599609375 845.599609375 187.099609375 c 2
 707.799804688 266.700195312 l 2
 698.299804688 272.200195312 695 284.400390625 700.5 293.900390625 c 0
 706 303.400390625 718.200195312 306.700195312 727.700195312 301.200195312 c 2
 865.5 221.599609375 l 2
328.299804688 468.900390625 m 0
 925.799804688 468.900390625 l 1
 925.799804688 379.400390625 l 1
 310.599609375 379.400390625 l 1
 295.099609375 293.700195312 283.5 207.299804688 275.700195312 120.5 c 1
 348.599609375 204.599609375 456.200195312 257.900390625 576.299804688 257.900390625 c 0
 623.799804688 257.900390625 670.900390625 249.299804688 715.200195312 232.799804688 c 0
 727.299804688 228.900390625 738.900390625 223.900390625 749.900390625 217.900390625 c 0
 750.099609375 217.799804688 750.299804688 217.700195312 750.5 217.599609375 c 0
 811.400390625 184 852.599609375 119.200195312 852.599609375 44.7998046875 c 0
 852.599609375 -64.2001953125 764.200195312 -152.599609375 655.200195312 -152.599609375 c 0
 546.200195312 -152.599609375 457.799804688 -64.2001953125 457.799804688 44.7998046875 c 0
 457.799804688 90.2001953125 473.200195312 132 499 165.400390625 c 1
 412.5 143.400390625 335.799804688 84.900390625 293.599609375 -1.599609375 c 0
 278.700195312 -32 268.900390625 -64.599609375 264.5 -98 c 0
 262.200195312 -113.5 261.799804688 -123.799804688 261.799804688 -136.799804688 c 0
 261.799804688 -137.599609375 261.799804688 -138.5 261.799804688 -139.400390625 c 1
 178.900390625 -139.400390625 l 1
 178.900390625 -138.599609375 178.900390625 -137.700195312 178.900390625 -136.799804688 c 0
 178.900390625 36.5 194 209.200195312 223.900390625 379.400390625 c 1
 83.7001953125 379.400390625 l 1
 83.7001953125 468.900390625 l 1
 241 468.900390625 l 1
 259.799804688 559.200195312 282.700195312 648.799804688 309.799804688 737.200195312 c 1
 391.400390625 712.200195312 l 1
 366.799804688 631.900390625 345.799804688 550.799804688 328.299804688 468.900390625 c 0
655.299804688 159 m 0
 592.200195312 159 541 107.900390625 541 44.7998046875 c 0
 541 -18.2998046875 592.200195312 -69.5 655.299804688 -69.5 c 0
 718.400390625 -69.5 769.5 -18.400390625 769.599609375 44.7001953125 c 0
 769.599609375 88.7998046875 744.599609375 127.099609375 708 146.099609375 c 0
 702.900390625 148.5 697.799804688 150.700195312 692.700195312 152.700195312 c 0
 681 156.799804688 668.400390625 159 655.299804688 159 c 0
EndSplineSet
EndChar

StartChar: uniE162
Encoding: 57698 57698 82
Width: 1000
Flags: HW
LayerCount: 2
Fore
SplineSet
810.5 594.700195312 m 5
 810.5 632.5 842.299804688 663.099609375 881.599609375 663.099609375 c 4
 920.799804688 663.099609375 952.700195312 632.5 952.700195312 594.700195312 c 4
 952.700195312 556.900390625 920.900390625 526.299804688 881.599609375 526.299804688 c 4
 842.299804688 526.299804688 810.5 556.900390625 810.5 594.700195312 c 5
 810.5 594.700195312 l 5
844.700195312 594.700195312 m 5
 844.700195312 575.799804688 861.200195312 560.5 881.5 560.5 c 4
 901.799804688 560.5 918.299804688 575.799804688 918.299804688 594.700195312 c 4
 918.299804688 613.599609375 901.799804688 628.900390625 881.5 628.900390625 c 4
 861.200195312 628.900390625 844.700195312 613.599609375 844.700195312 594.700195312 c 5
 844.700195312 594.700195312 l 5
852.799804688 221.599609375 m 2
 862.299804688 216.099609375 865.599609375 203.900390625 860.099609375 194.400390625 c 0
 854.599609375 184.900390625 842.400390625 181.599609375 832.900390625 187.099609375 c 2
 695.099609375 266.700195312 l 2
 685.599609375 272.200195312 682.299804688 284.400390625 687.799804688 293.900390625 c 0
 693.299804688 303.400390625 705.5 306.700195312 715 301.200195312 c 2
 852.799804688 221.599609375 l 2
317.799804688 468.900390625 m 0
 925.799804688 468.900390625 l 1
 925.799804688 379.400390625 l 1
 300.099609375 379.400390625 l 1
 284.200195312 291.400390625 272.299804688 202.700195312 264.599609375 113.5 c 1
 337.400390625 201.700195312 447.700195312 257.900390625 571 257.900390625 c 0
 621.5 257.900390625 671.599609375 248.5 718.299804688 229.900390625 c 0
 727.400390625 226.5 736.099609375 222.599609375 744.299804688 218.099609375 c 0
 744.599609375 217.900390625 744.900390625 217.799804688 745.200195312 217.599609375 c 0
 829.5 171.400390625 869.400390625 69.2001953125 835.200195312 -23.5 c 0
 797.5 -125.799804688 684 -178.099609375 581.700195312 -140.299804688 c 0
 565.900390625 -134.5 551 -126.700195312 537.200195312 -117.099609375 c 1
 584.299804688 -49.5 l 1
 636.400390625 -85.7998046875 708.099609375 -73 744.400390625 -20.900390625 c 0
 780.700195312 31.2001953125 767.900390625 102.900390625 715.799804688 139.200195312 c 0
 713.599609375 140.700195312 711.400390625 142.099609375 709.099609375 143.5 c 0
 552.900390625 219.599609375 364.599609375 154.599609375 288.400390625 -1.5 c 0
 267.5 -44.5 256.599609375 -91.599609375 256.599609375 -139.400390625 c 1
 173.700195312 -139.400390625 l 1
 173.700195312 -138.599609375 173.700195312 -137.700195312 173.700195312 -136.799804688 c 0
 173.700195312 36.400390625 187 209.200195312 215.400390625 379.400390625 c 1
 83.7001953125 379.400390625 l 1
 83.7001953125 468.900390625 l 1
 231.799804688 468.900390625 l 1
 249.799804688 559.200195312 272.200195312 648.700195312 299.299804688 737.099609375 c 1
 380.900390625 712.099609375 l 1
 356.299804688 631.900390625 335.299804688 550.700195312 317.799804688 468.900390625 c 0
EndSplineSet
EndChar

StartChar: uniE163
Encoding: 57699 57699 83
Width: 1000
Flags: HW
LayerCount: 2
Fore
SplineSet
810.5 594.700195312 m 5
 810.5 632.5 842.299804688 663.099609375 881.599609375 663.099609375 c 4
 920.799804688 663.099609375 952.700195312 632.5 952.700195312 594.700195312 c 4
 952.700195312 556.900390625 920.900390625 526.299804688 881.599609375 526.299804688 c 4
 842.299804688 526.299804688 810.5 556.900390625 810.5 594.700195312 c 5
 810.5 594.700195312 l 5
844.700195312 594.700195312 m 5
 844.700195312 575.799804688 861.200195312 560.5 881.5 560.5 c 4
 901.799804688 560.5 918.299804688 575.799804688 918.299804688 594.700195312 c 4
 918.299804688 613.599609375 901.799804688 628.900390625 881.5 628.900390625 c 4
 861.200195312 628.900390625 844.700195312 613.599609375 844.700195312 594.700195312 c 5
 844.700195312 594.700195312 l 5
602.599609375 263.099609375 m 2
 760.5 263.099609375 l 2
 770.700195312 263.099609375 778.900390625 254.900390625 778.900390625 244.700195312 c 0
 778.900390625 234.5 770.700195312 226.299804688 760.5 226.299804688 c 2
 602.599609375 226.299804688 l 2
 592.5 226.299804688 584.200195312 234.599609375 584.200195312 244.700195312 c 0
 584.200195312 254.900390625 592.400390625 263.099609375 602.599609375 263.099609375 c 2
913.400390625 18.599609375 m 1
 973 -42.7998046875 l 1
 815.200195312 -195.799804688 563.299804688 -191.799804688 410.400390625 -34 c 0
 409.099609375 -32.599609375 407.799804688 -31.2998046875 406.5 -29.900390625 c 1
 377.099609375 -101.900390625 306.299804688 -152.700195312 223.700195312 -152.700195312 c 0
 114.700195312 -152.700195312 26.2998046875 -64.2998046875 26.2998046875 44.7001953125 c 0
 26.2998046875 153.700195312 114.700195312 242.099609375 223.700195312 242.099609375 c 0
 250.099609375 242.099609375 275.400390625 236.900390625 298.5 227.400390625 c 1
 298.400390625 229.400390625 298.299804688 231.299804688 298.299804688 233.200195312 c 2
 298.799804688 379.400390625 l 1
 83.7001953125 379.400390625 l 1
 83.7001953125 468.900390625 l 1
 299.099609375 468.900390625 l 1
 300 721.099609375 l 1
 384.200195312 721.099609375 l 1
 384.200195312 468.900390625 l 1
 925.799804688 468.900390625 l 1
 925.799804688 379.400390625 l 1
 384.200195312 379.400390625 l 1
 384.200195312 224.400390625 l 1
 394 57.099609375 534.799804688 -73.599609375 703.700195312 -69.400390625 c 0
 782.200195312 -67.400390625 857 -36 913.400390625 18.599609375 c 1
223.700195312 -69.5 m 0
 286.799804688 -69.5 338 -18.400390625 338 44.7001953125 c 0
 338 107.799804688 286.799804688 159 223.700195312 159 c 0
 160.599609375 159 109.400390625 107.900390625 109.400390625 44.7998046875 c 0
 109.400390625 -18.2998046875 160.599609375 -69.5 223.700195312 -69.5 c 0
EndSplineSet
EndChar

StartChar: uniE164
Encoding: 57700 57700 84
Width: 1000
Flags: HW
LayerCount: 2
Fore
SplineSet
810.5 594.700195312 m 5
 810.5 632.5 842.299804688 663.099609375 881.599609375 663.099609375 c 4
 920.799804688 663.099609375 952.700195312 632.5 952.700195312 594.700195312 c 4
 952.700195312 556.900390625 920.900390625 526.299804688 881.599609375 526.299804688 c 4
 842.299804688 526.299804688 810.5 556.900390625 810.5 594.700195312 c 5
 810.5 594.700195312 l 5
844.700195312 594.700195312 m 5
 844.700195312 575.799804688 861.200195312 560.5 881.5 560.5 c 4
 901.799804688 560.5 918.299804688 575.799804688 918.299804688 594.700195312 c 4
 918.299804688 613.599609375 901.799804688 628.900390625 881.5 628.900390625 c 4
 861.200195312 628.900390625 844.700195312 613.599609375 844.700195312 594.700195312 c 5
 844.700195312 594.700195312 l 5
834.200195312 264.200195312 m 2
 844.400390625 264.200195312 852.599609375 255.900390625 852.700195312 245.799804688 c 0
 852.700195312 235.599609375 844.5 227.400390625 834.299804688 227.400390625 c 2
 671.099609375 227.400390625 l 2
 660.900390625 227.400390625 652.700195312 235.599609375 652.700195312 245.799804688 c 0
 652.700195312 256 660.900390625 264.200195312 671.099609375 264.200195312 c 2
 834.200195312 264.200195312 l 2
317.5 468.900390625 m 1
 925.799804688 468.900390625 l 1
 925.799804688 379.400390625 l 1
 299.900390625 379.400390625 l 1
 294.900390625 352 290.400390625 324.400390625 286.200195312 296.799804688 c 1
 315.200195312 312.900390625 348.599609375 322.099609375 384.200195312 322.099609375 c 0
 494.700195312 322.099609375 584.200195312 233.799804688 584.200195312 124.799804688 c 0
 584.200195312 15.7998046875 494.700195312 -72.599609375 384.200195312 -72.599609375 c 0
 335.299804688 -72.599609375 290.5 -55.2998046875 255.799804688 -26.599609375 c 1
 254.400390625 -63 253.700195312 -99.400390625 253.700195312 -135.799804688 c 1
 168.400390625 -135.799804688 l 1
 168.400390625 37.099609375 183.400390625 209.5 213.200195312 379.400390625 c 1
 83.7001953125 379.400390625 l 1
 83.7001953125 468.900390625 l 1
 230.299804688 468.900390625 l 1
 249.099609375 559.599609375 272 649.400390625 299.200195312 738.099609375 c 1
 380.799804688 713.099609375 l 1
 356.099609375 632.599609375 335 551.099609375 317.5 468.900390625 c 1
384.200195312 239 m 0
 319.599609375 239 267.299804688 187.799804688 267.299804688 124.700195312 c 0
 267.299804688 61.599609375 319.599609375 10.400390625 384.200195312 10.400390625 c 0
 448.799804688 10.400390625 501.099609375 61.599609375 501.099609375 124.700195312 c 0
 501.099609375 187.799804688 448.799804688 239 384.200195312 239 c 0
EndSplineSet
EndChar

